<svg xmlns="http://www.w3.org/2000/svg" viewBox="0 0 60 85"><g id="Layer_2" data-name="Layer 2"><g id="Layer_1-2" data-name="Layer 1"><g id="CTK_logo_R"><rect width="60" height="85" style="fill:#fff"/><path d="M6,56.1H2.4A2.1,2.1,0,0,0,.2,53.9v.2a1.9,1.9,0,0,1,1.9,2.1H6.3c0-2.5-1.9-5-6.1-5v.2C3.1,51.5,6,53,6,56.1Z"/><path d="M.5,57.8c2.9.9,5.9,1.8,5.9,4.9S3.9,67.4.2,67.4v.2c3.8,0,6.4-2,6.4-4.9s-3.1-4.2-6-5.2H.2v.3Z"/><path d="M.3,64.8c1.4,0,2.4-.8,2.4-1.9S1.6,61.2.2,60.7V61c1.3.5,2.2.9,2.2,1.9S1.6,64.6.3,64.6H.2v.3Z"/><path d="M2.1,5.4H6.3C6.3,2.9,4.4.4.2.4V.6C3.1.6,6,2.1,6,5.3H2.4A2.1,2.1,0,0,0,.2,3v.2A1.9,1.9,0,0,1,2.1,5.4Z"/><path d="M.3,13.9c1.4,0,2.4-.8,2.4-1.9S1.6,10.3.2,9.8v.3c1.3.5,2.2.9,2.2,1.9S1.6,13.7.3,13.7H.2v.3Z"/><path d="M6.6,11.8c0-3.3-3.1-4.2-6-5.2H.2v.3H.5c2.9.9,5.9,1.8,5.9,4.9S3.9,16.5.2,16.5v.2C4,16.7,6.6,14.7,6.6,11.8Z"/><path d="M12.5,16.3h4.2V4.1H22V.8H7.3V4.1h5.2ZM7.5,3.8V1H21.7V3.8H16.5V16.1H12.8V3.8Z"/><path d="M28.6.8H24.4V16.3h4.2Zm-.2,15.3H24.6V1h3.7Z"/><path d="M35.8,6.8l5.9,9.5h4.3V.8H41.8v9.7L35.9.8H31.6V16.3h4.2Zm-.2,9.3H31.8V1h3.9l6.3,10.3V1h3.6V16.1H41.8L35.5,5.9Z"/><path d="M59.6,3.9V.8H49V16.3H59.6V13.2H53.2V10.1h6.4v-3H53.2V3.9Zm-.2,3.5V9.9H52.9v3.6h6.4v2.6H49.2V1H59.3V3.6H52.9V7.3Z"/><path d="M17,54.5a5,5,0,1,0,0,10,5,5,0,1,0,0-10Zm0,9.7a4.7,4.7,0,1,1,0-9.5,4.7,4.7,0,1,1,0,9.5Z"/><path d="M17,51.3c-5.9,0-8.9,4.1-8.9,8.2s3.1,8.2,8.9,8.2,8.9-4.1,8.9-8.2S22.9,51.3,17,51.3Zm0,16.1c-5.7,0-8.7-4-8.7-7.9s3-7.9,8.7-7.9,8.7,4,8.7,7.9S22.7,67.4,17,67.4Z"/><path d="M38.3,61.3l-5.9-9.7H28.1V67.2h4.2V57.7l5.9,9.5h4.3V51.7H38.3Zm.2-9.4h3.6V67H38.3L32,56.8V67H28.4V51.9h3.9l6.3,10.3Z"/><path d="M9.3,42.2h4.2V26.7H9.3Zm.2-15.3h3.7V42H9.5Z"/><path d="M33.2,42.2l5.5-15.6h-4l-3,9.8-3.1-9.8H25.7l-3,9.8-3.1-9.8h-4l5.5,15.5h3.1l3-9.4,3,9.4ZM24,42H21.3L15.9,26.9h3.5l3.2,10.3,3.2-10.3h2.6l3.2,10.3,3.2-10.3h3.5L33.1,42H30.3l-3.2-9.9Z"/><path d="M42.6,26.7,36.5,42.2H41l.7-1.9h5.8l.7,1.9h4.5L46.4,26.7ZM48.3,42l-.7-1.9H41.4L40.8,42H36.9l5.9-15.1h3.4l6,15.1Z"/><path d="M42.3,37.6h4.5l-2.2-6.8Zm.3-.2,1.9-5.8,1.9,5.8Z"/><polygon points="0.2 26.9 7.2 26.9 7.2 29.7 2 29.7 2 42 0.2 42 0.2 42.2 2.3 42.2 2.3 30 7.4 30 7.4 26.6 0.2 26.6 0.2 26.9"/></g></g></g></svg>