<svg xmlns="http://www.w3.org/2000/svg" viewBox="0 0 66 85"><title>Asset 1</title><g id="Layer_2" data-name="Layer 2"><g id="Layer_1-2" data-name="Layer 1"><g id="CTK_logo_left"><rect width="66" height="85" style="fill:#fff"/><polygon points="58.9 47.4 64.2 47.4 64.2 59.6 66 59.6 66 59.3 66 44.3 66 44 58.9 44 58.9 47.4"/><path d="M63.9,79.4H59.7c0,3.3,2.5,5.5,6.3,5.6V81.9A2.3,2.3,0,0,1,63.9,79.4Z"/><path d="M60.2,73.2c0,3.1,2.8,4,5.8,5h0V74.7c-1.2-.5-1.7-1-1.7-1.7s.8-1.4,1.7-1.4V68.6C63.3,68.7,60.2,70,60.2,73.2Z"/><path d="M17.8,28.1H13.6a3.8,3.8,0,0,1-3.9,2.6,4.6,4.6,0,0,1-4.7-4.7,4.6,4.6,0,0,1,4.7-4.7,3.7,3.7,0,0,1,4,3.1h4.1c-.5-3.9-3.7-6.5-8.1-6.5a8.6,8.6,0,0,0-6.4,2.5A8.1,8.1,0,0,0,1,25.9c0,4.1,3,8.2,8.7,8.2C13.9,34.1,17.1,31.7,17.8,28.1Z"/><polygon points="24.6 27.6 30.2 27.6 30.2 33.7 34.3 33.7 34.3 18.1 30.2 18.1 30.2 24.3 24.6 24.3 24.6 18.1 20.4 18.1 20.4 33.7 24.6 33.7 24.6 27.6"/><path d="M46,33.7h4.9l-3.4-4.9a5.5,5.5,0,0,0,3.3-5c0-3.2-2.7-5.7-6.3-5.7H37.2V33.7h4.2V29.5H43ZM41.4,21.3h2.6a2.5,2.5,0,1,1,0,5.1H41.4Z"/><rect x="53.2" y="18.1" width="4.2" height="15.58"/><path d="M30.8,44,24.7,59.6h4.5l.7-1.9h5.8l.7,1.9h4.5L34.6,44Zm0,10.7,1.9-5.8,1.9,5.8Z"/><polygon points="46.7 50.1 52.6 59.6 56.9 59.6 56.9 44 52.7 44 52.7 53.7 46.8 44 42.5 44 42.5 59.6 46.7 59.6 46.7 50.1"/><polygon points="21.1 59.6 21.1 47.3 26.4 47.3 26.4 44 11.7 44 11.7 47.3 17 47.3 17 59.6 21.1 59.6"/><polygon points="29.4 69 24.1 75.3 24.1 69 19.9 69 19.9 84.6 24.1 84.6 24.1 78.3 29.4 84.6 34.4 84.6 27.6 76.8 34.4 69 29.4 69"/><rect x="36.1" y="69" width="4.2" height="15.58"/><polygon points="53.6 78.7 47.7 69 43.4 69 43.4 84.6 47.5 84.6 47.5 75.1 53.4 84.6 57.7 84.6 57.7 69 53.6 69 53.6 78.7"/><path d="M63.9,28.5H59.7c0,3.3,2.5,5.5,6.3,5.6V31A2.3,2.3,0,0,1,63.9,28.5Z"/><path d="M60.2,22.3c0,3.1,2.8,4,5.8,5h0V23.8c-1.2-.5-1.7-1-1.7-1.7s.8-1.4,1.7-1.4V17.8C63.3,17.8,60.2,19.1,60.2,22.3Z"/></g></g></g></svg>