<?xml version="1.0" encoding="utf-8"?>
<!-- Generator: Adobe Illustrator 21.0.2, SVG Export Plug-In . SVG Version: 6.00 Build 0)  -->
<svg version="1.1" id="Layer_1" xmlns="http://www.w3.org/2000/svg" xmlns:xlink="http://www.w3.org/1999/xlink" x="0px" y="0px"
	 viewBox="0 0 1214.029 788.5" style="enable-background:new 0 0 1214.029 788.5;" xml:space="preserve">
<style type="text/css">
	.st0{fill:none;}
</style>
<title>Asset 2</title>
<rect x="618.156" y="761.134" class="st0" width="9.194" height="27.366"/>
<path class="st0" d="M808.069,760.488h-8.407L788.635,788.5h30.594L808.069,760.488z M798.836,785.788l5.061-15.366l4.989,15.521
	h-10.1L798.836,785.788z"/>
<path class="st0" d="M500.124,279.934h-8.407l-14.283,36.278h9.69l1.554-4.433h14.486l1.552,4.433h9.861L500.124,279.934z
	 M490.84,305.39l0.051-0.155l5.061-15.366l4.989,15.521H490.84z"/>
<polygon class="st0" points="491.168,305.154 500.618,305.154 495.947,290.632 "/>
<polygon class="st0" points="803.892,771.186 799.113,785.708 808.563,785.708 "/>
<polygon class="st0" points="1076.246,691.25 1085.696,691.25 1081.026,676.728 "/>
<path class="st0" d="M482.492,406.553h-6.263v12.389h6.264c3.421,0.144,6.311-2.512,6.456-5.934s-2.512-6.311-5.934-6.456
	c-0.174-0.007-0.348-0.007-0.522,0H482.492z"/>
<path class="st0" d="M1076.796,666.03l-14.283,36.278h9.69l1.554-4.433h14.486l1.552,4.433h9.861l-14.454-36.278H1076.796z
	 M1075.919,691.486l0.051-0.155l5.059-15.366l4.989,15.521H1075.919z"/>
<polygon class="st0" points="644.869,788.5 653.527,788.5 644.869,774.474 "/>
<polygon class="st0" points="644.634,773.641 644.853,773.995 653.807,788.5 668.842,788.5 668.842,761.134 659.819,761.134 
	659.819,785.224 645.086,761.134 635.553,761.134 635.553,788.5 644.634,788.5 "/>
<path class="st0" d="M674.329,785.555c0.006,0.99,0.116,1.977,0.328,2.945h9.448c-0.451-0.917-0.69-1.923-0.7-2.945H674.329z"/>
<polygon class="st0" points="514.567,497.56 514.567,461.282 505.544,461.282 505.544,485.372 490.811,461.282 481.278,461.282 
	481.278,497.56 490.358,497.56 490.358,473.788 490.578,474.142 505.033,497.56 "/>
<polygon class="st0" points="481.58,520.857 481.58,557.135 490.661,557.135 490.661,533.364 490.88,533.718 505.336,557.135 
	514.869,557.135 514.869,520.857 505.846,520.857 505.846,544.948 491.113,520.857 "/>
<polygon class="st0" points="604.74,186.122 604.74,222.4 613.821,222.4 613.821,198.629 614.04,198.982 628.496,222.4 
	638.029,222.4 638.029,186.122 629.006,186.122 629.006,210.212 614.274,186.122 "/>
<rect x="464.183" y="520.857" class="st0" width="9.194" height="36.278"/>
<path class="st0" d="M498.195,435.946l-8-11.461l0.134-0.058c4.771-1.918,7.904-6.537,7.922-11.679
	c0-7.457-6.255-13.081-14.546-13.081h-16.793v36.278h9.081v-10.118h4.548l0.035,0.049l7.1,10.071L498.195,435.946z M482.495,419.178
	h-6.5v-12.861h6.5c3.551-0.077,6.493,2.74,6.57,6.291c0.077,3.551-2.74,6.493-6.291,6.57
	C482.68,419.18,482.588,419.18,482.495,419.178L482.495,419.178z"/>
<polygon class="st0" points="341.974,50.355 337.195,64.877 346.645,64.877 "/>
<rect x="505.022" y="399.668" class="st0" width="9.194" height="36.278"/>
<path class="st0" d="M425.778,349.879c6.395,0.006,11.584-5.175,11.59-11.57s-5.175-11.584-11.57-11.59
	c-6.395-0.005-11.584,5.175-11.59,11.57c0,0.004,0,0.007,0,0.011c-0.138,6.256,4.821,11.44,11.078,11.579
	C425.45,349.882,425.614,349.883,425.778,349.879z"/>
<path class="st0" d="M100.377,19.232h-3.348v-7.3h34.239v7.3h-12.491v29.21h-9.315v-29.21H100.377z M146.524,108.02H135.31
	l-12.995-15.441v15.441h-9.317V71.506h9.317V87l12.995-15.494h11.214l-15.929,18.258L146.524,108.02z M146.524,22.538l-4.888,14.846
	h4.888v6.626h-7.13l-1.554,4.433h-9.947l14.375-36.514h4.255L146.524,22.538z M165.667,76.817h-9.665v-36.75h9.665V76.817z
	 M1051.678,640.651h8.651V616.88l0.219,0.354l14.456,23.417h9.533v-36.278h-9.023v24.09l-14.733-24.09h-9.1v-0.236h9.237
	l0.035,0.056l14.329,23.429v-23.485h9.494v36.75h-9.9l-0.035-0.055l-14.271-23.119v23.174h-8.886L1051.678,640.651z
	 M1051.678,702.308h2.775l12.844-36.278h-8.7l-6.924,22.3v-0.8l6.748-21.741h9.2l-0.055,0.157l-12.947,36.598h-2.941V702.308z
	 M1029.301,584.941h9.428v36.514h-9.429L1029.301,584.941z M971.134,584.016v-0.006c0.1,0,0.193-0.008,0.29-0.008
	c9.432,0,14.262,5.425,14.262,11.632h-9.316c0-3.234-1.783-5.268-5.059-5.268c-0.06,0-0.117,0.01-0.177,0.011V584.016z
	 M971.134,615.616v-0.006c0.213,0.017,0.417,0.052,0.637,0.052c3.105,0,5.347-1.721,5.347-4.278c0-2.79-2.562-3.854-5.984-5.013
	v-7.829c0.351,0.128,0.711,0.254,1.1,0.376c7.13,2.242,14.146,4.537,14.146,12c0,7.093-6.269,11.475-14.895,11.475
	c-0.118,0-0.231-0.01-0.348-0.012L971.134,615.616z M971.134,705.21v-0.006c0.1,0,0.193-0.008,0.29-0.008
	c9.432,0,14.262,5.425,14.262,11.632h-9.316c0-3.234-1.783-5.268-5.059-5.268c-0.06,0-0.117,0.01-0.177,0.011V705.21z
	 M938.234,363.858h24.795v7.017h-15.24v8.058h15.24v6.867h-15.24v7.8h15.24v7.017h-24.79L938.234,363.858z M931.418,425.589
	l14.611,36.679h-10.373l-1.552-4.433h-14.153l-1.554,4.433h-10.2l0.062-0.162l14.405-36.588h8.73L931.418,425.589z M945.554,545.249
	V582h-9.665v-36.75L945.554,545.249z M897.705,400.374h8.651V376.6l0.219,0.354l14.454,23.42h9.533V364.1h-9.023v24.091
	l-14.73-24.091h-9.1v-0.236h9.237l0.035,0.055l14.329,23.429V363.86h9.494v36.75h-9.9l-0.035-0.055l-14.271-23.119v23.174h-8.886
	L897.705,400.374z M897.705,462.031h2.775l12.849-36.278h-8.7l-6.924,22.3v-0.8l6.748-21.741h9.2l-0.055,0.157l-12.955,36.593
	h-2.941L897.705,462.031z M897.705,499.031l13.915,22.54h9.533v-36.277h-9.024v24.091L897.705,485.8v-0.456l14.19,23.2v-23.486
	h9.494v36.75h-9.9l-0.035-0.055l-13.746-22.27L897.705,499.031z M875.329,344.663h9.429v36.514h-9.429V344.663z M878.356,406.319
	h6.543l7.483,23.943l0.048-0.155v12.726h-3.5l-7.275-22.952l-7.274,22.952h-6.959l-12.927-36.514h8.949l7.485,23.943
	L878.356,406.319z M890.829,619.261v-0.775l4.523,14.07h-4.523v-0.236h4.2L890.829,619.261z M883.016,502.375V465.86h9.413v13.195
	l-0.095-0.153v23.473L883.016,502.375z M856.882,464.922c13.093,0,20.883,9.182,20.883,19.2s-7.791,19.2-20.883,19.2
	c-13.149,0-20.938-9.18-20.938-19.2s7.79-19.201,20.94-19.201L856.882,464.922z M839.329,442.834v-36.515h9.429v36.514
	L839.329,442.834z M834.691,344.664h34.238v7.3h-12.492v29.21h-9.315v-29.21h-12.434L834.691,344.664z M817.164,343.739v-0.006
	c0.1,0,0.193-0.008,0.29-0.008c9.432,0,14.262,5.425,14.262,11.632H822.4c0-3.234-1.782-5.268-5.059-5.268
	c-0.06,0-0.117,0.01-0.177,0.011V343.739z M817.164,375.339v-0.006c0.213,0.017,0.417,0.052,0.637,0.052
	c3.105,0,5.347-1.721,5.347-4.278c0-2.79-2.562-3.854-5.984-5.013v-7.829c0.351,0.128,0.711,0.254,1.1,0.376
	c7.13,2.242,14.146,4.537,14.146,12c0,7.093-6.269,11.475-14.894,11.475c-0.118,0-0.231-0.01-0.348-0.012L817.164,375.339z
	 M834.4,406.274v7.348h-12.254v29.21h-4.9v-36.557L834.4,406.274z M817.164,464.933v-0.006c0.1,0,0.193-0.008,0.29-0.008
	c9.432,0,14.262,5.425,14.262,11.632H822.4c0-3.234-1.782-5.268-5.059-5.268c-0.06,0-0.117,0.01-0.177,0.011V464.933z
	 M817.164,496.533v-0.006c0.213,0.017,0.417,0.052,0.637,0.052c3.105,0,5.347-1.721,5.347-4.278c0-2.79-2.562-3.854-5.984-5.013
	v-7.829c0.351,0.128,0.711,0.254,1.1,0.376c7.13,2.242,14.146,4.537,14.146,12c0,7.093-6.269,11.475-14.894,11.475
	c-0.118,0-0.231-0.01-0.348-0.012L817.164,496.533z M812.169,318.465v0.256c-3.111-1.175-4.51-2.568-4.51-4.5
	c0-2.459,2.225-3.657,4.51-3.793v0.242c-2.169,0.135-4.275,1.252-4.275,3.552C807.894,316.024,809.229,317.337,812.169,318.465z
	 M798.638,314.741c0,7.01,6.571,9.226,13.531,11.567v0.25l-0.061-0.021c-7.047-2.372-13.705-4.611-13.705-11.8
	c0-7.672,7.354-10.539,13.767-10.688v0.234c-6.305,0.154-13.532,2.963-13.532,10.459V314.741z M812.169,342.4v0.23
	c-4.326-0.1-8.008-1.295-10.638-3.477c-2.832-2.39-4.41-5.947-4.281-9.65v-0.118h9.552v0.118c-0.208,3.16,2.185,5.89,5.345,6.099
	c0.007,0,0.015,0.001,0.022,0.001v0.245c-3.241-0.222-5.72-2.978-5.6-6.225h-9.081C797.543,337.315,803.155,342.183,812.169,342.4z
	 M808.107,373.934V403.1h4.062v0.236h-4.3v-29.165h-12.56v-7.584h16.86v0.236h-16.623v7.112L808.107,373.934z M812.169,439.66v0.256
	c-3.111-1.174-4.51-2.566-4.51-4.5c0-2.462,2.225-3.659,4.51-3.794v0.241c-2.169,0.133-4.275,1.25-4.275,3.552
	c0,1.805,1.335,3.118,4.275,4.246V439.66z M798.638,435.939c0,7.01,6.571,9.226,13.531,11.567v0.251l-0.059-0.019
	c-7.049-2.374-13.708-4.613-13.708-11.8c0-7.669,7.354-10.541,13.767-10.69v0.235c-6.304,0.153-13.531,2.961-13.531,10.457V435.939z
	 M812.169,463.6v0.23c-4.326-0.107-8.008-1.3-10.638-3.477c-2.832-2.39-4.41-5.947-4.281-9.65v-0.118h9.552v0.118
	c-0.209,3.159,2.183,5.89,5.343,6.098c0.008,0.001,0.016,0.001,0.024,0.002v0.245c-3.241-0.222-5.719-2.977-5.6-6.223h-9.081
	C797.543,458.511,803.155,463.378,812.169,463.6z M784.269,123.584h24.79v7.016h-15.243v8.058h15.238v6.862h-15.238v7.8h15.238
	v7.017h-24.79L784.269,123.584z M777.453,185.315l14.613,36.676h-10.383l-1.552-4.433h-14.153l-1.554,4.433h-10.2l0.062-0.162
	l14.405-36.588h8.73L777.453,185.315z M775.785,341.725h-11.1l-0.035-0.049l-7.1-10.071h-4.188v10.119h-9.553v-36.75h17.02
	c3.961-0.1,7.811,1.32,10.757,3.97c5.153,4.861,5.389,12.978,0.528,18.131c-1.246,1.32-2.757,2.361-4.435,3.054L775.785,341.725z
	 M761.597,679.4v36.514h-9.429V679.4H761.597z M758.175,366.589h9.9l0.035,0.055l14.329,23.429v-23.485h9.494v36.75h-9.904
	l-0.035-0.055l-14.265-23.12v23.175h-9.552L758.175,366.589z M781.919,341.726v-36.75h9.665v36.75H781.919z M743.729,160.1h8.651
	v-23.774l0.219,0.354l14.459,23.42h9.533v-36.281h-9.022v24.091l-14.733-24.091h-9.1v-0.236h9.237l0.035,0.055l14.321,23.429
	v-23.484h9.5v36.75h-9.9l-0.035-0.055l-14.275-23.12v23.175h-8.89V160.1z M743.729,221.757h2.775l12.844-36.278h-8.7l-6.924,22.3
	v-0.8l6.748-21.741h9.2l-0.055,0.157l-12.944,36.595h-2.944V221.757z M743.729,258.757l13.915,22.54h9.533v-36.28h-9.023v24.09
	l-14.425-23.587v-0.456l14.19,23.2v-23.483h9.494v36.75h-9.9l-0.035-0.055l-13.749-22.27V258.757z M740.751,366.664l14.613,36.676
	h-10.375l-1.552-4.433h-6.58v-0.236h6.746l1.552,4.433h9.861l-14.453-36.278h-3.706v-0.236h3.872L740.751,366.664z M750.741,426.164
	v36.75h-9.665v-36.75H750.741z M731.598,423.481v6.626h-7.13l-1.554,4.433h-9.947l14.375-36.514h4.255v10.61l-4.888,14.846
	L731.598,423.481z M731.598,494.117h-11.21l-12.994-15.44v15.44h-9.317V457.6h9.317v15.5l12.994-15.5h11.214l-15.929,18.26
	L731.598,494.117z M685.451,405.33h-3.348v-7.3h34.239v7.3h-12.486v29.21h-9.315v-29.21H685.451z M693.997,678.475v-0.006
	c0.1,0,0.193-0.008,0.29-0.008c9.432,0,14.262,5.425,14.262,11.632h-9.316c0-3.234-1.783-5.268-5.059-5.268
	c-0.06,0-0.117,0.01-0.177,0.011V678.475z M722.459,372.927v-14.5h-13.915v14.5h-9.315v-36.514h9.316v14.762h13.914v-14.762h9.258
	v36.514H722.459z M702.911,224.644c13.093,0,20.883,9.182,20.883,19.2s-7.791,19.2-20.883,19.2c-13.15,0-20.938-9.18-20.938-19.2
	S689.761,224.644,702.911,224.644z M685.353,202.557v-36.515h9.429v36.514L685.353,202.557z M729.045,262.1v-36.517h9.411v13.195
	l-0.095-0.154V262.1H729.045z M736.858,378.986v-0.775l4.523,14.07h-4.523v-0.236h4.2L736.858,378.986z M721.358,104.386h9.429
	V140.9h-9.429V104.386z M724.385,166.042h6.544l7.482,23.942l0.048-0.155v12.727h-3.5l-7.28-22.956l-7.274,22.952h-6.959
	l-12.927-36.514h8.949l7.485,23.942L724.385,166.042z M680.718,104.386h34.239v7.3h-12.493V140.9h-9.315v-29.21h-12.433
	L680.718,104.386z M663.191,103.461v-0.006c0.1,0,0.193-0.008,0.29-0.008c9.432,0,14.262,5.425,14.262,11.632h-9.314
	c0-3.234-1.782-5.268-5.059-5.268c-0.06,0-0.117,0.01-0.177,0.011L663.191,103.461z M663.191,135.061v-0.006
	c0.213,0.017,0.417,0.052,0.637,0.052c3.105,0,5.347-1.721,5.347-4.278c0-2.79-2.562-3.854-5.984-5.013v-7.829
	c0.351,0.128,0.711,0.254,1.1,0.376c7.13,2.242,14.146,4.537,14.146,12c0,7.093-6.269,11.475-14.894,11.475
	c-0.118,0-0.231-0.01-0.348-0.012L663.191,135.061z M680.429,166v7.348h-12.256v29.211h-4.9V166H680.429z M663.193,224.66v-0.006
	c0.1,0,0.193-0.008,0.29-0.008c9.432,0,14.262,5.425,14.262,11.633h-9.316c0-3.234-1.782-5.268-5.059-5.268
	c-0.06,0-0.117,0.01-0.177,0.011V224.66z M663.193,256.26v-0.006c0.213,0.017,0.417,0.052,0.637,0.052
	c3.105,0,5.347-1.721,5.347-4.278c0-2.79-2.562-3.854-5.984-5.013v-7.829c0.351,0.128,0.711,0.254,1.1,0.376
	c7.13,2.242,14.146,4.537,14.146,12c0,7.093-6.269,11.475-14.894,11.475c-0.118,0-0.231-0.01-0.348-0.012L663.193,256.26z
	 M673.388,335.473c11.1,0,17.982,6.73,19.01,15.128h-9.153c-0.813-4.278-4.171-7.512-9.749-7.512
	c-7.259,0-11.373,5.529-11.373,11.581c-0.217,6.176,4.614,11.359,10.79,11.576c0.231,0.008,0.461,0.009,0.692,0.003
	c5.091,0,8.448-2.818,9.531-6.415h9.316c-1.461,7.72-8.342,14.031-18.956,14.031c-12.674,0-20.311-8.972-20.311-19.2
	c-0.004-10.009,7.253-19.191,20.198-19.191L673.388,335.473z M634.997,579.752v24.091l-14.425-23.587V579.8l14.19,23.2v-23.484
	h9.494v36.75h-9.9l-0.035-0.055l-13.746-22.27v-0.451l13.915,22.54h9.533v-36.278H634.997z M620.572,556.726v-0.236h2.775
	l12.844-36.278h-8.7l-6.924,22.3v-0.8l6.748-21.741h9.2l-0.055,0.157l-12.955,36.593L620.572,556.726z M629.458,471.894v23.175
	h-8.886v-0.236h8.651v-23.772l0.219,0.354l14.456,23.417h9.531v-36.278h-9.023v24.091l-14.733-24.091h-9.1v-0.236h9.237l0.035,0.055
	l14.328,23.427v-23.482h9.494v36.75h-9.9l-0.035-0.056L629.458,471.894z M658.196,199.384v0.257c-3.111-1.175-4.51-2.566-4.51-4.5
	c0-2.462,2.225-3.659,4.51-3.794v0.242c-2.169,0.133-4.275,1.25-4.275,3.552C653.921,196.943,655.255,198.256,658.196,199.384z
	 M644.665,195.663c0,7.009,6.571,9.226,13.531,11.567v0.251l-0.059-0.019c-7.049-2.374-13.708-4.613-13.708-11.8
	c0-7.669,7.354-10.541,13.767-10.69v0.235C651.892,185.358,644.665,188.167,644.665,195.663L644.665,195.663z M652.829,210.308
	v0.118c-0.209,3.159,2.182,5.889,5.341,6.098c0.009,0.001,0.018,0.001,0.026,0.002v0.245c-3.241-0.222-5.719-2.977-5.6-6.223h-9.081
	c0.057,7.69,5.669,12.558,14.683,12.779v0.23c-4.326-0.107-8.008-1.3-10.638-3.477c-2.832-2.39-4.41-5.947-4.281-9.65v-0.118
	L652.829,210.308z M658.196,78.189v0.256c-3.111-1.175-4.51-2.568-4.51-4.5c0-2.459,2.225-3.657,4.51-3.793v0.242
	c-2.169,0.135-4.275,1.252-4.275,3.552c0,1.801,1.334,3.114,4.275,4.242V78.189z M658.196,63.778v0.234
	c-6.3,0.149-13.531,2.957-13.531,10.453c0,7.01,6.571,9.226,13.531,11.567v0.25l-0.061-0.021c-7.047-2.371-13.705-4.611-13.705-11.8
	c-0.001-7.668,7.354-10.535,13.766-10.684V63.778z M643.277,89.109h9.552v0.118c-0.208,3.161,2.186,5.891,5.347,6.099
	c0.007,0,0.014,0.001,0.02,0.001v0.245c-3.241-0.222-5.72-2.978-5.6-6.225h-9.081c0.057,7.693,5.669,12.56,14.683,12.779v0.23
	c-4.326-0.1-8.008-1.294-10.638-3.477c-2.832-2.39-4.41-5.947-4.281-9.65L643.277,89.109z M641.337,126.309h16.858v0.236h-16.621
	v7.112h12.555v29.166h4.062v0.236h-4.3v-29.165h-12.56L641.337,126.309z M638.264,222.634h-9.9l-0.035-0.055l-14.271-23.119v23.174
	h-9.552v-36.75h9.9l0.035,0.055l14.329,23.429v-23.482h9.494V222.634z M613.697,713.718v-0.775l4.523,14.071h-4.523v-0.236h4.2
	L613.697,713.718z M605.885,596.832v-36.514h9.411v13.195l-0.095-0.154v23.473H605.885z M611.793,537.291l-7.275-22.953
	l-7.274,22.953h-6.959l-12.927-36.514h8.949l7.485,23.943l7.43-23.943h6.543l7.483,23.943l0.048-0.155v12.727L611.793,537.291z
	 M535.036,412.923v0.256c-3.111-1.175-4.51-2.568-4.51-4.5c0-2.46,2.225-3.657,4.51-3.794v0.242
	c-2.169,0.135-4.275,1.252-4.275,3.552C530.761,410.482,532.095,411.8,535.036,412.923z M521.505,409.2
	c0,7.01,6.571,9.226,13.531,11.567v0.25l-0.061-0.021c-7.047-2.371-13.705-4.611-13.705-11.8c0-7.672,7.354-10.539,13.767-10.688
	v0.235C528.729,398.9,521.505,401.7,521.505,409.2z M535.036,436.859v0.23c-4.326-0.1-8.008-1.294-10.638-3.477
	c-2.832-2.39-4.41-5.947-4.281-9.65v-0.118h9.552v0.118c-0.208,3.16,2.185,5.89,5.345,6.099c0.008,0,0.015,0.001,0.022,0.001v0.245
	c-3.241-0.222-5.72-2.978-5.6-6.225h-9.081C520.41,431.773,526.022,436.641,535.036,436.859L535.036,436.859z M504.55,316.449
	l-1.552-4.433h-14.153l-1.554,4.433h-10.2l0.062-0.162l14.402-36.587h8.73l0.03,0.074l14.614,36.675H504.55z M514.45,399.432v36.75
	h-9.665v-36.75H514.45z M507.129,254.791v-36.75h24.79v7.017h-15.236v8.058h15.238v6.862h-15.238v7.8h15.238v7.017L507.129,254.791z
	 M531.481,165.051h-3.348v-7.3h34.239v7.3h-12.489v29.21h-9.315v-29.21H531.481z M577.629,183.2v6.626h-7.13l-1.554,4.433h-9.946
	l14.375-36.514h4.255v10.609l-4.887,14.846H577.629z M540.029,460.555v-7.829c0.351,0.128,0.711,0.254,1.1,0.376
	c7.13,2.242,14.146,4.537,14.146,12c0,7.093-6.269,11.475-14.894,11.475c-0.118,0-0.231-0.01-0.348-0.012v-6.77
	c0.213,0.017,0.417,0.052,0.637,0.052c3.105,0,5.347-1.721,5.347-4.278C546.012,462.777,543.45,461.713,540.029,460.555z
	 M545.265,449.815c0-3.234-1.782-5.268-5.059-5.268c-0.06,0-0.117,0.01-0.177,0.011v-6.368c0.1,0,0.193-0.008,0.29-0.008
	c9.432,0,14.262,5.425,14.262,11.633H545.265z M540.319,559.379c9.432,0,14.262,5.425,14.262,11.632h-9.316
	c0-3.234-1.782-5.268-5.059-5.268c-0.06,0-0.117,0.01-0.177,0.011v-6.367C540.129,559.386,540.221,559.379,540.319,559.379z
	 M540.029,591v-0.006c0.213,0.017,0.417,0.052,0.637,0.052c3.105,0,5.347-1.721,5.347-4.278c0-2.79-2.562-3.854-5.984-5.013v-7.829
	c0.351,0.128,0.711,0.254,1.1,0.376c7.13,2.242,14.146,4.537,14.146,12c0,7.093-6.269,11.475-14.894,11.475
	c-0.118,0-0.231-0.01-0.348-0.012L540.029,591z M548.103,508.086h-3.089v29.21h-4.9v-36.563h17.147v7.348L548.103,508.086z
	 M553.421,238.4v15.441h-9.317v-36.516h9.317v15.494l12.994-15.494h11.214L561.7,235.583l15.929,18.256h-11.214L553.421,238.4z
	 M557.555,439.123h34.239v7.3h-12.49v29.211h-9.315v-29.209h-12.434V439.123z M587.107,222.637v-36.75h9.665v36.75H587.107z
	 M571.622,500.778v36.514h-9.429v-36.514H571.622z M579.75,559.378c13.093,0,20.883,9.182,20.883,19.2s-7.791,19.2-20.883,19.2
	c-13.149,0-20.938-9.18-20.938-19.2s7.789-19.199,20.939-19.199L579.75,559.378z M598.194,475.635v-36.513h9.435v36.514
	L598.194,475.635z M637.962,163.06h-9.9l-0.035-0.055l-14.271-23.119v23.175h-9.552V126.31h9.9l0.035,0.055l14.329,23.435v-23.49
	h9.494L637.962,163.06z M627.947,64.7h9.665v36.75h-9.665V64.7z M621.641,78.017c-0.014,5.184-3.142,9.853-7.931,11.838l8.1,11.6
	h-11.1l-0.035-0.049l-7.1-10.071h-4.188v10.119h-9.552V64.7h17.023c3.961-0.1,7.811,1.32,10.757,3.97
	c2.581,2.421,4.039,5.806,4.026,9.344V78.017z M589.76,18.478l13.915,22.54h9.533V4.74h-9.023v24.091L589.76,5.243V4.787l14.19,23.2
	V4.5h9.494v36.75h-9.9l-0.035-0.056l-13.746-22.27L589.76,18.478z M582.885,151.766h4.2l-4.2-13.06v-0.775L587.408,152h-4.523
	V151.766z M582.885,158.392h6.744l1.552,4.433h9.861l-14.453-36.278h-3.706v-0.236h3.867l0.03,0.074l14.613,36.676h-10.377
	l-1.552-4.433h-6.58L582.885,158.392z M545.255,96.136h9.316V110.9h13.915V96.136h9.259v36.514h-9.259v-14.5h-13.915v14.5h-9.316
	V96.136z M519.41,95.2c11.1,0,17.982,6.73,19.01,15.128h-9.153c-0.813-4.278-4.171-7.512-9.749-7.512
	c-7.259,0-11.373,5.529-11.373,11.581c-0.215,6.176,4.617,11.358,10.793,11.573c0.23,0.008,0.461,0.009,0.691,0.003
	c5.091,0,8.448-2.818,9.531-6.415h9.316c-1.461,7.72-8.342,14.031-18.956,14.031c-12.674,0-20.311-8.972-20.311-19.2
	C499.208,104.379,506.465,95.2,519.41,95.2z M466.6,254.555h8.651v-23.771l0.219,0.354l14.459,23.417h9.533v-36.278h-9.023v24.091
	l-14.733-24.091h-9.1v-0.236h9.237l0.035,0.055l14.329,23.429v-23.484h9.494v36.75h-9.9l-0.035-0.055l-14.271-23.119v23.175h-8.886
	L466.6,254.555z M466.6,316.212h2.775l12.844-36.278h-8.7l-6.924,22.3v-0.8l6.748-21.741h9.2l-0.055,0.157l-12.955,36.593h-2.941
	L466.6,316.212z M466.6,353.212l13.915,22.54h9.533v-36.277h-9.019v24.091l-14.425-23.587v-0.456l14.19,23.2v-23.484h9.494v36.75
	h-9.9l-0.035-0.055l-13.746-22.27L466.6,353.212z M444.222,198.844h9.429v36.514h-9.429V198.844z M447.249,260.5h6.543l7.483,23.943
	l0.048-0.155v12.726h-3.5l-7.274-22.952l-7.274,22.952h-6.959L423.385,260.5h8.949l7.485,23.943L447.249,260.5z M459.729,473.442
	v-0.775l4.523,14.07h-4.523V486.5h4.2L459.729,473.442z M451.916,356.556v-36.515h9.411v13.195l-0.095-0.153v23.473H451.916z
	 M425.778,319.1c13.093,0,20.883,9.182,20.883,19.2s-7.791,19.2-20.883,19.2c-13.149,0-20.938-9.18-20.938-19.2
	S412.629,319.1,425.778,319.1z M408.22,297.013V260.5h9.429v36.514L408.22,297.013z M403.582,198.843h34.239v7.3h-12.492v29.21
	h-9.315v-29.21h-12.431L403.582,198.843z M386.055,197.918v-0.006c0.1,0,0.193-0.008,0.29-0.008c9.432,0,14.262,5.425,14.262,11.632
	h-9.316c0-3.234-1.782-5.268-5.059-5.268c-0.06,0-0.117,0.01-0.177,0.011V197.918z M386.055,229.518v-0.006
	c0.213,0.017,0.417,0.052,0.637,0.052c3.105,0,5.347-1.721,5.347-4.278c0-2.79-2.562-3.854-5.984-5.013v-7.829
	c0.351,0.128,0.711,0.254,1.1,0.376c7.13,2.242,14.146,4.537,14.146,12c0,7.093-6.269,11.475-14.894,11.475
	c-0.118,0-0.231-0.01-0.348-0.012L386.055,229.518z M403.291,260.453v7.347H391.04v29.21h-4.9v-36.554L403.291,260.453z
	 M386.055,319.112v-0.006c0.1,0,0.193-0.008,0.29-0.008c9.432,0,14.262,5.425,14.262,11.632h-9.316c0-3.234-1.782-5.268-5.059-5.268
	c-0.06,0-0.117,0.01-0.177,0.011V319.112z M386.055,350.712v-0.006c0.213,0.017,0.417,0.052,0.637,0.052
	c3.105,0,5.347-1.721,5.347-4.278c0-2.79-2.562-3.854-5.984-5.013v-7.829c0.351,0.128,0.711,0.254,1.1,0.376
	c7.13,2.242,14.146,4.537,14.146,12c0,7.093-6.269,11.475-14.894,11.475c-0.118,0-0.231-0.01-0.348-0.012L386.055,350.712z
	 M381.063,158.229v0.234c-6.3,0.149-13.531,2.957-13.531,10.453c0,7.01,6.571,9.226,13.531,11.567v0.25l-0.061-0.021
	c-7.047-2.371-13.705-4.611-13.705-11.8c-0.001-7.661,7.354-10.528,13.766-10.677L381.063,158.229z M381.063,172.64v0.256
	c-3.111-1.175-4.51-2.568-4.51-4.5c0-2.459,2.225-3.657,4.51-3.793v0.242c-2.169,0.135-4.275,1.252-4.275,3.552
	c0,1.803,1.334,3.121,4.275,4.249L381.063,172.64z M366.144,183.561h9.552v0.118c-0.208,3.16,2.185,5.89,5.345,6.099
	c0.007,0,0.015,0.001,0.022,0.001v0.245c-3.242-0.222-5.721-2.979-5.6-6.226h-9.081c0.057,7.693,5.669,12.56,14.683,12.779v0.23
	c-4.326-0.1-8.008-1.295-10.638-3.477c-2.832-2.39-4.41-5.947-4.281-9.65L366.144,183.561z M337.583,39.421h8.73l0.03,0.074
	l14.613,36.676h-10.379l-1.548-4.432h-14.157l-1.554,4.433h-10.2l0.062-0.162L337.583,39.421z M360.483,159.155v36.75h-9.665v-36.75
	H360.483z M312.629,75.936h2.775l12.844-36.278h-8.7l-6.919,22.302v-0.8l6.748-21.741h9.2l-0.055,0.157l-12.954,36.595h-2.939
	V75.936z M312.629,112.936l13.915,22.54h9.533V99.2h-9.023v24.09L312.629,99.7v-0.456l14.19,23.2V98.962h9.494v36.75h-9.9
	l-0.035-0.055l-13.749-22.27V112.936z M278.362,20.223l7.485,23.942l7.43-23.942h6.543l7.483,23.942l0.048-0.155v12.728h-3.5
	l-7.274-22.952l-7.275,22.952h-6.959l-12.93-36.515H278.362z M305.752,233.164v-0.775l4.523,14.071h-4.523v-0.236h4.2
	L305.752,233.164z M297.939,116.278V79.764h9.411v13.195l-0.095-0.154v23.473H297.939z M254.247,20.223h9.429v36.515h-9.429V20.223z
	 M271.805,78.823c13.093,0,20.883,9.182,20.883,19.2s-7.79,19.2-20.883,19.2c-13.15,0-20.938-9.18-20.938-19.2
	s7.788-19.198,20.938-19.198V78.823z M232.172,56.7V20.179h17.147v7.348h-12.252v29.21h-4.9L232.172,56.7z M232.083,78.84v-0.006
	c0.1,0,0.193-0.008,0.29-0.008c9.432,0,14.262,5.425,14.262,11.633h-9.316c0-3.234-1.782-5.268-5.059-5.268
	c-0.06,0-0.117,0.01-0.177,0.011L232.083,78.84z M232.083,110.44v-0.006c0.213,0.017,0.416,0.052,0.637,0.052
	c3.105,0,5.347-1.721,5.347-4.278c0-2.79-2.562-3.854-5.984-5.013v-7.827c0.351,0.128,0.711,0.254,1.1,0.376
	c7.13,2.242,14.146,4.537,14.146,12c0,7.093-6.269,11.475-14.895,11.475c-0.118,0-0.231-0.01-0.348-0.012L232.083,110.44z
	 M227.091,39.152v0.235c-6.3,0.151-13.531,2.96-13.531,10.455c0,7.009,6.571,9.226,13.531,11.567v0.251l-0.062-0.018
	c-7.049-2.374-13.708-4.613-13.708-11.8c0.003-7.668,7.357-10.542,13.769-10.688L227.091,39.152z M227.091,53.563v0.256
	c-3.111-1.175-4.51-2.566-4.51-4.5c0-2.462,2.225-3.659,4.51-3.794v0.242c-2.169,0.133-4.275,1.25-4.275,3.552
	c-0.001,1.805,1.333,3.118,4.274,4.246L227.091,53.563z M207.159,76.817h-9.9l-0.035-0.056l-14.273-23.119v23.175h-9.552v-36.75h9.9
	l0.035,0.055l14.329,23.429V40.067h9.494L207.159,76.817z M212.172,64.606v-0.118h9.551v0.118c-0.209,3.159,2.183,5.89,5.343,6.098
	c0.008,0.001,0.016,0.001,0.024,0.002v0.245c-3.241-0.222-5.719-2.977-5.6-6.223h-9.081c0.057,7.69,5.669,12.558,14.683,12.779v0.23
	c-4.326-0.107-8.008-1.3-10.638-3.477C213.621,71.87,212.042,68.311,212.172,64.606z M222.072,208.852
	c0-10.015,7.257-19.2,20.2-19.2c11.1,0,17.982,6.73,19.01,15.128h-9.153c-0.813-4.278-4.171-7.512-9.749-7.512
	c-7.259,0-11.373,5.529-11.373,11.582c-0.217,6.176,4.614,11.359,10.79,11.576c0.231,0.008,0.461,0.009,0.692,0.003
	c5.091,0,8.448-2.818,9.531-6.415h9.316c-1.461,7.72-8.342,14.031-18.956,14.031c-12.668,0.002-20.305-8.969-20.305-19.193H222.072z
	 M254.346,259.509h-3.348v-7.3h34.239v7.3H272.75v29.21h-9.315V259.51L254.346,259.509z M300.496,348.3h-11.214l-12.994-15.44v15.44
	h-9.317v-36.517h9.317v15.494l12.994-15.494h11.214l-15.929,18.258L300.496,348.3z M300.496,262.818l-4.888,14.846h4.888v6.626
	h-7.13l-1.554,4.433h-9.947l14.375-36.514h4.255L300.496,262.818z M300.612,227.111h-9.259v-14.5h-13.915v14.5h-9.316v-36.517h9.316
	v14.762h13.915v-14.762h9.259V227.111z M319.639,317.097h-9.665v-36.75h9.665V317.097z M313.883,257.522l-1.552-4.433h-6.58v-0.236
	h6.746l1.552,4.433h9.861L309.457,221h-3.706v-0.236h3.867l0.03,0.074l14.613,36.676L313.883,257.522z M322.255,185.789v10.119
	h-9.552v-36.75h17.026c3.961-0.1,7.811,1.32,10.757,3.97c5.153,4.861,5.389,12.978,0.528,18.131
	c-1.246,1.32-2.757,2.361-4.435,3.054l8.1,11.6h-11.1l-0.035-0.049l-7.1-10.071L322.255,185.789z M327.069,220.772h9.9l0.035,0.055
	l14.329,23.429v-23.487h9.496v36.75h-9.9l-0.035-0.055l-14.271-23.119v23.175h-9.554V220.772z M361.129,317.094h-9.9l-0.035-0.055
	l-14.271-23.119v23.175h-9.552v-36.75h9.9l0.035,0.055l14.329,23.429v-23.485h9.494V317.094z M364.202,220.769h16.858V221h-16.62
	v7.112H377v29.166h4.062v0.236h-4.3v-29.162h-12.56L364.202,220.769z M381.06,293.842v0.256c-3.111-1.174-4.51-2.566-4.51-4.5
	c0-2.462,2.225-3.659,4.51-3.793v0.241c-2.169,0.133-4.275,1.25-4.275,3.552c0.003,1.802,1.337,3.116,4.278,4.244L381.06,293.842z
	 M367.529,290.121c0,7.01,6.571,9.226,13.531,11.567v0.251l-0.059-0.019c-7.049-2.374-13.708-4.613-13.708-11.8
	c0-7.669,7.354-10.541,13.767-10.69v0.235C374.759,279.817,367.529,282.625,367.529,290.121z M366.141,304.884v-0.118h9.552v0.118
	c-0.209,3.159,2.182,5.889,5.341,6.098c0.009,0.001,0.018,0.001,0.026,0.002v0.245c-3.241-0.222-5.719-2.977-5.6-6.223h-9.081
	c0.057,7.69,5.669,12.558,14.683,12.778v0.23c-4.326-0.107-8.008-1.3-10.638-3.477c-2.833-2.391-4.411-5.95-4.28-9.654
	L366.141,304.884z M376.041,449.13c0-10.015,7.257-19.2,20.2-19.2c11.1,0,17.982,6.73,19.01,15.128h-9.153
	c-0.813-4.278-4.171-7.512-9.749-7.512c-7.259,0-11.373,5.529-11.373,11.581c-0.217,6.176,4.614,11.359,10.79,11.576
	c0.231,0.008,0.461,0.009,0.692,0.003c5.091,0,8.448-2.818,9.531-6.415h9.316c-1.461,7.72-8.342,14.031-18.956,14.031
	c-12.664,0.003-20.301-8.969-20.301-19.193L376.041,449.13z M408.315,499.787h-3.348v-7.3h34.239v7.3h-12.483V529h-9.315v-29.21
	L408.315,499.787z M454.462,588.574h-11.207l-12.994-15.44v15.44h-9.317V552.06h9.317v15.494l12.994-15.494h11.214l-15.929,18.258
	L454.462,588.574z M454.462,503.092l-4.888,14.846h4.888v6.626h-7.13L445.786,529h-9.947l14.375-36.514h4.255L454.462,503.092z
	 M454.577,467.385h-9.248v-14.5h-13.918v14.5h-9.316v-36.514h9.316v14.763h13.918v-14.763h9.258L454.577,467.385z M473.605,557.371
	h-9.665v-36.75h9.665V557.371z M467.856,497.8l-1.552-4.433h-6.575v-0.236h6.746l1.552,4.433h9.861l-14.459-36.282h-3.7v-0.236
	h3.867l0.03,0.074l14.609,36.68H467.856z M476.228,426.067v10.119h-9.552v-36.75h17.023c3.961-0.1,7.811,1.32,10.757,3.97
	c5.153,4.861,5.389,12.978,0.528,18.131c-1.246,1.32-2.757,2.361-4.435,3.054l8.1,11.6h-11.1l-0.035-0.049l-7.1-10.071
	L476.228,426.067z M481.042,461.05h9.9l0.035,0.055l14.329,23.429v-23.488h9.494V497.8h-9.9l-0.035-0.056l-14.271-23.119V497.8
	h-9.552V461.05z M515.105,557.375h-9.9l-0.035-0.055l-14.274-23.12v23.174h-9.552v-36.75h9.9l0.035,0.055l14.329,23.429v-23.487
	h9.494L515.105,557.375z M518.178,461.05h16.858v0.236h-16.623v7.112h12.56v29.162h4.062v0.236h-4.3v-29.167h-12.56L518.178,461.05z
	 M535.036,534.123v0.256c-3.111-1.174-4.51-2.566-4.51-4.5c0-2.462,2.225-3.659,4.51-3.794v0.242
	c-2.169,0.133-4.275,1.25-4.275,3.552c0,1.799,1.334,3.112,4.275,4.24V534.123z M521.505,530.4c0,7.009,6.571,9.226,13.531,11.567
	v0.251l-0.059-0.019c-7.049-2.374-13.708-4.613-13.708-11.8c0-7.67,7.354-10.541,13.767-10.69v0.235
	C528.729,520.094,521.505,522.9,521.505,530.4z M520.117,545.162v-0.118h9.552v0.118c-0.209,3.159,2.182,5.889,5.341,6.098
	c0.009,0.001,0.018,0.001,0.026,0.002v0.245c-3.241-0.222-5.719-2.977-5.6-6.223h-9.081c0.057,7.69,5.669,12.558,14.683,12.779v0.23
	c-4.326-0.107-8.008-1.3-10.638-3.477c-2.834-2.391-4.413-5.951-4.283-9.656V545.162z M530.017,689.408
	c0-10.015,7.257-19.2,20.2-19.2c11.1,0,17.982,6.73,19.01,15.128h-9.153c-0.813-4.278-4.171-7.512-9.749-7.512
	c-7.259,0-11.373,5.529-11.373,11.581c-0.217,6.176,4.614,11.359,10.79,11.576c0.231,0.008,0.461,0.009,0.692,0.003
	c5.091,0,8.448-2.818,9.531-6.415h9.316c-1.461,7.72-8.342,14.031-18.956,14.031c-12.667,0-20.304-8.97-20.304-19.194
	L530.017,689.408z M580.692,769.276h-9.315v-29.21h-12.429v-7.3h34.239v7.3h-12.491L580.692,769.276z M608.438,743.376
	l-4.888,14.846h4.888v6.626h-7.13l-1.554,4.433h-9.947l14.375-36.514h4.255L608.438,743.376z M608.553,707.669h-9.254v-14.5h-13.916
	v14.5h-9.316v-36.521h9.316v14.762h13.916v-14.762h9.259L608.553,707.669z M621.824,738.079l-1.552-4.433h-6.58V733.4h6.746
	l1.552,4.433h9.861l-14.454-36.278h-3.706v-0.236h3.867l0.03,0.074l14.613,36.676L621.824,738.079z M630.196,666.346v10.119h-9.547
	v-36.75h17.023c3.961-0.1,7.811,1.32,10.757,3.97c5.153,4.861,5.389,12.978,0.528,18.131c-1.246,1.32-2.757,2.361-4.435,3.054
	l8.1,11.6h-11.1l-0.035-0.049l-7.1-10.071L630.196,666.346z M668.77,738.079h-9.9l-0.035-0.055L644.567,714.9v23.175h-9.552v-36.75
	h9.9l0.035,0.055l14.329,23.429v-23.486h9.494L668.77,738.079z M658.759,676.459v-36.75h9.67v36.75H658.759z M658.522,556.725
	l-1.552-4.433h-14.152l-1.554,4.433h-10.2l0.062-0.162l14.403-36.588h8.73l0.03,0.074l14.613,36.676H658.522z M661.103,495.068
	v-36.75h24.79v7.017h-15.238v8.058h15.238v6.862h-15.238v7.8h15.238v7.017L661.103,495.068z M689.009,766.6
	c-2.169,0.133-4.275,1.25-4.275,3.552c0,1.8,1.334,3.114,4.275,4.242v0.256c-3.111-1.175-4.51-2.566-4.51-4.5
	c0-2.462,2.225-3.659,4.51-3.793V766.6z M689.009,760.218c-6.3,0.151-13.531,2.959-13.531,10.455c0,7.01,6.571,9.226,13.531,11.567
	v0.251l-0.059-0.019c-7.049-2.374-13.708-4.613-13.708-11.8c0-7.669,7.354-10.541,13.767-10.69V760.218z M689.009,701.557h-16.623
	v7.112h12.56v29.166h4.062v0.236h-4.3v-29.165h-12.56v-7.584h16.861V701.557z M689.009,670.581c-3.241-0.222-5.72-2.978-5.6-6.225
	h-9.08c0.057,7.693,5.669,12.56,14.683,12.779v0.23c-4.326-0.1-8.008-1.295-10.638-3.477c-2.832-2.39-4.41-5.947-4.281-9.65v-0.118
	h9.552v0.118c-0.208,3.161,2.186,5.891,5.347,6.099c0.007,0,0.014,0.001,0.02,0.001L689.009,670.581z M689.009,645.402
	c-2.169,0.135-4.275,1.252-4.275,3.552c0,1.8,1.334,3.116,4.275,4.244v0.256c-3.111-1.175-4.51-2.568-4.51-4.5
	c0-2.459,2.225-3.657,4.51-3.793V645.402z M689.009,639.021c-6.3,0.149-13.531,2.957-13.531,10.453
	c0,7.01,6.571,9.226,13.531,11.567v0.25l-0.061-0.021c-7.047-2.371-13.705-4.611-13.705-11.8c0-7.672,7.354-10.539,13.767-10.687
	L689.009,639.021z M694.001,710.073v-0.006c0.213,0.017,0.417,0.052,0.637,0.052c3.106,0,5.347-1.721,5.347-4.278
	c0-2.79-2.562-3.854-5.984-5.013V693c0.351,0.128,0.711,0.254,1.1,0.376c7.13,2.242,14.146,4.537,14.146,12
	c0,7.093-6.269,11.475-14.895,11.475c-0.118,0-0.231-0.01-0.348-0.012L694.001,710.073z M711.237,748.355h-12.251v29.21h-4.9V741.01
	h17.147L711.237,748.355z M711.528,679.395h34.239v7.3h-12.491v29.21h-9.315V686.7h-12.432L711.528,679.395z M725.595,777.565
	h-9.429v-36.51h9.429V777.565z M769.269,777.565h-3.5l-7.274-22.952l-7.275,22.952h-6.959l-12.932-36.51h8.949L747.765,765
	l7.43-23.942h6.543L769.22,765l0.048-0.155L769.269,777.565z M768.029,439.738v23.175h-9.552v-36.75h9.9l0.035,0.055l14.329,23.429
	v-23.484h9.494v36.75h-9.9l-0.035-0.055L768.029,439.738z M807.639,735.345h-9.9l-0.035-0.055l-14.275-23.119v23.175h-8.886v-0.236
	h8.651v-23.772l0.219,0.354l14.456,23.417h9.533v-36.278h-9.023v24.091l-14.733-24.091h-9.1V698.6h9.237l0.035,0.055l14.329,23.429
	V698.6h9.494L807.639,735.345z M807.153,594.945c0-10.015,7.257-19.2,20.2-19.2c11.1,0,17.982,6.73,19.01,15.128h-9.153
	c-0.813-4.278-4.171-7.512-9.749-7.512c-7.259,0-11.373,5.529-11.373,11.581c-0.217,6.176,4.614,11.359,10.79,11.576
	c0.231,0.008,0.461,0.009,0.692,0.003c5.091,0,8.448-2.818,9.531-6.415h9.316c-1.461,7.72-8.342,14.031-18.956,14.031
	c-12.67,0.007-20.307-8.965-20.307-19.189L807.153,594.945z M839.866,705.609h-15.237v8.058h15.238v6.862h-15.238v7.8h15.238v7.017
	h-24.79V698.6h24.79L839.866,705.609z M839.427,645.603h-3.348v-7.3h34.239v7.3h-12.489v29.211h-9.315v-29.209L839.427,645.603z
	 M885.574,734.391h-11.213l-12.994-15.44v15.44h-9.318v-36.512h9.317v15.494l12.994-15.494h11.214l-15.929,18.258L885.574,734.391z
	 M885.574,648.909l-4.888,14.846h4.888v6.626h-7.13l-1.554,4.433h-9.947L881.32,638.3h4.255L885.574,648.909z M885.689,613.202
	h-9.26V598.7h-13.913v14.5H853.2v-36.51h9.316v14.763h13.913V576.69h9.259L885.689,613.202z M904.717,703.188h-9.665V666.44h9.665
	V703.188z M898.961,643.613l-1.552-4.433h-6.58v-0.236h6.746l1.552,4.433h9.861L894.536,607.1h-3.707v-0.236h3.867l0.03,0.074
	l14.613,36.676L898.961,643.613z M907.333,571.88V582h-9.552v-36.75h17.023c3.961-0.1,7.811,1.32,10.757,3.97
	c5.153,4.861,5.389,12.978,0.528,18.131c-1.246,1.32-2.757,2.361-4.435,3.054l8.1,11.6h-11.1l-0.035-0.049l-7.1-10.07
	L907.333,571.88z M912.147,606.863h9.9l0.035,0.055l14.329,23.429v-23.482h9.494v36.75h-9.9l-0.035-0.056L921.7,620.44v23.175
	h-9.552L912.147,606.863z M946.21,703.188h-9.9l-0.035-0.055l-14.271-23.119v23.176h-9.552v-36.75h9.9l0.035,0.056l14.329,23.429
	V666.44h9.494V703.188z M966.141,697.318c-3.241-0.222-5.719-2.977-5.6-6.223h-9.082c0.057,7.69,5.669,12.558,14.683,12.779v0.23
	c-4.326-0.107-8.008-1.3-10.638-3.477c-2.832-2.39-4.41-5.947-4.281-9.65v-0.118h9.552v0.118c-0.209,3.159,2.182,5.889,5.341,6.098
	c0.009,0.001,0.018,0.001,0.026,0.002L966.141,697.318z M966.141,672.142c-2.169,0.133-4.275,1.25-4.275,3.552
	c0,1.8,1.334,3.114,4.275,4.242v0.256c-3.111-1.175-4.51-2.566-4.51-4.5c0-2.462,2.225-3.659,4.51-3.794V672.142z M966.141,665.759
	c-6.3,0.151-13.531,2.96-13.531,10.455c0,7.009,6.571,9.226,13.531,11.567v0.251l-0.059-0.019
	c-7.049-2.374-13.708-4.613-13.708-11.8c0-7.67,7.354-10.541,13.767-10.69V665.759z M966.141,607.098h-16.622v7.112h12.56v29.166
	h4.062v0.236h-4.3v-29.164h-12.56v-7.584h16.858L966.141,607.098z M966.141,576.122c-3.241-0.222-5.72-2.978-5.6-6.225h-9.082
	c0.057,7.693,5.669,12.56,14.683,12.779v0.23c-4.326-0.1-8.008-1.294-10.638-3.477c-2.832-2.39-4.41-5.947-4.281-9.65v-0.118h9.552
	v0.118c-0.208,3.161,2.186,5.891,5.347,6.099c0.007,0,0.014,0.001,0.02,0.001L966.141,576.122z M966.141,550.944
	c-2.169,0.135-4.275,1.252-4.275,3.552c0,1.8,1.334,3.117,4.275,4.244V559c-3.111-1.175-4.51-2.568-4.51-4.5
	c0-2.46,2.225-3.657,4.51-3.793V550.944z M966.141,544.563c-6.3,0.149-13.531,2.957-13.531,10.453
	c0,7.009,6.571,9.226,13.531,11.567v0.25l-0.061-0.021c-7.047-2.371-13.705-4.611-13.705-11.8c0-7.672,7.354-10.539,13.767-10.688
	L966.141,544.563z M971.481,743.588c-0.118,0-0.231-0.01-0.348-0.012v-6.77c0.213,0.017,0.417,0.052,0.637,0.052
	c3.105,0,5.347-1.721,5.347-4.278c0-2.79-2.562-3.854-5.984-5.013v-7.829c0.351,0.128,0.711,0.254,1.1,0.376
	c7.13,2.242,14.146,4.537,14.146,12c-0.002,7.095-6.271,11.477-14.897,11.477L971.481,743.588z M988.369,653.898h-12.25v29.21h-4.9
	v-36.556h17.147L988.369,653.898z M988.66,584.938h34.239v7.3h-12.49v29.21h-9.315v-29.21h-12.433L988.66,584.938z M1002.729,646.6
	v36.514h-9.43V646.6H1002.729z M1010.857,743.594c-13.15,0-20.938-9.18-20.938-19.2s7.788-19.2,20.938-19.2
	c13.093,0,20.883,9.182,20.883,19.2s-7.791,19.197-20.884,19.197L1010.857,743.594z M1046.402,719.335l-0.095-0.154v23.473h-9.316
	v-36.517h9.411L1046.402,719.335z M1046.402,683.114h-3.5l-7.273-22.956l-7.275,22.952h-6.959l-12.931-36.51h8.949l7.485,23.942
	l7.431-23.942h6.543l7.483,23.942l0.048-0.155L1046.402,683.114z M1075.362,762.088h-9.9l-0.035-0.056l-13.749-22.272v-0.451
	l13.915,22.54h9.536v-36.278h-9.023v24.091l-14.425-23.587v-0.456l14.19,23.2v-23.484h9.494L1075.362,762.088z M1089.629,702.544
	l-1.552-4.433h-14.154l-1.554,4.433h-10.2l0.062-0.162l14.405-36.588h8.73l0.03,0.074l14.613,36.676H1089.629z M1117,611.153
	h-15.238v8.058H1117v6.862h-15.238v7.8H1117v7.017h-24.79v-36.75H1117V611.153z"/>
<rect x="310.21" y="280.58" class="st0" width="9.194" height="36.278"/>
<path class="st0" d="M334.706,71.5h14.486l1.552,4.433h9.861l-14.454-36.276h-8.407l-14.282,36.279h9.69L334.706,71.5z
	 M336.918,64.955l5.061-15.366l4.989,15.521h-10.1L336.918,64.955z"/>
<path class="st0" d="M328.519,166.276h-6.264v12.389h6.264c3.421,0.144,6.311-2.512,6.456-5.934s-2.512-6.311-5.934-6.456
	C328.867,166.269,328.693,166.269,328.519,166.276L328.519,166.276z"/>
<path class="st0" d="M271.805,109.6c6.395,0.006,11.584-5.175,11.59-11.57c0.006-6.395-5.175-11.584-11.57-11.59
	c-6.395-0.006-11.584,5.175-11.59,11.57c0,0.004,0,0.007,0,0.011c-0.138,6.256,4.821,11.44,11.078,11.579
	C271.477,109.603,271.641,109.604,271.805,109.6z"/>
<rect x="351.049" y="159.391" class="st0" width="9.194" height="36.278"/>
<polygon class="st0" points="173.634,40.303 173.634,76.581 182.715,76.581 182.715,52.81 182.935,53.164 197.39,76.581 
	206.924,76.581 206.924,40.303 197.9,40.303 197.9,64.393 183.168,40.303 "/>
<polygon class="st0" points="197.362,0 194.931,0 197.362,3.976 "/>
<path class="st0" d="M599.388,71.818v12.389h6.264c3.421,0.144,6.311-2.512,6.456-5.933c0.144-3.421-2.512-6.311-5.933-6.456
	c-0.174-0.007-0.348-0.007-0.522,0H599.388z"/>
<rect x="628.182" y="64.933" class="st0" width="9.194" height="36.278"/>
<polygon class="st0" points="604.438,126.547 604.438,162.825 613.519,162.825 613.519,139.053 613.738,139.407 628.194,162.825 
	637.727,162.825 637.727,126.547 628.704,126.547 628.704,150.637 613.971,126.547 "/>
<path class="st0" d="M579.751,590.156c6.395,0.005,11.584-5.175,11.59-11.57c0.006-6.395-5.175-11.584-11.57-11.59
	c-6.396-0.006-11.584,5.174-11.59,11.57c0,0.004,0,0.007,0,0.011c-0.138,6.256,4.821,11.44,11.078,11.579
	C579.423,590.159,579.587,590.159,579.751,590.156z"/>
<polygon class="st0" points="516.447,239.742 531.686,239.742 531.686,233.352 516.447,233.352 516.447,224.822 531.686,224.822 
	531.686,218.277 507.366,218.277 507.366,254.555 531.686,254.555 531.686,248.01 516.447,248.01 "/>
<polygon class="st0" points="360.594,257.283 360.594,221.004 351.571,221.004 351.571,245.095 336.838,221.004 327.305,221.004 
	327.305,257.283 336.385,257.283 336.385,233.511 336.605,233.865 351.061,257.283 "/>
<rect x="587.343" y="186.122" class="st0" width="9.194" height="36.278"/>
<path class="st0" d="M344.222,195.669l-8-11.461l0.134-0.058c4.771-1.918,7.904-6.537,7.922-11.679
	c0-7.456-6.255-13.081-14.546-13.081h-16.793v36.278h9.081V185.55h4.548l0.035,0.049l7.1,10.071L344.222,195.669z M328.519,178.9
	h-6.5v-12.86h6.5c3.551-0.077,6.493,2.74,6.569,6.292s-2.74,6.493-6.292,6.569c-0.092,0.002-0.185,0.002-0.277,0V178.9z"/>
<path class="st0" d="M590.072,64.933v36.278h9.081V91.092h4.548l0.035,0.049l7.1,10.071h10.521l-8-11.461l0.134-0.058
	c4.771-1.918,7.904-6.537,7.922-11.679c0-7.457-6.255-13.081-14.546-13.081L590.072,64.933z M612.212,78.014
	c0.044,3.508-2.765,6.388-6.273,6.432c-0.096,0.001-0.191,0-0.287-0.003h-6.5V71.582h6.5c3.507-0.115,6.443,2.635,6.557,6.142
	C612.212,77.821,612.213,77.917,612.212,78.014z"/>
<polygon class="st0" points="327.607,280.58 327.607,316.858 336.688,316.858 336.688,293.087 336.907,293.441 351.363,316.858 
	360.896,316.858 360.896,280.58 351.873,280.58 351.873,304.67 337.141,280.58 "/>
<polygon class="st0" points="1116.764,634.106 1101.526,634.106 1101.526,625.838 1116.764,625.838 1116.764,619.448 
	1101.526,619.448 1101.526,610.918 1116.764,610.918 1116.764,604.373 1092.445,604.373 1092.445,640.651 1116.764,640.651 "/>
<polygon class="st0" points="839.631,728.564 824.393,728.564 824.393,720.296 839.631,720.296 839.631,713.906 824.393,713.906 
	824.393,705.376 839.631,705.376 839.631,698.831 815.312,698.831 815.312,735.109 839.631,735.109 "/>
<path class="st0" d="M760.829,305.21h-16.784v36.278h9.084v-10.119h4.548l0.035,0.049l7.1,10.071h10.517l-8-11.461l0.134-0.058
	c4.771-1.918,7.904-6.537,7.922-11.679C775.378,310.834,769.124,305.21,760.829,305.21z M759.629,324.72h-6.5v-12.861h6.5
	c3.551-0.077,6.493,2.74,6.57,6.291c0.077,3.551-2.74,6.493-6.291,6.57C759.814,324.722,759.722,324.722,759.629,324.72z"/>
<rect x="895.289" y="666.676" class="st0" width="9.194" height="36.278"/>
<rect x="173.332" class="st0" width="9.081" height="17.006"/>
<polygon class="st0" points="197.088,17.006 206.621,17.006 206.621,0 197.598,0 197.598,4.818 194.652,0 186.59,0 "/>
<polygon class="st0" points="791.7,403.102 791.7,366.823 782.677,366.823 782.677,390.914 767.944,366.823 758.411,366.823 
	758.411,403.102 767.491,403.102 767.491,379.33 767.711,379.684 782.166,403.102 "/>
<polygon class="st0" points="773.08,196.174 768.301,210.696 777.751,210.696 "/>
<path class="st0" d="M759.629,312.095h-6.264v12.389h6.264c3.421,0.144,6.311-2.512,6.456-5.934s-2.512-6.311-5.934-6.456
	C759.977,312.088,759.803,312.088,759.629,312.095z"/>
<rect x="782.155" y="305.21" class="st0" width="9.194" height="36.278"/>
<polygon class="st0" points="792.002,462.677 792.002,426.399 782.979,426.399 782.979,450.489 768.246,426.399 758.713,426.399 
	758.713,462.677 767.794,462.677 767.794,438.906 768.013,439.26 782.469,462.677 "/>
<path class="st0" d="M764.258,221.755l1.554-4.433h14.486l1.552,4.433h9.861l-14.453-36.278h-8.407l-14.283,36.278H764.258z
	 M768.024,210.777l5.061-15.366l4.989,15.521h-10.1L768.024,210.777z"/>
<polygon class="st0" points="912.686,666.676 912.686,702.954 921.767,702.954 921.767,679.183 921.986,679.537 936.442,702.954 
	945.975,702.954 945.975,666.676 936.952,666.676 936.952,690.766 922.219,666.676 "/>
<path class="st0" d="M1010.856,712.814c-6.395-0.004-11.583,5.178-11.587,11.573c-0.004,6.395,5.177,11.583,11.573,11.587
	c6.395,0.004,11.583-5.177,11.587-11.573c0,0,0-0.001,0-0.001c0.16-6.239-4.768-11.426-11.007-11.586
	C1011.233,712.81,1011.045,712.809,1010.856,712.814z"/>
<polygon class="st0" points="353.394,14.278 377.713,14.278 377.713,7.733 362.474,7.733 362.474,0 353.394,0 "/>
<path class="st0" d="M537.368,3.564c0,6.39,5.18,11.57,11.57,11.57s11.57-5.18,11.57-11.57c-0.002-1.208-0.185-2.41-0.542-3.564
	h-22.061C537.551,1.155,537.37,2.356,537.368,3.564z"/>
<path class="st0" d="M929.3,581.765l-8-11.461l0.134-0.058c4.771-1.918,7.904-6.537,7.922-11.679
	c0-7.457-6.255-13.081-14.546-13.081h-16.792v36.278h9.081v-10.118h4.548l0.035,0.049l7.1,10.071L929.3,581.765z M913.598,565h-6.5
	v-12.864h6.5c3.551-0.076,6.492,2.741,6.569,6.292c0.076,3.552-2.741,6.492-6.292,6.569c-0.092,0.002-0.185,0.002-0.277,0V565z"/>
<polygon class="st0" points="945.673,643.379 945.673,607.101 936.65,607.101 936.65,631.191 921.917,607.101 912.383,607.101 
	912.383,643.379 921.464,643.379 921.464,619.607 921.684,619.962 936.139,643.379 "/>
<polygon class="st0" points="345.486,14.278 345.486,0 336.463,0 336.463,2.09 335.184,0 327.139,0 335.952,14.278 "/>
<path class="st0" d="M913.598,552.372h-6.269v12.389h6.264c3.421,0.144,6.312-2.512,6.456-5.933
	c0.144-3.421-2.512-6.312-5.933-6.456c-0.174-0.007-0.349-0.007-0.523,0H913.598z"/>
<polygon class="st0" points="336.227,0 335.464,0 336.227,1.248 "/>
<polygon class="st0" points="927.053,436.451 922.273,450.973 931.724,450.973 "/>
<path class="st0" d="M702.911,255.42c6.395,0.006,11.584-5.175,11.59-11.57c0.006-6.395-5.174-11.584-11.57-11.59
	c-6.395-0.006-11.584,5.175-11.59,11.57c0,0.004,0,0.007,0,0.011c-0.138,6.256,4.821,11.44,11.078,11.579
	C702.583,255.423,702.747,255.424,702.911,255.42z"/>
<rect x="658.995" y="639.945" class="st0" width="9.194" height="36.278"/>
<polygon class="st0" points="670.42,480.019 685.658,480.019 685.658,473.629 670.42,473.629 670.42,465.099 685.658,465.099 
	685.658,458.554 661.339,458.554 661.339,494.832 685.658,494.832 685.658,488.287 670.42,488.287 "/>
<rect x="156.237" y="40.303" class="st0" width="9.194" height="36.278"/>
<path class="st0" d="M645.69,520.211l-14.283,36.279h9.69l1.554-4.433h14.486l1.552,4.433h9.861l-14.454-36.278L645.69,520.211z
	 M644.813,545.667l0.051-0.155l5.061-15.367l4.989,15.521L644.813,545.667z"/>
<polygon class="st0" points="645.14,545.431 654.59,545.431 649.92,530.909 "/>
<polygon class="st0" points="635.25,701.559 635.25,737.837 644.331,737.837 644.331,714.066 644.551,714.419 659.006,737.837 
	668.539,737.837 668.539,701.559 659.517,701.559 659.517,725.649 644.784,701.559 "/>
<polygon class="st0" points="793.58,145.283 808.819,145.283 808.819,138.894 793.58,138.894 793.58,130.364 808.819,130.364 
	808.819,123.819 784.5,123.819 784.5,160.097 808.819,160.097 808.819,153.552 793.58,153.552 "/>
<rect x="936.128" y="545.487" class="st0" width="9.194" height="36.278"/>
<rect x="741.316" y="426.399" class="st0" width="9.194" height="36.278"/>
<path class="st0" d="M856.884,495.7c6.395,0.006,11.584-5.175,11.59-11.57c0.006-6.395-5.174-11.584-11.57-11.59
	c-6.395-0.005-11.584,5.175-11.59,11.57c0,0.004,0,0.007,0,0.011c-0.138,6.256,4.821,11.44,11.078,11.579
	C856.556,495.703,856.72,495.704,856.884,495.7z"/>
<path class="st0" d="M918.229,462.031l1.554-4.433h14.486l1.552,4.433h9.861l-14.453-36.278h-8.407l-14.283,36.278H918.229z
	 M921.995,451.053l5.061-15.366l4.989,15.521h-10.1L921.995,451.053z"/>
<polygon class="st0" points="947.553,385.561 962.792,385.561 962.792,379.171 947.553,379.171 947.553,370.641 962.792,370.641 
	962.792,364.096 938.472,364.096 938.472,400.374 962.792,400.374 962.792,393.829 947.553,393.829 "/>
<path class="st0" d="M636.465,646.83h-6.264v12.389h6.264c3.421,0.144,6.312-2.512,6.456-5.933c0.144-3.421-2.512-6.312-5.933-6.456
	C636.814,646.823,636.639,646.823,636.465,646.83z"/>
<path class="st0" d="M652.167,676.223l-8-11.461l0.134-0.058c4.771-1.918,7.904-6.536,7.922-11.678
	c0-7.457-6.255-13.081-14.546-13.081h-16.792v36.278h9.081V666.1h4.548l0.035,0.049l7.1,10.071L652.167,676.223z M636.467,659.455
	h-6.5v-12.861h6.5c3.551-0.076,6.492,2.741,6.569,6.292c0.076,3.552-2.741,6.492-6.292,6.569
	C636.651,659.457,636.559,659.457,636.467,659.455z"/>
<polygon points="127.893,48.443 137.84,48.443 139.394,44.01 146.524,44.01 146.524,37.384 141.636,37.384 146.524,22.538 
	146.524,11.929 142.268,11.929 "/>
<polygon points="118.777,48.443 118.777,19.232 127.92,19.232 131.268,19.232 131.268,11.929 127.92,11.929 100.377,11.929 
	97.029,11.929 97.029,19.232 100.377,19.232 109.462,19.232 109.462,48.443 "/>
<polygon points="135.31,71.506 122.315,86.999 122.315,71.506 112.998,71.506 112.998,108.02 122.315,108.02 122.315,92.579 
	135.31,108.02 146.524,108.02 130.595,89.764 146.524,71.506 "/>
<path d="M237.318,90.457h9.316c0-6.207-4.83-11.633-14.262-11.633c-0.1,0-0.193,0.007-0.29,0.008V85.2
	c0.06,0,0.117-0.011,0.177-0.011C235.536,85.189,237.318,87.223,237.318,90.457z"/>
<path d="M247.329,105.742c0-7.461-7.017-9.756-14.146-12c-0.385-0.122-0.745-0.249-1.1-0.376v7.834
	c3.422,1.158,5.984,2.223,5.984,5.013c0,2.557-2.242,4.278-5.347,4.278c-0.22,0-0.424-0.035-0.637-0.052v6.77
	c0.117,0,0.23,0.012,0.348,0.012C241.057,117.217,247.329,112.836,247.329,105.742z"/>
<path d="M271.805,117.217c13.093,0,20.883-9.18,20.883-19.2s-7.79-19.2-20.883-19.2c-13.15,0-20.938,9.182-20.938,19.2
	S258.655,117.217,271.805,117.217z M271.805,86.44c6.395-0.006,11.584,5.175,11.59,11.57c0.006,6.395-5.175,11.584-11.57,11.59
	c-6.395,0.006-11.584-5.175-11.59-11.57c0-0.003,0-0.006,0-0.009c-0.139-6.256,4.82-11.441,11.077-11.58
	C271.476,86.438,271.641,86.437,271.805,86.44L271.805,86.44z"/>
<polygon points="307.255,92.805 307.35,92.959 307.35,79.764 297.939,79.764 297.939,116.278 307.255,116.278 "/>
<rect x="254.247" y="20.223" width="9.429" height="36.514"/>
<polygon points="289.298,56.738 296.573,33.785 303.848,56.738 307.35,56.738 307.35,44.011 307.302,44.166 299.819,20.223 
	293.276,20.223 285.846,44.166 278.362,20.223 269.413,20.223 282.34,56.738 "/>
<polygon points="236.904,56.738 237.067,56.738 237.067,27.527 237.649,27.527 240.156,27.527 249.318,27.527 249.318,20.179 
	232.172,20.179 232.172,20.185 232.172,20.223 232.172,27.527 232.172,27.533 232.172,56.699 232.172,56.738 234.444,56.738 "/>
<polygon points="336.463,0 336.227,0 336.227,1.248 335.464,0 335.184,0 336.463,2.09 "/>
<polygon points="312.627,14.278 312.627,14.514 321.513,14.514 321.513,0 321.277,0 321.277,14.278 "/>
<polygon points="335.784,14.458 335.819,14.514 345.721,14.514 345.721,0 345.486,0 345.486,14.278 335.952,14.278 327.139,0 
	326.859,0 "/>
<polygon points="377.948,14.514 377.948,7.497 362.71,7.497 362.71,0 362.474,0 362.474,7.733 377.713,7.733 377.713,14.278 
	353.394,14.278 353.394,0 353.158,0 353.158,14.514 "/>
<polygon points="326.408,135.712 336.31,135.712 336.31,98.962 326.816,98.962 326.816,122.446 312.627,99.245 312.627,99.701 
	327.052,123.288 327.052,99.198 336.075,99.198 336.075,135.476 326.542,135.476 312.627,112.936 312.627,113.387 326.373,135.656 
	"/>
<polygon points="328.523,39.579 328.578,39.421 319.375,39.421 312.627,61.162 312.627,61.96 319.55,39.657 328.246,39.657 
	315.401,75.936 312.627,75.936 312.627,76.171 315.568,76.171 "/>
<path d="M323.115,76.171h10.2l1.554-4.433h14.16l1.552,4.433h10.378L346.342,39.5l-0.03-0.074h-8.73L323.178,76.01L323.115,76.171z
	 M337.744,39.657h8.407l14.453,36.278h-9.861l-1.552-4.435h-14.485l-1.554,4.433h-9.69L337.744,39.657z"/>
<path d="M341.979,49.591l-5.061,15.366l-0.051,0.155h10.1L341.979,49.591z M341.979,50.354l4.671,14.522h-9.45L341.979,50.354z"/>
<polygon points="182.648,17.242 182.648,0 182.413,0 182.413,17.006 173.332,17.006 173.332,0 173.096,0 173.096,17.242 "/>
<polygon points="197.598,4.818 197.598,0 197.362,0 197.362,3.976 194.931,0 194.652,0 "/>
<polygon points="206.621,17.006 197.088,17.006 186.59,0 186.311,0 196.919,17.186 196.954,17.242 206.857,17.242 206.857,0 
	206.621,0 "/>
<path d="M156.002,76.817h9.665v-36.75h-9.665V76.817z M156.237,40.3h9.192v36.281h-9.192V40.3z"/>
<path d="M197.665,63.551l-14.329-23.429l-0.035-0.055h-9.9v36.75h9.552V53.642l14.271,23.119l0.035,0.056h9.9v-36.75h-9.494
	L197.665,63.551z M197.9,40.302h9.023v36.279h-9.533l-14.455-23.417l-0.219-0.354v23.771h-9.082V40.3h9.533L197.9,64.391V40.302z"/>
<polygon points="227.09,17.242 227.09,17.006 223.028,17.006 223.028,0 222.792,0 222.792,17.242 "/>
<path d="M227.09,77.5c-9.014-0.221-14.626-5.088-14.683-12.779h9.081c-0.119,3.246,2.359,6.001,5.6,6.223V70.7
	c-3.16-0.195-5.564-2.915-5.369-6.076c0-0.008,0.001-0.016,0.002-0.024v-0.118h-9.551V64.6c-0.129,3.703,1.449,7.26,4.28,9.65
	c2.63,2.18,6.312,3.37,10.638,3.477L227.09,77.5z"/>
<path d="M227.09,45.771V45.53c-2.286,0.134-4.51,1.332-4.51,3.794c0,1.932,1.4,3.324,4.51,4.5v-0.256
	c-2.941-1.128-4.275-2.441-4.275-4.242C222.815,47.021,224.921,45.9,227.09,45.771z"/>
<path d="M227.029,61.642l0.059,0.019V61.41c-6.96-2.342-13.531-4.558-13.531-11.567c0-7.5,7.227-10.3,13.531-10.455v-0.235
	c-6.412,0.149-13.766,3.02-13.766,10.69C213.324,57.029,219.982,59.269,227.029,61.642z"/>
<polygon points="160.077,17.006 158.525,12.573 151.779,12.573 151.779,12.809 158.359,12.809 159.911,17.242 170.289,17.242 
	163.419,0 163.163,0 169.938,17.006 "/>
<polygon points="151.779,5.947 151.779,6.183 156.302,6.183 154.314,0 154.066,0 155.979,5.947 "/>
<rect x="300.496" y="190.594" width="0.116" height="36.514"/>
<path d="M261.342,214.016h-9.313c-1.083,3.6-4.44,6.415-9.531,6.415c-6.178,0.165-11.32-4.709-11.485-10.887
	c-0.006-0.231-0.005-0.461,0.003-0.692c0-6.052,4.114-11.582,11.373-11.582c5.578,0,8.935,3.234,9.749,7.512h9.153
	c-1.029-8.4-7.907-15.128-19.01-15.128c-12.945,0-20.2,9.182-20.2,19.2c0,10.223,7.637,19.2,20.311,19.2
	C253,228.047,259.881,221.736,261.342,214.016z"/>
<polygon points="291.353,190.594 291.353,205.356 277.438,205.356 277.438,190.594 268.122,190.594 268.122,227.108 
	277.438,227.108 277.438,212.607 291.353,212.607 291.353,227.108 300.496,227.108 300.496,190.594 "/>
<polygon points="281.866,288.72 291.813,288.72 293.366,284.287 300.496,284.287 300.496,277.661 295.609,277.661 300.496,262.815 
	300.496,252.206 296.241,252.206 "/>
<polygon points="272.75,288.72 272.75,259.51 281.893,259.51 285.241,259.51 285.241,252.206 281.893,252.206 254.35,252.206 
	251.002,252.206 251.002,259.51 254.35,259.51 263.435,259.51 263.435,288.72 "/>
<polygon points="289.282,311.783 276.288,327.277 276.288,311.783 266.971,311.783 266.971,348.297 276.288,348.297 
	276.288,332.857 289.282,348.297 300.496,348.297 284.568,330.041 300.496,311.783 "/>
<path d="M391.291,330.734h9.316c0-6.207-4.83-11.632-14.262-11.632c-0.1,0-0.193,0.007-0.29,0.008v6.368
	c0.06,0,0.117-0.011,0.177-0.011C389.509,325.466,391.291,327.5,391.291,330.734z"/>
<path d="M401.298,346.02c0-7.461-7.017-9.756-14.146-12c-0.386-0.122-0.745-0.248-1.1-0.376v7.829
	c3.422,1.158,5.984,2.223,5.984,5.013c0,2.556-2.242,4.278-5.347,4.278c-0.22,0-0.424-0.035-0.637-0.052v6.77
	c0.117,0,0.23,0.012,0.348,0.012C395.029,357.495,401.298,353.113,401.298,346.02z"/>
<path d="M391.291,209.538h9.316c0-6.207-4.83-11.632-14.262-11.632c-0.1,0-0.193,0.007-0.29,0.008v6.367
	c0.06,0,0.117-0.011,0.177-0.011C389.509,204.27,391.291,206.3,391.291,209.538z"/>
<path d="M401.298,224.823c0-7.461-7.017-9.756-14.146-12c-0.386-0.122-0.745-0.248-1.1-0.376v7.829
	c3.422,1.159,5.984,2.223,5.984,5.013c0,2.557-2.242,4.278-5.347,4.278c-0.22,0-0.424-0.035-0.637-0.052v6.77
	c0.117,0,0.23,0.012,0.348,0.012C395.029,236.3,401.298,231.916,401.298,224.823z"/>
<polygon points="416.016,235.359 425.331,235.359 425.331,206.148 437.822,206.148 437.822,198.844 403.583,198.844 
	403.583,206.148 416.016,206.148 "/>
<rect x="444.222" y="198.844" width="9.429" height="36.514"/>
<path d="M425.778,357.495c13.093,0,20.883-9.18,20.883-19.2s-7.791-19.2-20.883-19.2c-13.149,0-20.938,9.182-20.938,19.2
	S412.629,357.495,425.778,357.495z M425.778,326.718c6.395-0.006,11.584,5.175,11.59,11.57s-5.175,11.584-11.57,11.59
	c-6.395,0.005-11.584-5.175-11.59-11.57c0-0.003,0-0.006,0-0.009c-0.139-6.256,4.819-11.441,11.076-11.581
	C425.448,326.715,425.613,326.714,425.778,326.718z"/>
<polygon points="461.228,333.082 461.323,333.236 461.323,320.041 451.912,320.041 451.912,356.555 461.228,356.555 "/>
<rect x="408.22" y="260.5" width="9.429" height="36.514"/>
<polygon points="423.385,260.5 436.312,297.015 443.271,297.015 450.546,274.062 457.82,297.015 461.323,297.015 461.323,284.288 
	461.275,284.443 453.792,260.5 447.249,260.5 439.819,284.443 432.334,260.5 "/>
<polygon points="386.145,260.462 386.145,260.5 386.145,267.804 386.145,267.81 386.145,296.976 386.145,297.015 388.417,297.015 
	390.876,297.015 391.04,297.015 391.04,267.804 391.622,267.804 394.129,267.804 403.291,267.804 403.291,260.456 386.145,260.456 
	"/>
<polygon points="475.486,231.617 489.757,254.736 489.791,254.791 499.694,254.791 499.694,218.041 490.2,218.041 490.2,241.525 
	475.871,218.096 475.837,218.041 466.6,218.041 466.6,218.277 475.703,218.277 490.436,242.368 490.436,218.277 499.459,218.277 
	499.459,254.555 489.925,254.555 475.47,231.138 475.25,230.784 475.25,254.555 466.6,254.555 466.6,254.791 475.486,254.791 "/>
<path d="M531.921,247.774h-15.238v-7.8h15.238v-6.862h-15.238v-8.058h15.238v-7.017h-24.792v36.75h24.79L531.921,247.774z
	 M531.685,254.555h-24.319v-36.278h24.319v6.545h-15.238v8.53h15.238v6.39h-15.238v8.268h15.238V254.555z"/>
<polygon points="480.381,375.989 490.283,375.989 490.283,339.239 480.789,339.239 480.789,362.723 466.6,339.522 466.6,339.978 
	481.025,363.566 481.025,339.475 490.048,339.475 490.048,375.753 480.514,375.753 466.6,353.213 466.6,353.664 480.346,375.934 "/>
<polygon points="482.495,279.856 482.551,279.698 473.348,279.698 466.6,301.44 466.6,302.237 473.523,279.934 482.218,279.934 
	469.374,316.212 466.6,316.212 466.6,316.449 469.54,316.449 "/>
<path d="M500.315,279.772l-0.03-0.074h-8.73l-14.405,36.588l-0.062,0.162h10.2l1.554-4.433h14.153l1.552,4.433h10.382
	L500.315,279.772z M503.164,311.779h-14.485l-1.554,4.433h-9.69l14.283-36.278h8.407l14.453,36.278h-9.861L503.164,311.779z"/>
<path d="M490.89,305.235l-0.051,0.155h10.1l-4.989-15.521L490.89,305.235z M491.167,305.154l4.779-14.522l4.671,14.522H491.167z"/>
<path d="M333.576,195.905h11.1l-8.1-11.6c6.548-2.703,9.664-10.202,6.961-16.75c-0.693-1.678-1.734-3.19-3.054-4.435
	c-2.946-2.65-6.796-4.07-10.757-3.97h-17.022v36.75h9.552v-10.114h4.188l7.1,10.071L333.576,195.905z M326.569,185.55h-4.548v10.119
	h-9.082v-36.278h16.79c8.291,0,14.546,5.624,14.546,13.081c-0.018,5.142-3.151,9.761-7.922,11.679l-0.134,0.058l8,11.461H333.7
	l-7.1-10.071L326.569,185.55z"/>
<path d="M328.519,166.04h-6.5v12.86h6.5c3.551,0.077,6.493-2.74,6.57-6.291c0.077-3.551-2.74-6.493-6.291-6.57
	C328.704,166.037,328.612,166.037,328.519,166.04L328.519,166.04z M328.519,178.665h-6.264v-12.389h6.264
	c3.421-0.144,6.311,2.512,6.456,5.934s-2.512,6.311-5.934,6.456C328.867,178.672,328.693,178.672,328.519,178.665L328.519,178.665z"
	/>
<path d="M360.478,195.905v-36.75h-9.665v36.75H360.478z M351.049,159.391h9.194v36.278h-9.194V159.391z"/>
<path d="M336.621,234.344l14.271,23.119l0.035,0.055h9.9v-36.75h-9.494v23.484l-14.329-23.429l-0.035-0.055h-9.9v36.75h9.552
	L336.621,234.344z M336.385,233.511v23.771h-9.081V221h9.533l14.734,24.1V221h9.023v36.278h-9.533l-14.456-23.417L336.385,233.511z"
	/>
<path d="M309.975,317.094h9.665v-36.75h-9.665V317.094z M310.21,280.58h9.194v36.278h-9.194V280.58z"/>
<path d="M351.638,303.828L337.309,280.4l-0.035-0.055h-9.9v36.75h9.552v-23.176l14.271,23.119l0.035,0.055h9.9v-36.75h-9.494
	V303.828z M351.874,280.579h9.023v36.278h-9.533l-14.456-23.417l-0.219-0.354v23.771h-9.081V280.58h9.533l14.733,24.091
	L351.874,280.579z"/>
<polygon points="376.765,257.519 381.063,257.519 381.063,257.283 377.001,257.283 377.001,228.116 364.44,228.116 364.44,221.004 
	381.063,221.004 381.063,220.769 364.205,220.769 364.205,228.352 376.765,228.352 "/>
<path d="M381.063,317.78c-9.014-0.221-14.626-5.088-14.683-12.778h9.081c-0.119,3.246,2.359,6.001,5.6,6.223v-0.245
	c-3.16-0.195-5.563-2.914-5.369-6.074c0.001-0.009,0.001-0.018,0.002-0.026v-0.118h-9.552v0.118c-0.129,3.703,1.449,7.26,4.281,9.65
	c2.63,2.18,6.312,3.37,10.638,3.477L381.063,317.78z"/>
<path d="M381.063,286.048v-0.241c-2.286,0.134-4.51,1.332-4.51,3.793c0,1.932,1.4,3.324,4.51,4.5v-0.256
	c-2.941-1.128-4.275-2.441-4.275-4.242C376.788,287.3,378.894,286.181,381.063,286.048z"/>
<path d="M381.063,279.431c-6.412,0.149-13.767,3.02-13.767,10.69c0,7.186,6.659,9.425,13.708,11.8l0.059,0.019v-0.251
	c-6.96-2.342-13.531-4.558-13.531-11.567c0-7.5,7.227-10.3,13.531-10.455V279.431z"/>
<path d="M370.429,193.335c2.63,2.182,6.312,3.372,10.638,3.477v-0.23c-9.014-0.218-14.626-5.086-14.683-12.779h9.081
	c-0.121,3.247,2.358,6.004,5.6,6.226v-0.245c-3.161-0.196-5.564-2.917-5.368-6.078c0-0.007,0.001-0.015,0.001-0.022v-0.118h-9.552
	v0.118C366.017,187.388,367.596,190.946,370.429,193.335z"/>
<path d="M381.002,180.719l0.061,0.021v-0.25c-6.96-2.342-13.531-4.557-13.531-11.567c0-7.5,7.227-10.3,13.531-10.453v-0.234
	c-6.412,0.149-13.767,3.016-13.767,10.688C367.296,176.108,373.955,178.348,381.002,180.719z"/>
<path d="M381.063,164.85v-0.242c-2.286,0.136-4.51,1.334-4.51,3.793c0,1.932,1.4,3.326,4.51,4.5v-0.256
	c-2.941-1.128-4.275-2.441-4.275-4.244C376.788,166.1,378.894,164.985,381.063,164.85z"/>
<polygon points="309.619,220.769 305.752,220.769 305.752,221.004 309.457,221.004 323.911,257.283 314.05,257.283 312.498,252.85 
	305.752,252.85 305.752,253.086 312.332,253.086 313.883,257.519 324.262,257.519 309.649,220.843 "/>
<polygon points="305.752,246.46 310.275,246.46 305.752,232.39 305.752,233.164 309.951,246.224 305.752,246.224 "/>
<rect x="454.469" y="430.871" width="0.115" height="36.514"/>
<path d="M415.315,454.293h-9.316c-1.083,3.6-4.441,6.415-9.531,6.415c-6.178,0.165-11.32-4.709-11.485-10.887
	c-0.006-0.231-0.005-0.461,0.003-0.692c0-6.052,4.114-11.581,11.373-11.581c5.578,0,8.935,3.234,9.749,7.512h9.153
	c-1.029-8.4-7.907-15.128-19.01-15.128c-12.945,0-20.2,9.182-20.2,19.2c0,10.223,7.637,19.2,20.311,19.2
	C406.973,468.325,413.853,462.013,415.315,454.293z"/>
<polygon points="445.326,430.871 445.326,445.634 431.411,445.634 431.411,430.871 422.094,430.871 422.094,467.385 
	431.411,467.385 431.411,452.884 445.326,452.884 445.326,467.385 454.469,467.385 454.469,430.871 "/>
<polygon points="435.839,528.997 445.786,528.997 447.339,524.564 454.469,524.564 454.469,517.938 449.581,517.938 
	454.469,503.092 454.469,492.483 450.214,492.483 "/>
<polygon points="426.723,528.997 426.723,499.787 435.866,499.787 439.214,499.787 439.214,492.483 435.866,492.483 
	408.322,492.483 404.975,492.483 404.975,499.787 408.322,499.787 417.408,499.787 417.408,528.997 "/>
<polygon points="443.255,552.06 430.261,567.553 430.261,552.06 420.943,552.06 420.943,588.574 430.261,588.574 430.261,573.134 
	443.255,588.574 454.469,588.574 438.54,570.318 454.469,552.06 "/>
<path d="M540.029,565.755c0.06,0,0.117-0.011,0.177-0.011c3.276,0,5.059,2.034,5.059,5.268h9.316c0-6.207-4.83-11.632-14.262-11.632
	c-0.1,0-0.193,0.007-0.29,0.008V565.755z"/>
<path d="M555.271,586.3c0-7.461-7.017-9.756-14.146-12c-0.386-0.122-0.745-0.248-1.1-0.376v7.829
	c3.422,1.159,5.984,2.223,5.984,5.013c0,2.557-2.242,4.278-5.347,4.278c-0.22,0-0.424-0.035-0.637-0.052v6.77
	c0.117,0,0.23,0.012,0.348,0.012C549.002,597.772,555.271,593.39,555.271,586.3z"/>
<path d="M540.319,438.182c-0.1,0-0.193,0.007-0.29,0.008v6.367c0.06,0,0.117-0.011,0.177-0.011c3.276,0,5.059,2.034,5.059,5.268
	h9.316C554.58,443.607,549.75,438.182,540.319,438.182z"/>
<path d="M540.665,469.845c-0.22,0-0.424-0.035-0.637-0.052v6.77c0.117,0,0.23,0.012,0.348,0.012c8.626,0,14.894-4.382,14.894-11.475
	c0-7.461-7.017-9.756-14.146-12c-0.386-0.122-0.745-0.249-1.1-0.376v7.829c3.422,1.158,5.984,2.222,5.984,5.013
	C546.012,468.124,543.77,469.845,540.665,469.845z"/>
<polygon points="569.988,475.636 579.304,475.636 579.304,446.425 591.794,446.425 591.794,439.122 557.555,439.122 
	557.555,446.425 569.988,446.425 "/>
<rect x="598.195" y="439.122" width="9.429" height="36.514"/>
<path d="M579.751,597.772c13.093,0,20.883-9.18,20.883-19.2s-7.791-19.2-20.883-19.2c-13.149,0-20.938,9.182-20.938,19.2
	S566.601,597.772,579.751,597.772z M579.751,566.995c6.395-0.005,11.584,5.175,11.59,11.57c0.006,6.395-5.175,11.584-11.57,11.59
	c-6.396,0.006-11.584-5.174-11.59-11.57c0-0.003,0-0.006,0-0.009c-0.139-6.256,4.819-11.441,11.076-11.581
	C579.421,566.992,579.586,566.991,579.751,566.995z"/>
<polygon points="615.201,573.359 615.296,573.513 615.296,560.318 605.885,560.318 605.885,596.832 615.201,596.832 "/>
<rect x="562.193" y="500.778" width="9.429" height="36.514"/>
<polygon points="615.296,524.565 615.248,524.72 607.765,500.778 601.222,500.778 593.792,524.72 586.307,500.778 577.358,500.778 
	590.285,537.292 597.244,537.292 604.519,514.339 611.793,537.292 615.296,537.292 "/>
<polygon points="557.264,500.733 540.118,500.733 540.118,500.739 540.118,500.778 540.118,508.081 540.118,508.087 
	540.118,537.253 540.118,537.292 542.389,537.292 544.849,537.292 545.013,537.292 545.013,508.081 545.595,508.081 
	548.102,508.081 557.264,508.081 "/>
<polygon points="643.764,495.068 653.667,495.068 653.667,458.318 644.173,458.318 644.173,481.802 629.844,458.373 
	629.809,458.318 620.572,458.318 620.572,458.554 629.676,458.554 644.408,482.645 644.408,458.554 653.431,458.554 
	653.431,494.832 643.898,494.832 629.442,471.415 629.223,471.061 629.223,494.832 620.572,494.832 620.572,495.068 
	629.459,495.068 629.459,471.894 643.73,495.012 "/>
<path d="M685.894,488.051h-15.239v-7.8h15.238v-6.862h-15.238v-8.058h15.238v-7.017h-24.79v36.75h24.79L685.894,488.051z
	 M685.658,494.832h-24.319v-36.278h24.319v6.546H670.42v8.53h15.238v6.39H670.42v8.269h15.238V494.832z"/>
<polygon points="634.487,616.03 620.572,593.49 620.572,593.941 634.319,616.211 634.353,616.266 644.256,616.266 644.256,579.516 
	634.762,579.516 634.762,603.001 620.572,579.799 620.572,580.255 634.997,603.843 634.997,579.752 644.021,579.752 644.021,616.03 
	"/>
<polygon points="636.524,519.975 627.321,519.975 620.572,541.716 620.572,542.514 627.496,520.211 636.191,520.211 623.347,556.49 
	620.572,556.49 620.572,556.726 623.513,556.726 636.468,520.133 "/>
<path d="M654.258,519.975h-8.729l-14.405,36.588l-0.062,0.162h10.2l1.554-4.433h14.153l1.552,4.433h10.378l-14.613-36.676
	L654.258,519.975z M658.689,556.489l-1.552-4.433h-14.486l-1.554,4.433h-9.69l14.283-36.278h8.407l14.454,36.278H658.689z"/>
<path d="M644.863,545.512l-0.051,0.155h10.1l-4.983-15.521L644.863,545.512z M645.14,545.431l4.779-14.522l4.671,14.522H645.14z"/>
<path d="M487.548,436.182h11.1l-8.1-11.6c6.548-2.703,9.664-10.202,6.961-16.75c-0.693-1.678-1.734-3.19-3.054-4.435
	c-2.946-2.65-6.796-4.07-10.757-3.97h-17.022v36.75h9.553v-10.114h4.188l7.1,10.071L487.548,436.182z M480.541,425.827h-4.548
	v10.119h-9.081v-36.278H483.7c8.291,0,14.546,5.624,14.546,13.081c-0.018,5.142-3.151,9.761-7.922,11.679l-0.134,0.058l8,11.461
	h-10.517l-7.1-10.071L480.541,425.827z"/>
<path d="M482.492,406.317h-6.5v12.861h6.5c3.551,0.077,6.493-2.74,6.57-6.291c0.077-3.551-2.74-6.493-6.291-6.57
	C482.677,406.315,482.585,406.315,482.492,406.317z M482.492,418.942h-6.263v-12.389h6.264c3.421-0.144,6.311,2.512,6.456,5.934
	s-2.512,6.311-5.934,6.456c-0.174,0.007-0.348,0.007-0.522,0L482.492,418.942z"/>
<path d="M514.451,436.182v-36.75h-9.665v36.75H514.451z M505.022,399.668h9.194v36.278h-9.194V399.668z"/>
<path d="M490.594,474.621l14.271,23.119l0.035,0.056h9.9v-36.75h-9.494v23.484l-14.327-23.43l-0.035-0.055h-9.9V497.8h9.552
	L490.594,474.621z M490.359,473.788v23.772h-9.081v-36.278h9.533l14.733,24.091v-24.091h9.023v36.278h-9.538l-14.456-23.417
	L490.359,473.788z"/>
<path d="M463.947,557.371h9.665v-36.75h-9.665V557.371z M464.183,520.857h9.194v36.278h-9.194V520.857z"/>
<path d="M505.611,544.105l-14.329-23.429l-0.035-0.055h-9.9v36.75h9.552V534.2l14.271,23.119l0.035,0.055h9.9v-36.75h-9.494V544.105
	z M505.846,520.856h9.023v36.278h-9.533l-14.456-23.417l-0.219-0.354v23.771h-9.081v-36.277h9.533l14.733,24.091L505.846,520.856z"
	/>
<polygon points="530.738,497.796 535.036,497.796 535.036,497.56 530.974,497.56 530.974,468.393 518.413,468.393 518.413,461.282 
	535.036,461.282 535.036,461.046 518.178,461.046 518.178,468.629 530.738,468.629 "/>
<path d="M535.036,558.057c-9.014-0.221-14.626-5.088-14.683-12.779h9.076c-0.119,3.246,2.359,6.001,5.6,6.223v-0.245
	c-3.16-0.195-5.563-2.914-5.369-6.074c0.001-0.009,0.001-0.018,0.002-0.026v-0.118h-9.552v0.118c-0.129,3.703,1.449,7.26,4.281,9.65
	c2.63,2.18,6.312,3.37,10.638,3.477L535.036,558.057z"/>
<path d="M535.036,526.325v-0.242c-2.286,0.134-4.51,1.332-4.51,3.794c0,1.932,1.4,3.324,4.51,4.5v-0.256
	c-2.941-1.128-4.275-2.441-4.275-4.242C530.761,527.575,532.867,526.458,535.036,526.325z"/>
<path d="M535.036,519.708c-6.412,0.149-13.767,3.02-13.767,10.69c0,7.186,6.659,9.425,13.708,11.8l0.059,0.019v-0.251
	c-6.96-2.342-13.531-4.558-13.531-11.567c0-7.5,7.227-10.3,13.531-10.455V519.708z"/>
<path d="M535.036,430.306v-0.245c-3.161-0.196-5.564-2.917-5.368-6.078c0-0.007,0.001-0.015,0.001-0.022v-0.118h-9.552v0.118
	c-0.129,3.703,1.449,7.26,4.281,9.65c2.63,2.182,6.312,3.372,10.638,3.477v-0.23c-9.014-0.218-14.626-5.086-14.683-12.779h9.076
	C529.307,427.329,531.791,430.087,535.036,430.306z"/>
<path d="M535.036,398.512c-6.412,0.149-13.767,3.016-13.767,10.688c0,7.186,6.659,9.425,13.705,11.8l0.061,0.021v-0.25
	c-6.96-2.342-13.531-4.558-13.531-11.567c0-7.5,7.227-10.3,13.531-10.453L535.036,398.512z"/>
<path d="M535.036,405.127v-0.242c-2.286,0.137-4.51,1.334-4.51,3.794c0,1.932,1.4,3.326,4.51,4.5v-0.256
	c-2.941-1.128-4.275-2.441-4.275-4.244C530.761,406.379,532.867,405.262,535.036,405.127z"/>
<polygon points="463.592,461.046 459.724,461.046 459.724,461.282 463.43,461.282 477.884,497.56 468.022,497.56 466.471,493.127 
	459.724,493.127 459.724,493.363 466.305,493.363 467.856,497.796 478.235,497.796 463.622,461.12 "/>
<polygon points="459.724,486.737 464.247,486.737 459.724,472.667 459.724,473.442 463.924,486.501 459.724,486.501 "/>
<rect x="608.442" y="671.148" width="0.115" height="36.514"/>
<path d="M569.288,694.57h-9.316c-1.083,3.6-4.441,6.415-9.531,6.415c-6.178,0.165-11.32-4.709-11.485-10.887
	c-0.006-0.231-0.005-0.461,0.003-0.692c0-6.052,4.114-11.581,11.373-11.581c5.578,0,8.935,3.234,9.749,7.512h9.148
	c-1.029-8.4-7.907-15.128-19.01-15.128c-12.945,0-20.2,9.182-20.2,19.2c0,10.223,7.637,19.2,20.311,19.2
	C560.946,708.6,567.829,702.291,569.288,694.57z"/>
<polygon points="599.299,671.148 599.299,685.911 585.383,685.911 585.383,671.148 576.067,671.148 576.067,707.662 
	585.383,707.662 585.383,693.161 599.299,693.161 599.299,707.662 608.442,707.662 608.442,671.148 "/>
<polygon points="589.812,769.274 599.758,769.274 601.312,764.842 608.442,764.842 608.442,758.216 603.554,758.216 
	608.442,743.369 608.442,732.76 604.187,732.76 "/>
<polygon points="593.187,740.064 593.187,732.76 589.839,732.76 562.295,732.76 558.948,732.76 558.948,740.064 562.295,740.064 
	571.381,740.064 571.381,769.274 580.696,769.274 580.696,740.064 589.839,740.064 "/>
<path d="M699.237,690.092h9.316c0-6.207-4.83-11.632-14.262-11.632c-0.1,0-0.193,0.007-0.29,0.008v6.368
	c0.06,0,0.117-0.011,0.177-0.011C697.454,684.824,699.237,686.857,699.237,690.092z"/>
<path d="M709.244,705.377c0-7.461-7.017-9.756-14.146-12c-0.386-0.122-0.745-0.248-1.1-0.376v7.829
	c3.422,1.159,5.984,2.223,5.984,5.013c0,2.557-2.242,4.278-5.347,4.278c-0.22,0-0.424-0.035-0.637-0.052v6.77
	c0.117,0,0.23,0.012,0.348,0.012C702.975,716.852,709.244,712.47,709.244,705.377z"/>
<polygon points="723.961,715.913 733.276,715.913 733.276,686.702 745.767,686.702 745.767,679.399 711.528,679.399 
	711.528,686.702 723.961,686.702 "/>
<rect x="752.168" y="679.399" width="9.429" height="36.514"/>
<rect x="716.166" y="741.055" width="9.429" height="36.514"/>
<polygon points="761.738,741.055 755.195,741.055 747.765,764.997 740.28,741.055 731.331,741.055 744.258,777.569 751.217,777.569 
	758.492,754.617 765.766,777.569 769.269,777.569 769.269,764.842 769.22,764.997 "/>
<polygon points="694.09,741.016 694.09,741.055 694.09,748.358 694.09,748.364 694.09,777.53 694.09,777.569 696.362,777.569 
	698.822,777.569 698.986,777.569 698.986,748.358 699.568,748.358 702.075,748.358 711.237,748.358 711.237,741.01 694.09,741.01 
	"/>
<polygon points="798.146,722.08 783.817,698.65 783.782,698.595 774.545,698.595 774.545,698.831 783.648,698.831 798.381,722.922 
	798.381,698.831 807.404,698.831 807.404,735.109 797.871,735.109 783.415,711.692 783.196,711.338 783.196,735.109 
	774.545,735.109 774.545,735.345 783.431,735.345 783.431,712.171 797.702,735.29 797.737,735.345 807.64,735.345 807.64,698.595 
	798.146,698.595 "/>
<path d="M815.077,735.345h24.79v-7.017h-15.238v-7.8h15.238v-6.858h-15.238v-8.058h15.238V698.6h-24.79V735.345z M815.313,698.831
	h24.316v6.545h-15.236v8.53h15.236v6.39h-15.236v8.269h15.236v6.545h-24.317L815.313,698.831z"/>
<polygon points="790.496,760.252 781.293,760.252 774.545,781.994 774.545,782.791 781.469,760.488 790.164,760.488 780.247,788.5 
	780.496,788.5 790.441,760.41 "/>
<polygon points="808.231,760.252 799.501,760.252 788.38,788.5 788.635,788.5 799.663,760.488 808.069,760.488 819.229,788.5 
	819.486,788.5 808.261,760.326 "/>
<path d="M803.897,770.423l-5.061,15.366l-0.051,0.155h10.1L803.897,770.423z M803.897,771.186l4.671,14.522h-9.45L803.897,771.186z"
	/>
<path d="M636.465,646.594h-6.5v12.861h6.5c3.551,0.076,6.492-2.741,6.569-6.292c0.076-3.552-2.741-6.492-6.292-6.569
	C636.649,646.592,636.557,646.592,636.465,646.594z M636.465,659.219h-6.264V646.83h6.264c3.421-0.144,6.312,2.512,6.456,5.933
	c0.144,3.421-2.512,6.312-5.933,6.456C636.814,659.226,636.639,659.226,636.465,659.219z"/>
<path d="M641.521,676.459h11.1l-8.1-11.6c6.548-2.703,9.664-10.202,6.961-16.75c-0.693-1.678-1.734-3.19-3.054-4.435
	c-2.946-2.65-6.796-4.07-10.757-3.97h-17.022v36.75h9.552V666.34h4.188l7.1,10.071L641.521,676.459z M634.514,666.1h-4.548v10.119
	h-9.081v-36.274h16.788c8.291,0,14.546,5.624,14.546,13.081c-0.018,5.142-3.151,9.76-7.922,11.678l-0.134,0.058l8,11.461h-10.517
	l-7.1-10.071L634.514,666.1z"/>
<path d="M668.429,639.709h-9.67v36.75h9.67V639.709z M668.193,676.223h-9.194v-36.278h9.194L668.193,676.223z"/>
<path d="M659.281,724.807l-14.329-23.429l-0.035-0.055h-9.9v36.75h9.552V714.9l14.271,23.119l0.035,0.055h9.9v-36.75h-9.494V724.807
	z M659.517,701.558h9.023v36.278h-9.533l-14.456-23.417l-0.219-0.354v23.771h-9.081v-36.277h9.533l14.733,24.091V701.558z"/>
<polygon points="617.92,760.898 617.92,788.5 618.156,788.5 618.156,761.134 627.349,761.134 627.349,788.5 627.585,788.5 
	627.585,760.898 "/>
<polygon points="659.583,760.898 659.583,784.383 645.255,760.953 645.22,760.898 635.317,760.898 635.317,788.5 635.553,788.5 
	635.553,761.134 645.086,761.134 659.819,785.224 659.819,761.134 668.842,761.134 668.842,788.5 669.077,788.5 669.077,760.898 "/>
<polygon points="644.853,773.995 644.634,773.641 644.634,788.5 644.869,788.5 644.869,774.474 653.527,788.5 653.807,788.5 "/>
<polygon points="672.151,708.906 684.711,708.906 684.711,738.073 689.009,738.073 689.009,737.837 684.946,737.837 
	684.946,708.671 672.386,708.671 672.386,701.559 689.009,701.559 689.009,701.323 672.151,701.323 "/>
<path d="M683.642,785.319h-9.552v0.118c-0.001,1.03,0.108,2.057,0.326,3.063h0.238c-0.212-0.968-0.322-1.955-0.328-2.945h9.081
	c0.01,1.022,0.249,2.028,0.7,2.945h0.241c-0.474-0.951-0.714-2.001-0.7-3.063L683.642,785.319z"/>
<path d="M684.498,770.154c0,1.932,1.4,3.324,4.51,4.5V774.4c-2.941-1.128-4.275-2.441-4.275-4.242c0-2.3,2.106-3.419,4.275-3.552
	v-0.241C686.723,766.495,684.498,767.692,684.498,770.154z"/>
<path d="M675.242,770.675c0,7.186,6.659,9.425,13.708,11.8l0.059,0.019v-0.251c-6.96-2.342-13.531-4.558-13.531-11.567
	c0-7.5,7.227-10.3,13.531-10.455v-0.235C682.596,760.134,675.242,763.006,675.242,770.675z"/>
<path d="M683.642,664.239v-0.118h-9.552v0.118c-0.129,3.703,1.449,7.26,4.281,9.65c2.63,2.182,6.312,3.372,10.638,3.477v-0.23
	c-9.014-0.218-14.626-5.086-14.683-12.779h9.081c-0.12,3.247,2.359,6.003,5.6,6.225v-0.245c-3.161-0.198-5.564-2.92-5.366-6.082
	C683.641,664.25,683.642,664.245,683.642,664.239z"/>
<path d="M675.242,649.477c0,7.186,6.659,9.425,13.705,11.8l0.061,0.021v-0.25c-6.96-2.342-13.531-4.558-13.531-11.567
	c0-7.5,7.227-10.3,13.531-10.453v-0.234C682.596,638.938,675.242,641.805,675.242,649.477z"/>
<path d="M684.498,648.956c0,1.932,1.4,3.326,4.51,4.5V653.2c-2.941-1.128-4.275-2.441-4.275-4.244c0-2.3,2.106-3.417,4.275-3.552
	v-0.242C686.723,645.3,684.498,646.5,684.498,648.956z"/>
<polygon points="617.565,701.323 613.697,701.323 613.697,701.559 617.403,701.559 631.856,737.837 621.995,737.837 
	620.444,733.404 613.697,733.404 613.697,733.64 620.277,733.64 621.829,738.073 632.207,738.073 617.595,701.397 "/>
<polygon points="613.697,727.014 618.22,727.014 613.697,712.944 613.697,713.718 617.897,726.778 613.697,726.778 "/>
<polygon points="412.443,13.562 423.657,13.562 411.823,0 401.029,0 "/>
<rect x="390.131" width="9.317" height="13.562"/>
<path d="M515.2,11.752c0,2.557-2.242,4.278-5.347,4.278c-0.22,0-0.424-0.035-0.637-0.052v6.77c0.117,0,0.23,0.012,0.348,0.012
	c8.626,0,14.895-4.382,14.895-11.475c0-6.68-5.626-9.217-11.92-11.284h-3.323v6.738C512.637,7.9,515.2,8.962,515.2,11.752z"/>
<path d="M548.938,22.76c13.093,0,20.883-9.18,20.883-19.2c-0.002-1.195-0.116-2.387-0.34-3.56h-9.515
	c0.357,1.154,0.54,2.356,0.542,3.564c0.007,6.39-5.167,11.576-11.556,11.583s-11.576-5.167-11.583-11.556c0-0.009,0-0.018,0-0.027
	c0.002-1.208,0.183-2.409,0.537-3.564h-9.564c-0.225,1.175-0.338,2.368-0.34,3.564C528,13.58,535.788,22.76,548.938,22.76z"/>
<rect x="575.072" width="9.316" height="21.82"/>
<polygon points="603.541,41.254 613.443,41.254 613.443,4.504 603.949,4.504 603.949,27.988 589.76,4.787 589.76,5.243 
	604.185,28.831 604.185,4.74 613.208,4.74 613.208,41.018 603.675,41.018 589.76,18.478 589.76,18.929 603.506,41.198 "/>
<rect x="577.629" y="96.136" width="0.115" height="36.514"/>
<path d="M519.519,133.589c10.614,0,17.495-6.311,18.956-14.031h-9.316c-1.083,3.6-4.441,6.415-9.531,6.415
	c-6.178,0.165-11.32-4.709-11.485-10.887c-0.006-0.231-0.005-0.461,0.003-0.692c0-6.052,4.114-11.581,11.373-11.581
	c5.578,0,8.935,3.234,9.749,7.512h9.153c-1.029-8.4-7.907-15.128-19.01-15.128c-12.945,0-20.2,9.182-20.2,19.2
	C499.208,124.618,506.845,133.589,519.519,133.589z"/>
<polygon points="554.571,118.149 568.486,118.149 568.486,132.65 577.629,132.65 577.629,96.136 568.486,96.136 568.486,110.898 
	554.571,110.898 554.571,96.136 545.255,96.136 545.255,132.65 554.571,132.65 "/>
<polygon points="577.629,157.748 573.374,157.748 558.999,194.262 568.946,194.262 570.5,189.829 577.629,189.829 577.629,183.203 
	572.742,183.203 577.629,168.357 "/>
<polygon points="540.568,194.262 549.883,194.262 549.883,165.051 559.026,165.051 562.374,165.051 562.374,157.748 
	559.026,157.748 531.483,157.748 528.135,157.748 528.135,165.051 531.483,165.051 540.568,165.051 "/>
<polygon points="577.629,253.839 561.701,235.583 577.629,217.325 566.415,217.325 553.421,232.818 553.421,217.325 
	544.104,217.325 544.104,253.839 553.421,253.839 553.421,238.398 566.415,253.839 "/>
<path d="M668.429,236.276h9.316c0-6.207-4.83-11.633-14.262-11.633c-0.1,0-0.193,0.007-0.29,0.008v6.367
	c0.06,0,0.117-0.011,0.177-0.011C666.642,231.008,668.429,233.042,668.429,236.276z"/>
<path d="M678.429,251.561c0-7.461-7.017-9.756-14.146-12c-0.386-0.122-0.745-0.249-1.1-0.376v7.829
	c3.422,1.158,5.984,2.223,5.984,5.013c0,2.556-2.242,4.278-5.347,4.278c-0.22,0-0.424-0.035-0.637-0.052v6.77
	c0.117,0,0.23,0.012,0.348,0.012C672.162,263.036,678.429,258.655,678.429,251.561z"/>
<path d="M668.429,115.079h9.316c0-6.207-4.83-11.632-14.262-11.632c-0.1,0-0.193,0.007-0.29,0.008v6.368
	c0.06,0,0.117-0.011,0.177-0.011C666.642,109.812,668.429,111.845,668.429,115.079z"/>
<path d="M678.429,130.365c0-7.461-7.017-9.756-14.146-12c-0.386-0.122-0.745-0.248-1.1-0.376v7.829
	c3.422,1.158,5.984,2.223,5.984,5.013c0,2.556-2.242,4.278-5.347,4.278c-0.22,0-0.424-0.035-0.637-0.052v6.77
	c0.117,0,0.23,0.012,0.348,0.012C672.162,141.84,678.429,137.458,678.429,130.365z"/>
<polygon points="693.149,140.901 702.464,140.901 702.464,111.69 714.955,111.69 714.955,104.386 680.716,104.386 680.716,111.69 
	693.149,111.69 "/>
<rect x="721.355" y="104.386" width="9.429" height="36.514"/>
<path d="M702.911,263.036c13.093,0,20.883-9.18,20.883-19.2s-7.791-19.2-20.883-19.2c-13.15,0-20.938,9.182-20.938,19.2
	S689.761,263.036,702.911,263.036z M702.911,232.259c6.395-0.006,11.584,5.175,11.59,11.57c0.006,6.395-5.174,11.584-11.57,11.59
	c-6.395,0.006-11.584-5.175-11.59-11.57c0-0.003,0-0.005,0-0.008c-0.14-6.256,4.819-11.441,11.076-11.581
	C702.581,232.257,702.746,232.256,702.911,232.259L702.911,232.259z"/>
<polygon points="738.361,238.624 738.456,238.778 738.456,225.583 729.045,225.583 729.045,262.097 738.361,262.097 "/>
<rect x="685.353" y="166.042" width="9.429" height="36.514"/>
<polygon points="700.518,166.042 713.445,202.557 720.405,202.557 727.679,179.604 734.953,202.557 738.456,202.557 738.456,189.83 
	738.408,189.985 730.925,166.042 724.382,166.042 716.952,189.985 709.468,166.042 "/>
<polygon points="663.278,166.004 663.278,166.042 663.278,173.346 663.278,173.352 663.278,202.518 663.278,202.557 665.55,202.557 
	668.009,202.557 668.173,202.557 668.173,173.346 668.755,173.346 671.262,173.346 680.424,173.346 680.424,165.998 
	663.278,165.998 "/>
<polygon points="752.619,137.158 766.89,160.277 766.924,160.333 776.827,160.333 776.827,123.583 767.333,123.583 767.333,147.067 
	753.004,123.638 752.97,123.583 743.733,123.583 743.733,123.819 752.836,123.819 767.569,147.909 767.569,123.819 776.592,123.819 
	776.592,160.097 767.058,160.097 752.603,136.68 752.383,136.326 752.383,160.097 743.733,160.097 743.733,160.333 752.619,160.333 
	"/>
<path d="M809.054,153.316h-15.238v-7.8h15.238v-6.862h-15.238V130.6h15.238v-7.017h-24.79v36.75h24.79L809.054,153.316z
	 M808.818,160.097H784.5v-36.278h24.319v6.545H793.58v8.53h15.239v6.39H793.58v8.269h15.239L808.818,160.097z"/>
<polygon points="757.514,281.531 767.416,281.531 767.416,244.781 757.922,244.781 757.922,268.265 743.733,245.064 743.733,245.52 
	758.158,269.107 758.158,245.017 767.181,245.017 767.181,281.295 757.648,281.295 743.733,258.755 743.733,259.206 
	757.479,281.475 "/>
<polygon points="759.628,185.398 759.684,185.24 750.481,185.24 743.733,206.981 743.733,207.779 750.656,185.476 759.351,185.476 
	746.507,221.755 743.733,221.755 743.733,221.99 746.673,221.99 "/>
<path d="M754.283,221.829l-0.062,0.162h10.2l1.554-4.433h14.154l1.552,4.433h10.378l-14.613-36.676l-0.03-0.074h-8.73
	L754.283,221.829z M777.256,185.477l14.453,36.278h-9.86l-1.552-4.433h-14.485l-1.554,4.433h-9.69l14.283-36.278H777.256z"/>
<path d="M773.085,195.41l-5.061,15.366l-0.051,0.155h10.1L773.085,195.41z M773.085,196.173l4.671,14.522h-9.45L773.085,196.173z"/>
<path d="M599.153,71.582v12.861h6.5c3.552,0.077,6.493-2.74,6.569-6.292c0.077-3.551-2.74-6.493-6.292-6.569
	c-0.093-0.002-0.185-0.002-0.278,0H599.153z M611.976,78.014c0.04,3.381-2.668,6.155-6.049,6.196c-0.092,0.001-0.183,0-0.275-0.003
	h-6.264V71.818h6.264c3.38-0.111,6.211,2.54,6.321,5.92C611.976,77.83,611.977,77.922,611.976,78.014z"/>
<path d="M589.837,64.7v36.75h9.552V91.328h4.188l7.1,10.071l0.035,0.049h11.1l-8.1-11.6c6.548-2.703,9.664-10.202,6.961-16.75
	c-0.693-1.678-1.734-3.19-3.054-4.435c-2.946-2.65-6.796-4.07-10.757-3.97L589.837,64.7z M621.406,78.017
	c-0.018,5.142-3.151,9.761-7.922,11.679l-0.134,0.058l8,11.461h-10.521l-7.1-10.071l-0.035-0.049h-4.548v10.119h-9.081V64.933
	h16.788c8.298,0,14.553,5.624,14.553,13.081V78.017z"/>
<path d="M637.612,64.7h-9.665v36.75h9.665V64.7z M637.376,101.214h-9.194V64.933h9.194L637.376,101.214z"/>
<path d="M628.468,149.8l-14.329-23.429l-0.035-0.055h-9.9v36.75h9.552v-23.18l14.273,23.119l0.035,0.055h9.9v-36.75h-9.494
	L628.468,149.8z M628.704,126.551h9.025v36.278h-9.533l-14.456-23.417l-0.219-0.354v23.771h-9.081v-36.282h9.533l14.733,24.09
	L628.704,126.551z"/>
<path d="M596.772,185.886h-9.665v36.75h9.665V185.886z M596.536,222.4h-9.194v-36.278h9.194V222.4z"/>
<path d="M628.771,209.37l-14.329-23.429l-0.035-0.055h-9.9v36.75h9.552v-23.175l14.27,23.119l0.035,0.055h9.9v-36.75h-9.494
	L628.771,209.37z M629.007,186.121h9.022V222.4h-9.533l-14.456-23.417l-0.219-0.354V222.4h-9.081v-36.278h9.533l14.733,24.09
	L629.007,186.121z"/>
<polygon points="653.898,163.061 658.196,163.061 658.196,162.825 654.134,162.825 654.134,133.658 641.574,133.658 
	641.574,126.547 658.196,126.547 658.196,126.31 641.338,126.31 641.338,133.894 653.898,133.894 "/>
<path d="M643.277,210.425c-0.129,3.703,1.449,7.26,4.281,9.65c2.63,2.18,6.312,3.37,10.638,3.477v-0.23
	c-9.014-0.221-14.626-5.088-14.683-12.779h9.081c-0.119,3.246,2.359,6.001,5.6,6.223v-0.245c-3.16-0.195-5.563-2.914-5.369-6.074
	c0.001-0.009,0.001-0.018,0.002-0.026v-0.118h-9.552L643.277,210.425z"/>
<path d="M658.196,191.59v-0.242c-2.286,0.134-4.51,1.332-4.51,3.794c0,1.932,1.4,3.324,4.51,4.5v-0.257
	c-2.941-1.127-4.275-2.441-4.275-4.242C653.921,192.84,656.029,191.723,658.196,191.59z"/>
<path d="M658.196,184.973c-6.412,0.149-13.767,3.02-13.767,10.69c0,7.186,6.659,9.425,13.708,11.8l0.059,0.019v-0.251
	c-6.96-2.342-13.531-4.558-13.531-11.567c0-7.5,7.227-10.3,13.531-10.455V184.973z"/>
<path d="M647.558,98.877c2.63,2.182,6.312,3.372,10.638,3.477v-0.23c-9.014-0.218-14.626-5.086-14.683-12.779h9.081
	c-0.12,3.247,2.359,6.003,5.6,6.225v-0.245c-3.161-0.196-5.565-2.918-5.368-6.08c0-0.007,0.001-0.014,0.001-0.02v-0.118h-9.552
	v0.118C643.146,92.929,644.725,96.487,647.558,98.877z"/>
<path d="M658.135,86.261l0.061,0.021v-0.25c-6.96-2.342-13.531-4.558-13.531-11.567c0-7.5,7.227-10.3,13.531-10.453v-0.234
	c-6.412,0.149-13.767,3.016-13.767,10.687C644.429,81.65,651.088,83.89,658.135,86.261z"/>
<path d="M658.196,70.392V70.15c-2.286,0.137-4.51,1.334-4.51,3.793c0,1.932,1.4,3.326,4.51,4.5v-0.256
	c-2.941-1.128-4.275-2.441-4.275-4.244C653.921,71.644,656.029,70.527,658.196,70.392z"/>
<polygon points="591.016,163.061 601.395,163.061 586.782,126.384 586.752,126.31 582.885,126.31 582.885,126.547 586.59,126.547 
	601.044,162.825 591.183,162.825 589.631,158.392 582.885,158.392 582.885,158.628 589.465,158.628 "/>
<polygon points="582.885,137.932 582.885,138.706 587.084,151.766 582.885,151.766 582.885,152.002 587.408,152.002 "/>
<rect x="731.602" y="336.413" width="0.115" height="36.514"/>
<path d="M673.492,373.866c10.614,0,17.495-6.311,18.956-14.031h-9.319c-1.083,3.6-4.441,6.415-9.531,6.415
	c-6.178,0.165-11.32-4.709-11.485-10.887c-0.006-0.231-0.005-0.461,0.003-0.692c0-6.052,4.114-11.581,11.373-11.581
	c5.578,0,8.935,3.234,9.749,7.512h9.153c-1.029-8.4-7.907-15.128-19.01-15.128c-12.945,0-20.2,9.182-20.2,19.2
	C653.181,364.895,660.818,373.866,673.492,373.866z"/>
<polygon points="731.602,336.413 722.459,336.413 722.459,351.176 708.544,351.176 708.544,336.413 699.227,336.413 
	699.227,372.927 708.544,372.927 708.544,358.426 722.459,358.426 722.459,372.927 731.602,372.927 "/>
<polygon points="731.602,398.025 727.347,398.025 712.972,434.539 722.919,434.539 724.473,430.106 731.602,430.106 731.602,423.48 
	726.714,423.48 731.602,408.634 "/>
<polygon points="703.856,434.539 703.856,405.329 712.999,405.329 716.347,405.329 716.347,398.025 712.999,398.025 
	685.456,398.025 682.108,398.025 682.108,405.329 685.456,405.329 694.541,405.329 694.541,434.539 "/>
<polygon points="720.388,457.602 707.394,473.095 707.394,457.602 698.076,457.602 698.076,494.116 707.394,494.116 
	707.394,478.676 720.388,494.116 731.602,494.116 715.673,475.86 731.602,457.602 "/>
<path d="M822.397,476.553h9.316c0-6.207-4.83-11.632-14.262-11.632c-0.1,0-0.193,0.007-0.29,0.008v6.371
	c0.06,0,0.117-0.011,0.177-0.011C820.615,471.285,822.397,473.319,822.397,476.553z"/>
<path d="M832.404,491.838c0-7.461-7.017-9.756-14.146-12c-0.385-0.122-0.745-0.248-1.1-0.376v7.829
	c3.422,1.158,5.984,2.223,5.984,5.013c0,2.556-2.242,4.278-5.347,4.278c-0.22,0-0.424-0.035-0.637-0.052v6.77
	c0.117,0,0.23,0.012,0.348,0.012C826.135,503.314,832.404,498.932,832.404,491.838z"/>
<path d="M822.397,355.357h9.316c0-6.207-4.83-11.632-14.262-11.632c-0.1,0-0.193,0.007-0.29,0.008v6.367
	c0.06,0,0.117-0.011,0.177-0.011C820.615,350.089,822.397,352.122,822.397,355.357z"/>
<path d="M832.404,370.642c0-7.461-7.017-9.756-14.146-12c-0.385-0.122-0.745-0.249-1.1-0.376v7.834
	c3.422,1.159,5.984,2.223,5.984,5.013c0,2.557-2.242,4.278-5.347,4.278c-0.22,0-0.424-0.035-0.637-0.052v6.77
	c0.117,0,0.23,0.012,0.348,0.012C826.135,382.117,832.404,377.735,832.404,370.642z"/>
<polygon points="847.122,381.178 856.437,381.178 856.437,351.967 868.928,351.967 868.928,344.663 834.688,344.663 
	834.688,351.967 847.122,351.967 "/>
<rect x="875.328" y="344.663" width="9.429" height="36.514"/>
<path d="M856.884,503.314c13.093,0,20.883-9.18,20.883-19.2s-7.791-19.2-20.883-19.2c-13.149,0-20.938,9.182-20.938,19.2
	S843.734,503.314,856.884,503.314z M856.884,472.537c6.395-0.006,11.584,5.175,11.59,11.57c0.006,6.395-5.174,11.584-11.57,11.59
	c-6.395,0.005-11.584-5.175-11.59-11.57c0-0.003,0-0.006,0-0.009c-0.139-6.256,4.819-11.441,11.076-11.581
	C856.554,472.534,856.719,472.533,856.884,472.537z"/>
<polygon points="892.334,478.901 892.429,479.055 892.429,465.86 883.018,465.86 883.018,502.374 892.334,502.374 "/>
<rect x="839.326" y="406.319" width="9.429" height="36.514"/>
<polygon points="854.491,406.319 867.418,442.834 874.377,442.834 881.652,419.881 888.926,442.834 892.429,442.834 
	892.429,430.107 892.381,430.262 884.898,406.319 878.355,406.319 870.925,430.262 863.44,406.319 "/>
<polygon points="817.251,406.281 817.251,406.319 817.251,413.623 817.251,413.629 817.251,442.795 817.251,442.834 
	819.522,442.834 821.982,442.834 822.146,442.834 822.146,413.623 822.728,413.623 825.235,413.623 834.397,413.623 
	834.397,406.275 817.251,406.275 "/>
<polygon points="906.592,377.436 920.863,400.555 920.897,400.61 930.8,400.61 930.8,363.86 921.306,363.86 921.306,387.344 
	906.977,363.915 906.942,363.86 897.705,363.86 897.705,364.096 906.809,364.096 921.541,388.187 921.541,364.096 930.564,364.096 
	930.564,400.374 921.031,400.374 906.575,376.957 906.356,376.603 906.356,400.374 897.705,400.374 897.705,400.61 906.592,400.61 
	"/>
<path d="M963.029,393.593h-15.24v-7.8h15.24v-6.862h-15.24v-8.058h15.24v-7.013h-24.79v36.75h24.79V393.593z M962.793,400.374
	h-24.321V364.1h24.319v6.545h-15.238v8.53h15.238v6.39h-15.238v8.268h15.238L962.793,400.374z"/>
<polygon points="911.486,521.808 921.389,521.808 921.389,485.058 911.895,485.058 911.895,508.542 897.705,485.341 
	897.705,485.797 912.131,509.385 912.131,485.294 921.154,485.294 921.154,521.572 911.62,521.572 897.705,499.032 897.705,499.483 
	911.452,521.753 "/>
<polygon points="913.601,425.675 913.657,425.517 904.454,425.517 897.705,447.258 897.705,448.056 904.629,425.753 
	913.324,425.753 900.48,462.031 897.705,462.031 897.705,462.268 900.646,462.268 "/>
<path d="M908.256,462.106l-0.062,0.162h10.2l1.554-4.433h14.153l1.552,4.433h10.376l-14.613-36.676l-0.03-0.074h-8.73
	L908.256,462.106z M931.229,425.753l14.454,36.278h-9.861l-1.552-4.433h-14.486l-1.554,4.433h-9.69l14.283-36.278H931.229z"/>
<path d="M927.057,435.687l-5.061,15.366l-0.051,0.155h10.1L927.057,435.687z M927.057,436.45l4.671,14.522h-9.45L927.057,436.45z"/>
<path d="M775.614,318.291c0.014-3.539-1.443-6.925-4.024-9.347c-2.946-2.65-6.796-4.07-10.757-3.97h-17.024v36.75h9.552V331.6h4.188
	l7.1,10.071l0.035,0.049h11.1l-8.1-11.6C772.47,328.136,775.597,323.472,775.614,318.291z M767.457,329.97l-0.134,0.058l8,11.461
	h-10.517l-7.1-10.071l-0.035-0.049h-4.542v10.119h-9.081V305.21h16.781c8.291,0,14.546,5.624,14.546,13.081
	C775.358,323.432,772.227,328.05,767.457,329.97L767.457,329.97z"/>
<path d="M759.629,311.859h-6.5v12.861h6.5c3.551,0.077,6.493-2.74,6.57-6.291c0.077-3.551-2.74-6.493-6.291-6.57
	C759.814,311.857,759.722,311.857,759.629,311.859z M759.629,324.484h-6.264v-12.389h6.264c3.421-0.144,6.311,2.512,6.456,5.934
	s-2.512,6.311-5.934,6.456C759.977,324.491,759.803,324.491,759.629,324.484z"/>
<path d="M791.584,304.974h-9.665v36.75h9.665V304.974z M791.348,341.488h-9.194V305.21h9.194V341.488z"/>
<path d="M767.729,380.163L782,403.282l0.035,0.055h9.9v-36.75h-9.494v23.484l-14.329-23.429l-0.035-0.055h-9.9v36.75h9.552V380.163z
	 M767.494,379.33v23.77h-9.081v-36.277h9.533l14.733,24.091v-24.091h9.023V403.1h-9.533l-14.456-23.417L767.494,379.33z"/>
<path d="M741.08,462.913h9.665v-36.75h-9.665V462.913z M741.316,426.399h9.194v36.278h-9.194L741.316,426.399z"/>
<path d="M782.335,462.913h9.9v-36.75h-9.494v23.485l-14.329-23.429l-0.035-0.055h-9.9v36.75h9.552v-23.176l14.271,23.119
	L782.335,462.913z M768.013,439.26l-0.219-0.354v23.771h-9.081V426.4h9.533l14.733,24.091V426.4h9.023v36.278h-9.533L768.013,439.26
	z"/>
<polygon points="812.169,366.823 812.169,366.588 795.311,366.588 795.311,374.171 807.871,374.171 807.871,403.338 
	812.169,403.338 812.169,403.102 808.107,403.102 808.107,373.935 795.546,373.935 795.546,366.823 "/>
<path d="M812.169,457.044V456.8c-3.16-0.195-5.564-2.915-5.369-6.076c0.001-0.008,0.001-0.016,0.002-0.024v-0.118h-9.552v0.118
	c-0.129,3.703,1.449,7.26,4.281,9.65c2.63,2.18,6.312,3.37,10.638,3.477v-0.23c-9.014-0.221-14.626-5.088-14.683-12.779h9.081
	C806.446,454.066,808.926,456.823,812.169,457.044z"/>
<path d="M812.169,431.867v-0.241c-2.286,0.134-4.51,1.332-4.51,3.794c0,1.932,1.4,3.324,4.51,4.5v-0.256
	c-2.941-1.128-4.275-2.441-4.275-4.242C807.894,433.117,810,432,812.169,431.867z"/>
<path d="M812.169,425.25c-6.412,0.149-13.767,3.02-13.767,10.69c0,7.186,6.659,9.425,13.708,11.8l0.059,0.019v-0.251
	c-6.96-2.342-13.531-4.557-13.531-11.567c0-7.5,7.227-10.3,13.531-10.455V425.25z"/>
<path d="M812.169,335.848V335.6c-3.161-0.196-5.564-2.917-5.368-6.078c0-0.007,0.001-0.015,0.001-0.022v-0.118h-9.552v0.118
	c-0.129,3.703,1.449,7.26,4.281,9.65c2.63,2.182,6.312,3.372,10.638,3.477v-0.23c-9.014-0.218-14.626-5.086-14.683-12.779h9.081
	C806.444,332.867,808.925,335.627,812.169,335.848z"/>
<path d="M812.169,304.054c-6.412,0.149-13.767,3.016-13.767,10.688c0,7.186,6.659,9.425,13.705,11.8l0.061,0.021v-0.25
	c-6.96-2.342-13.531-4.557-13.531-11.567c0-7.5,7.227-10.3,13.531-10.453L812.169,304.054z"/>
<path d="M812.169,310.669v-0.242c-2.286,0.136-4.51,1.334-4.51,3.793c0,1.932,1.4,3.326,4.51,4.5v-0.256
	c-2.941-1.128-4.275-2.441-4.275-4.244C807.894,311.921,810,310.8,812.169,310.669z"/>
<polygon points="736.857,366.823 740.563,366.823 755.017,403.102 745.155,403.102 743.604,398.669 736.857,398.669 
	736.857,398.905 743.438,398.905 744.989,403.338 755.368,403.338 740.755,366.662 740.725,366.588 736.857,366.588 "/>
<polygon points="736.857,392.279 741.38,392.279 736.857,378.209 736.857,378.983 741.057,392.043 736.857,392.043 "/>
<rect x="885.575" y="576.69" width="0.115" height="36.514"/>
<path d="M846.421,600.112h-9.316c-1.083,3.6-4.441,6.415-9.531,6.415c-6.178,0.165-11.32-4.709-11.485-10.887
	c-0.006-0.231-0.005-0.461,0.003-0.692c0-6.052,4.114-11.581,11.373-11.581c5.578,0,8.935,3.234,9.749,7.512h9.153
	c-1.029-8.4-7.907-15.128-19.01-15.128c-12.945,0-20.2,9.182-20.2,19.2c0,10.223,7.637,19.2,20.311,19.2
	C838.079,614.144,844.959,607.832,846.421,600.112z"/>
<polygon points="876.432,576.69 876.432,591.453 862.516,591.453 862.516,576.69 853.2,576.69 853.2,613.204 862.516,613.204 
	862.516,598.703 876.432,598.703 876.432,613.204 885.575,613.204 885.575,576.69 "/>
<polygon points="866.945,674.816 876.891,674.816 878.445,670.383 885.575,670.383 885.575,663.757 880.687,663.757 
	885.575,648.911 885.575,638.302 881.32,638.302 "/>
<polygon points="857.829,674.816 857.829,645.605 866.972,645.605 870.32,645.605 870.32,638.302 866.972,638.302 839.428,638.302 
	836.081,638.302 836.081,645.605 839.428,645.605 848.514,645.605 848.514,674.816 "/>
<polygon points="874.361,697.879 861.367,713.372 861.367,697.879 852.049,697.879 852.049,734.393 861.367,734.393 
	861.367,718.953 874.361,734.393 885.575,734.393 869.646,716.137 885.575,697.879 "/>
<path d="M976.37,716.83h9.316c0-6.207-4.83-11.632-14.262-11.632c-0.1,0-0.193,0.007-0.29,0.008v6.367
	c0.06,0,0.117-0.011,0.177-0.011C974.588,711.562,976.37,713.6,976.37,716.83z"/>
<path d="M972.229,720.118c-0.386-0.122-0.745-0.249-1.1-0.376v7.829c3.422,1.159,5.984,2.223,5.984,5.013
	c0,2.557-2.242,4.278-5.347,4.278c-0.22,0-0.424-0.035-0.637-0.052v6.77c0.117,0,0.23,0.012,0.348,0.012
	c8.626,0,14.895-4.382,14.895-11.475C986.377,724.655,979.36,722.359,972.229,720.118z"/>
<path d="M976.37,595.634h9.316c0-6.207-4.83-11.632-14.262-11.632c-0.1,0-0.193,0.007-0.29,0.008v6.367
	c0.06,0,0.117-0.011,0.177-0.011C974.588,590.366,976.37,592.4,976.37,595.634z"/>
<path d="M986.377,610.919c0-7.461-7.017-9.756-14.146-12c-0.386-0.122-0.745-0.249-1.1-0.376v7.829
	c3.422,1.158,5.984,2.222,5.984,5.013c0,2.556-2.242,4.278-5.347,4.278c-0.22,0-0.424-0.035-0.637-0.052v6.77
	c0.117,0,0.23,0.012,0.348,0.012C980.108,622.394,986.377,618.012,986.377,610.919z"/>
<polygon points="1001.094,621.455 1010.409,621.455 1010.409,592.244 1022.9,592.244 1022.9,584.941 988.661,584.941 
	988.661,592.244 1001.094,592.244 "/>
<rect x="1029.301" y="584.941" width="9.429" height="36.514"/>
<path d="M1010.856,705.2c-13.15,0-20.938,9.182-20.938,19.2s7.788,19.2,20.938,19.2c13.093,0,20.883-9.18,20.883-19.2
	S1023.949,705.2,1010.856,705.2z M1010.856,735.977c-6.395,0.004-11.583-5.178-11.587-11.573
	c-0.004-6.395,5.177-11.583,11.573-11.587c6.395-0.004,11.583,5.177,11.587,11.573c0,0.003,0,0.007,0,0.01
	c0.153,6.239-4.78,11.421-11.019,11.574c-0.185,0.005-0.369,0.005-0.554,0V735.977z"/>
<polygon points="1036.991,742.651 1046.307,742.651 1046.307,719.178 1046.402,719.332 1046.402,706.137 1036.991,706.137 "/>
<rect x="993.299" y="646.597" width="9.429" height="36.514"/>
<polygon points="1038.871,646.597 1032.328,646.597 1024.898,670.539 1017.413,646.597 1008.464,646.597 1021.391,683.111 
	1028.35,683.111 1035.625,660.158 1042.899,683.111 1046.402,683.111 1046.402,670.384 1046.354,670.539 "/>
<polygon points="971.223,646.558 971.223,646.597 971.223,653.9 971.223,653.906 971.223,683.072 971.223,683.111 973.495,683.111 
	975.955,683.111 976.119,683.111 976.119,653.9 976.701,653.9 979.208,653.9 988.37,653.9 988.37,646.552 971.223,646.552 "/>
<polygon points="1060.564,617.713 1074.835,640.831 1074.87,640.887 1084.773,640.887 1084.773,604.137 1075.279,604.137 
	1075.279,627.621 1060.95,604.192 1060.915,604.137 1051.678,604.137 1051.678,604.373 1060.781,604.373 1075.514,628.463 
	1075.514,604.373 1084.537,604.373 1084.537,640.651 1075.004,640.651 1060.548,617.234 1060.329,616.88 1060.329,640.651 
	1051.678,640.651 1051.678,640.887 1060.564,640.887 "/>
<path d="M1092.21,640.887H1117v-7.017h-15.238v-7.8H1117v-6.862h-15.238v-8.058H1117v-7.017h-24.79V640.887z M1092.445,604.373
	h24.319v6.545h-15.235v8.53h15.238v6.39h-15.238v8.269h15.238v6.545h-24.322V604.373z"/>
<polygon points="1065.868,748.82 1051.678,725.618 1051.678,726.074 1066.103,749.662 1066.103,725.571 1075.126,725.571 
	1075.126,761.849 1065.593,761.849 1051.678,739.309 1051.678,739.76 1065.425,762.03 1065.459,762.085 1075.362,762.085 
	1075.362,725.335 1065.868,725.335 "/>
<polygon points="1067.574,665.952 1067.63,665.794 1058.426,665.794 1051.678,687.535 1051.678,688.333 1058.602,666.03 
	1067.297,666.03 1054.453,702.309 1051.678,702.309 1051.678,702.544 1054.619,702.544 "/>
<path d="M1085.364,665.794h-8.73l-14.405,36.589l-0.062,0.162h10.2l1.554-4.433h14.153l1.552,4.433h10.378l-14.613-36.676
	L1085.364,665.794z M1089.795,702.308l-1.552-4.433h-14.486l-1.554,4.433h-9.69l14.283-36.278h8.407l14.453,36.278H1089.795z"/>
<path d="M1075.969,691.331l-0.051,0.155h10.1l-4.989-15.521L1075.969,691.331z M1076.246,691.25l4.783-14.522l4.671,14.522H1076.246
	z"/>
<path d="M913.598,552.136h-6.5V565h6.5c3.551,0.076,6.492-2.741,6.569-6.292c0.076-3.552-2.741-6.492-6.292-6.569
	c-0.092-0.002-0.185-0.002-0.277,0V552.136z M913.598,564.761h-6.269v-12.389h6.264c3.421-0.144,6.312,2.512,6.456,5.933
	c0.144,3.421-2.512,6.312-5.933,6.456c-0.174,0.007-0.349,0.007-0.523,0H913.598z"/>
<path d="M918.654,582h11.1l-8.1-11.6c6.548-2.703,9.664-10.202,6.961-16.75c-0.693-1.678-1.734-3.19-3.054-4.435
	c-2.946-2.65-6.796-4.07-10.757-3.97h-17.022V582h9.547v-10.118h4.188l7.1,10.07L918.654,582z M911.647,571.645h-4.548v10.119
	h-9.081v-36.277h16.788c8.291,0,14.546,5.624,14.546,13.081c-0.018,5.142-3.151,9.761-7.922,11.679l-0.134,0.058l8,11.461h-10.517
	l-7.1-10.071L911.647,571.645z"/>
<path d="M945.557,582v-36.75h-9.665V582H945.557z M936.129,545.487h9.194v36.278h-9.194V545.487z"/>
<path d="M921.7,620.44l14.271,23.119l0.035,0.056h9.9v-36.75h-9.494v23.485l-14.327-23.43l-0.035-0.055h-9.9v36.75h9.552
	L921.7,620.44z M921.464,619.607v23.771h-9.081V607.1h9.533l14.733,24.091V607.1h9.023v36.278h-9.533l-14.456-23.417
	L921.464,619.607z"/>
<path d="M895.053,703.19h9.665v-36.75h-9.665V703.19z M895.289,666.676h9.194v36.278h-9.194V666.676z"/>
<path d="M936.717,689.924L922.388,666.5l-0.035-0.056h-9.9v36.75h9.552v-23.178l14.271,23.119l0.035,0.055h9.9v-36.75h-9.494
	V689.924z M936.953,666.675h9.023v36.278h-9.533l-14.456-23.417l-0.219-0.354v23.771h-9.081v-36.277h9.533l14.733,24.091V666.675z"
	/>
<polygon points="949.284,614.448 961.844,614.448 961.844,643.615 966.142,643.615 966.142,643.379 962.079,643.379 
	962.079,614.212 949.519,614.212 949.519,607.101 966.142,607.101 966.142,606.865 949.284,606.865 "/>
<path d="M960.775,690.979v-0.118h-9.552v0.118c-0.129,3.703,1.449,7.26,4.281,9.65c2.63,2.18,6.312,3.37,10.638,3.477v-0.23
	c-9.014-0.221-14.626-5.088-14.683-12.779h9.081c-0.119,3.246,2.359,6.001,5.6,6.223v-0.245c-3.16-0.196-5.562-2.916-5.366-6.076
	C960.774,690.993,960.775,690.986,960.775,690.979z"/>
<path d="M961.629,675.7c0,1.932,1.4,3.323,4.51,4.5v-0.256c-2.941-1.128-4.275-2.441-4.275-4.242c0-2.3,2.106-3.42,4.275-3.552
	v-0.25C963.856,672.037,961.629,673.234,961.629,675.7z"/>
<path d="M952.375,676.217c0,7.186,6.659,9.425,13.708,11.8l0.059,0.019v-0.251c-6.96-2.342-13.531-4.558-13.531-11.567
	c0-7.5,7.227-10.3,13.531-10.455v-0.235C959.729,665.676,952.375,668.547,952.375,676.217z"/>
<path d="M960.775,569.781v-0.118h-9.552v0.118c-0.129,3.703,1.449,7.26,4.281,9.65c2.63,2.182,6.312,3.372,10.638,3.477v-0.23
	c-9.014-0.218-14.626-5.086-14.683-12.779h9.081c-0.12,3.247,2.359,6.003,5.6,6.225v-0.245c-3.161-0.198-5.564-2.92-5.366-6.082
	C960.774,569.792,960.775,569.786,960.775,569.781z"/>
<path d="M952.375,555.019c0,7.186,6.659,9.425,13.705,11.8l0.061,0.021v-0.25c-6.96-2.342-13.531-4.558-13.531-11.567
	c0-7.5,7.227-10.3,13.531-10.453v-0.235C959.729,544.48,952.375,547.347,952.375,555.019z"/>
<path d="M961.629,554.5c0,1.932,1.4,3.326,4.51,4.5v-0.256c-2.941-1.128-4.275-2.441-4.275-4.244c0-2.3,2.106-3.417,4.275-3.552
	V550.7C963.856,550.841,961.629,552.039,961.629,554.5z"/>
<polygon points="894.698,606.865 890.83,606.865 890.83,607.101 894.536,607.101 908.989,643.379 899.128,643.379 897.577,638.946 
	890.83,638.946 890.83,639.182 897.411,639.182 898.962,643.615 909.34,643.615 894.728,606.939 "/>
<polygon points="890.83,632.556 895.353,632.556 890.83,618.486 890.83,619.261 895.03,632.32 890.83,632.32 "/>
</svg>
