<svg xmlns="http://www.w3.org/2000/svg" viewBox="0 0 247.9 256.7"><polygon points="220.8 113 240.9 113 240.9 159.7 247.9 159.7 247.9 158.8 247.9 101.2 247.9 100.3 220.8 100.3 220.8 113"/><path d="M239.8,235.3v-.5H223.9v.5c0,12.6,9.4,20.9,24.1,21.3V244.8C242.9,244.2,239.8,240.6,239.8,235.3Z"/><path d="M225.7,211.7c0,11.7,10.8,15.3,22.2,19.2h0V217.3c-4.5-1.8-6.4-3.7-6.4-6.4s3.1-5.2,6.4-5.4V194.3C237.6,194.6,225.7,199.3,225.7,211.7Z"/><path d="M64,39.6V39H48.2v.3c-1.8,6.1-7.5,9.9-14.9,9.9-10.4,0-18-7.6-18-18.1s6.1-18.1,17.8-18.1c8.1,0,13.8,4.4,15.2,11.7v.4H64v-.5C62.1,9.9,49.6,0,32.9,0,23,0,14.6,3.3,8.6,9.5A31,31,0,0,0,0,31.2C0,46.8,11.4,62.5,33.1,62.5,49,62.5,61.4,53.3,64,39.6Z"/><polygon points="89.8 37.7 111.2 37.7 111.2 61 127 61 127 1.5 111.2 1.5 111.2 25.2 89.8 25.2 89.8 1.5 73.9 1.5 73.9 61 89.8 61 89.8 37.7"/><path d="M171.7,61h18.5L177.1,42.2a20.9,20.9,0,0,0,12.6-19.1c0-12.3-10.3-21.6-24-21.6H138V61H154V44.8h6.3ZM154,13.5h9.8a9.6,9.6,0,1,1,0,19.3H154Z"/><rect x="199.2" y="1.5" width="16.1" height="59.47"/><path d="M113.6,100.3,90.1,159.7h17l2.5-7.1H132l2.5,7.1h17.3L128,100.3Zm0,40.8,7.3-22.1L128,141Z"/><polygon points="174.2 123.3 196.8 159.7 213.1 159.7 213.1 100.3 197.3 100.3 197.3 137.2 174.7 100.3 158.3 100.3 158.3 159.7 174.2 159.7 174.2 123.3"/><polygon points="76.7 159.7 76.7 112.9 96.7 112.9 96.7 100.3 40.8 100.3 40.8 112.9 60.8 112.9 60.8 159.7 76.7 159.7"/><polygon points="108.1 195.7 87.9 219.7 87.9 195.7 72 195.7 72 255.2 87.9 255.2 87.9 231.3 108.1 255.2 127.4 255.2 101.4 225.5 127.4 195.7 108.1 195.7"/><rect x="133.7" y="195.7" width="16.1" height="59.47"/><polygon points="200.6 232.7 177.9 195.7 161.6 195.7 161.6 255.2 177.5 255.2 177.5 218.8 200 255.2 216.4 255.2 216.4 195.7 200.6 195.7 200.6 232.7"/><path d="M239.8,41.1v-.5H223.9v.5c0,12.6,9.4,20.9,24.1,21.3V50.6C242.9,49.9,239.8,46.4,239.8,41.1Z"/><path d="M225.7,17.4c0,11.7,10.8,15.3,22.2,19.2h0V23.1c-4.5-1.8-6.4-3.7-6.4-6.4s3.1-5.2,6.4-5.4V0C237.6.3,225.7,5,225.7,17.4Z"/></svg>