<svg xmlns="http://www.w3.org/2000/svg" viewBox="0 0 226.5 256.7"><path d="M22.2,212.9H8.2C8,207.7,5,204.6,0,204.4v1c4.6.2,7.3,3,7.3,8v.5H23.2v-.5c0-9.5-7.2-19-23.2-19.1v.9C11,195.3,21.9,200.7,22.2,212.9Z"/><path d="M.9,219.1c11,3.5,22.4,7,22.4,18.8S14,255.7,0,255.8v.9c14.5,0,24.3-7.6,24.3-18.9s-11.7-16.1-23-19.7L0,217.8v1Z"/><path d="M.4,245.9c5.3,0,9.1-3,9.1-7.3s-4-6.5-9.4-8.3v1c5,1.7,8.5,3.4,8.5,7.3S5.1,245,.4,245H0v1Z"/><path d="M7.3,19.1v.5H23.2v-.5C23.2,9.6,16,.1,0,0V.9C11,1,21.9,6.5,22.2,18.6H8.2C8,13.5,5,10.4,0,10.2v1C4.6,11.3,7.3,14.2,7.3,19.1Z"/><path d="M.4,51.7c5.3,0,9.1-3,9.1-7.3s-4-6.5-9.4-8.3v1c5,1.7,8.5,3.4,8.5,7.3S5.1,50.7.4,50.7H0v1Z"/><path d="M24.3,43.6c0-12.4-11.7-16.1-23-19.7L0,23.5v1l.9.3c11,3.5,22.4,7,22.4,18.8S14,61.5,0,61.5v.9C14.5,62.4,24.3,54.9,24.3,43.6Z"/><path d="M47,61H62.9V14.2H82.9V1.5H27V14.2H47ZM28,13.2V2.5H82V13.2H61.9V60h-14V13.2Z"/><path d="M108.4,1.5H92.3V61h16.1ZM107.4,60H93.2V2.5h14.2Z"/><path d="M135.6,24.5,158.2,61h16.3V1.5H158.7V38.4L136.1,1.5H119.7V61h15.9ZM134.7,60h-14V2.5h14.9l24.1,39.3V2.5h13.9V60H158.7l-24-38.8Z"/><path d="M226.5,13.3V1.5H186.1V61h40.4V49.2H202.1V37.2h24.5V25.7H202.1V13.3Zm-.9,13.3v9.7H201.1V50.1h24.5V60H187.1V2.5h38.5v9.9H201.1V26.6Z"/><path d="M64,206.4c-9.2,0-19.1,6.7-19.1,19s9.8,19,19.1,19c12.4,0,19.1-9.8,19.1-19S76.4,206.4,64,206.4Zm0,37.1c-8.8,0-18.1-6.3-18.1-18.1s9.3-18.1,18.1-18.1c11.8,0,18.1,9.3,18.1,18.1S75.8,243.6,64,243.6Z"/><path d="M64,194.2c-22.4,0-34.1,15.7-34.1,31.2S41.7,256.7,64,256.7s34-15.7,34-31.2S86.4,194.2,64,194.2Zm0,61.5c-21.8,0-33.1-15.2-33.1-30.3S42.3,195.2,64,195.2s33.1,15.2,33.1,30.3S85.8,255.8,64,255.8Z"/><path d="M145.4,232.7l-22.6-36.9H106.5v59.5h15.9V218.8l22.5,36.4h16.3V195.7H145.4Zm.9-36h13.9v57.6H145.4l-24-38.8v38.8h-14V196.7h14.9L146.4,236Z"/><path d="M34.4,159.8H50.5V100.3H34.4Zm.9-58.5H49.6v57.6H35.4Z"/><path d="M126,159.8l21.1-59.5H131.7l-11.6,37.3-11.7-37.3H97.3L85.7,137.6,74,100.3H58.6l21,59.2v.3H91.6l11.3-35.7,11.3,35.7Zm-35.1-.9H80.4L60,101.3H73.3l12.4,39.5L98,101.3h9.8l12.4,39.5,12.3-39.5h13.4l-20.4,57.6H114.9l-12-37.9Z"/><path d="M161.9,100.3l-23.5,59.5h17l2.5-7.1h22.3l2.5,7.1H200l-23.7-59.5Zm21.5,58.5-2.5-7.1H157.3l-2.5,7.1H139.8l22.7-57.6h13.1l23,57.6Z"/><path d="M160.5,142.1h17L169.2,116Zm1.3-.9,7.3-22.1,7.1,22.1Z"/><polygon points="0 101.2 26.5 101.2 26.5 112 6.9 112 6.9 158.8 0 158.8 0 159.8 7.8 159.8 7.8 113 27.5 113 27.5 100.2 0 100.2 0 101.2"/></svg>