<?xml version="1.0" encoding="utf-8"?>
<!-- Generator: Adobe Illustrator 21.0.2, SVG Export Plug-In . SVG Version: 6.00 Build 0)  -->
<svg version="1.1" id="Layer_1" xmlns="http://www.w3.org/2000/svg" xmlns:xlink="http://www.w3.org/1999/xlink" x="0px" y="0px"
	 viewBox="0 0 226.5 320" style="enable-background:new 0 0 226.5 320;" xml:space="preserve">
<path d="M22.2,212.9h-14C8,207.7,5,204.6,0,204.4v1c4.6,0.2,7.3,3,7.3,8v0.5h15.9v-0.5c0-9.5-7.2-19-23.2-19.1v0.9
	C11,195.3,21.9,200.7,22.2,212.9z"/>
<path d="M0.9,219.1c11,3.5,22.4,7,22.4,18.8S14,255.7,0,255.8v0.9c14.5,0,24.3-7.6,24.3-18.9s-11.7-16.1-23-19.7L0,217.8v1
	L0.9,219.1z"/>
<path d="M0.4,245.9c5.3,0,9.1-3,9.1-7.3s-4-6.5-9.4-8.3v1c5,1.7,8.5,3.4,8.5,7.3S5.1,245,0.4,245H0v1L0.4,245.9z"/>
<path d="M7.3,19.1v0.5h15.9v-0.5C23.2,9.6,16,0.1,0,0v0.9C11,1,21.9,6.5,22.2,18.6h-14C8,13.5,5,10.4,0,10.2v1
	C4.6,11.3,7.3,14.2,7.3,19.1z"/>
<path d="M0.4,51.7c5.3,0,9.1-3,9.1-7.3s-4-6.5-9.4-8.3v1c5,1.7,8.5,3.4,8.5,7.3s-3.5,6.3-8.2,6.3H0v1H0.4z"/>
<path d="M24.3,43.6c0-12.4-11.7-16.1-23-19.7L0,23.5v1l0.9,0.3c11,3.5,22.4,7,22.4,18.8S14,61.5,0,61.5v0.9
	C14.5,62.4,24.3,54.9,24.3,43.6z"/>
<path d="M47,61h15.9V14.2h20V1.5H27v12.7h20V61z M28,13.2V2.5h54v10.7H61.9V60h-14V13.2H28z"/>
<path d="M108.4,1.5H92.3V61h16.1V1.5z M107.4,60H93.2V2.5h14.2L107.4,60z"/>
<path d="M135.6,24.5L158.2,61h16.3V1.5h-15.8v36.9L136.1,1.5h-16.4V61h15.9L135.6,24.5z M134.7,60h-14V2.5h14.9l24.1,39.3V2.5h13.9
	V60h-14.9l-24-38.8V60z"/>
<path d="M226.5,13.3V1.5h-40.4V61h40.4V49.2h-24.4v-12h24.5V25.7h-24.5V13.3H226.5z M225.6,26.6v9.7h-24.5v13.8h24.5V60h-38.5V2.5
	h38.5v9.9h-24.5v14.2H225.6z"/>
<path d="M64,206.4c-9.2,0-19.1,6.7-19.1,19s9.8,19,19.1,19c12.4,0,19.1-9.8,19.1-19S76.4,206.4,64,206.4z M64,243.5
	c-8.8,0-18.1-6.3-18.1-18.1s9.3-18.1,18.1-18.1c11.8,0,18.1,9.3,18.1,18.1s-6.3,18.2-18.1,18.2V243.5z"/>
<path d="M64,194.2c-22.4,0-34.1,15.7-34.1,31.2s11.8,31.3,34.1,31.3s34-15.7,34-31.2S86.4,194.2,64,194.2z M64,255.7
	c-21.8,0-33.1-15.2-33.1-30.3s11.4-30.2,33.1-30.2s33.1,15.2,33.1,30.3S85.8,255.8,64,255.8V255.7z"/>
<path d="M145.4,232.7l-22.6-36.9h-16.3v59.5h15.9v-36.5l22.5,36.4h16.3v-59.5h-15.8V232.7z M146.3,196.7h13.9v57.6h-14.8l-24-38.8
	v38.8h-14v-57.6h14.9l24.1,39.3L146.3,196.7z"/>
<path d="M34.4,159.8h16.1v-59.5H34.4V159.8z M35.3,101.3h14.3v57.6H35.4L35.3,101.3z"/>
<path d="M126,159.8l21.1-59.5h-15.4l-11.6,37.3l-11.7-37.3H97.3l-11.6,37.3L74,100.3H58.6l21,59.2v0.3h12l11.3-35.7l11.3,35.7H126z
	 M90.9,158.9H80.4L60,101.3h13.3l12.4,39.5L98,101.3h9.8l12.4,39.5l12.3-39.5h13.4l-20.4,57.6h-10.6l-12-37.9L90.9,158.9z"/>
<path d="M161.9,100.3l-23.5,59.5h17l2.5-7.1h22.3l2.5,7.1H200l-23.7-59.5H161.9z M183.4,158.8l-2.5-7.1h-23.6l-2.5,7.1h-15
	l22.7-57.6h13.1l23,57.6H183.4z"/>
<path d="M160.5,142.1h17l-8.3-26.1L160.5,142.1z M161.8,141.2l7.3-22.1l7.1,22.1H161.8z"/>
<polygon points="0,101.2 26.5,101.2 26.5,112 6.9,112 6.9,158.8 0,158.8 0,159.8 7.8,159.8 7.8,113 27.5,113 27.5,100.2 0,100.2 "/>
</svg>
