<svg xmlns="http://www.w3.org/2000/svg" viewBox="0 0 68.4 84.6"><defs><style>.cls-1{fill:#fff;}</style></defs><title>Asset 1</title><g id="Layer_2" data-name="Layer 2"><g id="Layer_1-2" data-name="Layer 1"><g id="CTK_logo_left"><rect class="cls-1" width="68.4" height="84.64"/><polygon points="61.3 47 66.6 47 66.6 59.2 68.4 59.2 68.4 59 68.4 43.9 68.4 43.7 61.3 43.7 61.3 47"/><path d="M66.3,79H62.1c0,3.3,2.5,5.5,6.3,5.6V81.5A2.3,2.3,0,0,1,66.3,79Z"/><path d="M62.6,72.8c0,3.1,2.8,4,5.8,5h0V74.3c-1.2-.5-1.7-1-1.7-1.7s.8-1.4,1.7-1.4V68.3C65.7,68.4,62.6,69.6,62.6,72.8Z"/><path d="M20.2,27.8H16.1a3.8,3.8,0,0,1-3.9,2.6,4.6,4.6,0,0,1-4.7-4.7,4.6,4.6,0,0,1,4.7-4.7,3.7,3.7,0,0,1,4,3.1h4.1c-.5-3.9-3.7-6.5-8.1-6.5a8.6,8.6,0,0,0-6.4,2.5,8.1,8.1,0,0,0-2.2,5.7c0,4.1,3,8.2,8.7,8.2C16.3,33.8,19.6,31.3,20.2,27.8Z"/><polygon points="27 27.3 32.6 27.3 32.6 33.4 36.7 33.4 36.7 17.8 32.6 17.8 32.6 24 27 24 27 17.8 22.8 17.8 22.8 33.4 27 33.4 27 27.3"/><path d="M48.5,33.4h4.9l-3.4-4.9a5.5,5.5,0,0,0,3.3-5c0-3.2-2.7-5.7-6.3-5.7H39.6V33.4h4.2V29.1h1.6ZM43.8,20.9h2.6a2.5,2.5,0,1,1,0,5.1H43.8Z"/><rect x="55.7" y="17.8" width="4.2" height="15.58"/><path d="M33.2,43.7,27.1,59.2h4.5l.7-1.9H38l.7,1.9h4.5L37,43.7Zm0,10.7,1.9-5.8L37,54.3Z"/><polygon points="49.1 49.7 55 59.2 59.3 59.2 59.3 43.7 55.2 43.7 55.2 53.3 49.2 43.7 45 43.7 45 59.2 49.1 59.2 49.1 49.7"/><polygon points="23.6 59.2 23.6 47 28.8 47 28.8 43.7 14.2 43.7 14.2 47 19.4 47 19.4 59.2 23.6 59.2"/><polygon points="31.8 68.7 26.5 75 26.5 68.7 22.3 68.7 22.3 84.2 26.5 84.2 26.5 78 31.8 84.2 36.8 84.2 30 76.5 36.8 68.7 31.8 68.7"/><rect x="38.5" y="68.7" width="4.2" height="15.58"/><polygon points="56 78.3 50.1 68.7 45.8 68.7 45.8 84.2 50 84.2 50 74.7 55.9 84.2 60.2 84.2 60.2 68.7 56 68.7 56 78.3"/><path d="M66.3,28.2H62.1c0,3.3,2.5,5.5,6.3,5.6V30.6A2.3,2.3,0,0,1,66.3,28.2Z"/><path d="M62.6,22c0,3.1,2.8,4,5.8,5h0V23.4c-1.2-.5-1.7-1-1.7-1.7s.8-1.4,1.7-1.4V17.4C65.7,17.5,62.6,18.7,62.6,22Z"/></g></g></g></svg>