<svg xmlns="http://www.w3.org/2000/svg" viewBox="0 0 1279.8 788.5"><defs><style>.a,.b{fill:none;}.b{stroke:#000;stroke-miterlimit:10;stroke-width:0.17px;}</style></defs><title>Asset 7</title><path class="a" d="M594.2,363.4a14,14,0,1,0-14-14A13.7,13.7,0,0,0,594.2,363.4Z"/><polygon class="a" points="853.1 651.6 864.9 651.6 859.1 633.5 853.1 651.6"/><polygon class="a" points="1132.7 108.6 1126.9 90.5 1120.9 108.6 1132.7 108.6"/><polygon class="a" points="473.5 131.2 467.7 113.1 461.7 131.2 473.5 131.2"/><path class="a" d="M887.1,555h-7.7v15.2h7.7a7.6,7.6,0,1,0,0-15.2Z"/><path class="a" d="M1047.9,185.7a14,14,0,1,0-14-14A13.7,13.7,0,0,0,1047.9,185.7Z"/><path class="a" d="M929.6,66.5h-7.7V81.7h7.7a7.6,7.6,0,1,0,0-15.2Z"/><path class="a" d="M22.3,422.3H14.6v15.2h7.7a7.6,7.6,0,1,0,0-15.2Z"/><polygon class="a" points="667.3 286.4 679.1 286.4 673.2 268.3 667.3 286.4"/><path class="a" d="M346.2,668.7a14,14,0,1,0,14,14A13.6,13.6,0,0,0,346.2,668.7Z"/><polygon class="a" points="872.9 441.9 884.7 441.9 878.8 423.8 872.9 441.9"/><polygon class="a" points="647.5 496.4 659.3 496.4 653.5 478.3 647.5 496.4"/><polygon class="a" points="441.9 340.9 453.7 340.9 447.9 322.8 441.9 340.9"/><path class="a" d="M681.5,399.8h-7.7V415h7.7a7.6,7.6,0,1,0,0-15.2Z"/><polygon class="a" points="624.8 775.1 636.6 775.1 630.7 757 624.8 775.1"/><path class="a" d="M799.8,518.9a14,14,0,1,0-14-14A13.7,13.7,0,0,0,799.8,518.9Z"/><polygon class="a" points="907.4 163.1 901.6 145 895.6 163.1 907.4 163.1"/><path class="a" d="M433.5,733h-7.7v15.2h7.7a7.6,7.6,0,1,0,0-15.2Z"/><path class="a" d="M388.6,208.2a14,14,0,1,0-14-14A13.7,13.7,0,0,0,388.6,208.2Z"/><path class="a" d="M476,244.3h-7.7v15.2H476a7.6,7.6,0,1,0,0-15.2Z"/><path class="a" d="M227.9,577.5h-7.7v15.2h7.7a7.6,7.6,0,1,0,0-15.2Z"/><polygon class="a" points="193.9 674.1 205.7 674.1 199.8 656 193.9 674.1"/><path class="a" d="M1135.2,221.7h-7.7v15.2h7.7a7.6,7.6,0,1,0,0-15.2Z"/><polygon class="a" points="1101.2 318.3 1113 318.3 1107.2 300.2 1101.2 318.3"/><path class="a" d="M1005.4,646.2a14,14,0,1,0,14,14A13.6,13.6,0,0,0,1005.4,646.2Z"/><polygon class="a" points="213.6 464.4 225.4 464.4 219.6 446.3 213.6 464.4"/><polygon class="a" points="236.4 185.7 248.2 185.7 242.3 167.6 236.4 185.7"/><polygon class="a" points="751.7 0.1 748.3 0.1 751.7 5.6 751.7 0.1"/><rect class="a" x="708.6" y="391.5" width="11.4" height="43.99"/><polygon class="a" points="716.7 189.6 698.3 189.6 698.3 199.6 716.7 199.6 716.7 207.6 698.3 207.6 698.3 217.2 716.7 217.2 716.7 225.4 687.1 225.4 687.1 181.4 716.7 181.4 716.7 189.6"/><polygon class="a" points="625.6 418 625.6 435.5 614.3 435.5 614.3 391.5 625.6 391.5 625.6 409.3 642.4 409.3 642.4 391.5 653.6 391.5 653.6 435.5 642.4 435.5 642.4 418 625.6 418"/><polygon class="a" points="639.9 537.5 653.4 537.5 634.2 559.5 653.4 581.5 639.9 581.5 624.2 562.9 624.2 581.5 613 581.5 613 537.5 624.2 537.5 624.2 556.2 639.9 537.5"/><polygon class="a" points="635.1 670.1 635.1 714.1 623.4 714.1 605.9 685.9 605.9 714.1 594.6 714.1 594.6 670.1 606.4 670.1 623.9 698.8 623.9 670.1 635.1 670.1"/><polygon class="a" points="619.9 474.5 619.9 509.7 608.7 509.7 608.7 474.5 597.7 474.5 593.7 474.5 593.7 465.7 597.7 465.7 631 465.7 635 465.7 635 474.5 631 474.5 619.9 474.5"/><path class="a" d="M581.3,436.6c-15.3,0-24.5-10.8-24.5-23.1s8.8-23.1,24.4-23.1c13.4,0,21.7,8.1,23,18.2H593c-1-5.2-5-9.1-11.8-9.1-8.8,0-13.7,6.7-13.7,14s5.6,14,13.9,14c6.1,0,10.2-3.4,11.5-7.7h11.2C602.4,429,594.1,436.6,581.3,436.6Z"/><rect class="a" x="574" y="670.1" width="11.4" height="43.99"/><path class="a" d="M594.2,326.3c15.8,0,25.2,11.1,25.2,23.1s-9.4,23.1-25.2,23.1S569,361.5,569,349.4,578.4,326.3,594.2,326.3Z"/><rect class="a" x="573" y="255.7" width="11.4" height="43.99"/><polygon class="a" points="637 343.2 637 371.4 625.8 371.4 625.8 327.4 637.5 327.4 655.1 356.1 655.1 327.4 666.3 327.4 666.3 371.4 654.5 371.4 637 343.2"/><polygon class="a" points="664.6 294.4 662.7 299.7 650.7 299.7 668 255.7 678.4 255.7 695.9 299.7 683.7 299.7 681.8 294.4 664.6 294.4"/><rect class="a" x="701.8" y="48.8" width="11.4" height="43.99"/><polygon class="a" points="655.4 48.8 666.7 48.8 666.7 67.4 682.4 48.8 695.9 48.8 676.7 70.8 695.9 92.7 682.4 92.7 666.7 74.1 666.7 92.7 655.4 92.7 655.4 48.8"/><polygon class="a" points="637.1 181.4 648.9 181.4 666.4 210.1 666.4 181.4 677.6 181.4 677.6 225.4 665.9 225.4 648.4 197.1 648.4 225.4 637.1 225.4 637.1 181.4"/><rect class="a" x="616.5" y="181.4" width="11.4" height="43.99"/><polygon class="a" points="620.2 255.7 628 255.7 637.1 284.6 646.1 255.7 656.9 255.7 641.3 299.7 632.9 299.7 624.1 272 615.3 299.7 606.9 299.7 591.3 255.7 602.1 255.7 611.2 284.6 620.2 255.7"/><polygon class="a" points="567.4 181.4 608.8 181.4 608.8 190.2 593.7 190.2 593.7 225.4 582.4 225.4 582.4 190.2 567.4 190.2 567.4 181.4"/><polygon class="a" points="567.1 264.5 556 264.5 553 264.5 552.3 264.5 552.3 299.7 552.1 299.7 549.1 299.7 546.4 299.7 546.4 264.5 546.4 255.7 546.4 255.7 567.1 255.7 567.1 264.5"/><path class="a" d="M546.3,180.3h.4c11.4,0,17.2,6.5,17.2,14H552.6c0-3.9-2.2-6.3-6.1-6.3h-.2Z"/><path class="a" d="M546.3,218.4h.8c3.7,0,6.5-2.1,6.5-5.2s-3.1-4.6-7.2-6v-9.4l1.3.5c8.6,2.7,17.1,5.5,17.1,14.5s-7.6,13.8-18,13.8h-.4Z"/><path class="a" d="M546.3,326.3h.4c11.4,0,17.2,6.5,17.2,14H552.6c0-3.9-2.2-6.3-6.1-6.3h-.2Z"/><path class="a" d="M546.3,364.4h.8c3.7,0,6.5-2.1,6.5-5.2s-3.1-4.6-7.2-6v-9.4l1.3.5c8.6,2.7,17.1,5.5,17.1,14.5s-7.6,13.8-18,13.8h-.4Z"/><path class="a" d="M539.7,234.9v7.7c-3,.1-5.6,1.6-5.6,4.4s2.1,4.1,5.6,5.4v9.4h-.3c-8.6-2.9-16.5-5.5-16.5-14.1S530.9,235,539.7,234.9Z"/><path class="a" d="M532.8,265.4a7.1,7.1,0,0,0,6.9,7.5v8.2c-10.6-.1-18.2-5.8-18.2-15.7Z"/><polygon class="a" points="519.2 310.2 539.8 310.2 539.8 319.1 539.8 354.2 537 354.2 534.4 354.2 534.4 319.1 533.1 319.1 530.6 319.1 519.2 319.1 519.2 310.2"/><path class="a" d="M539.7,398.4v9.4h-.3c-8.6-2.9-16.5-5.5-16.5-14.1s8-12.6,16.8-12.7v7.7c-3,.1-5.6,1.6-5.6,4.4S536.2,397.1,539.7,398.4Z"/><path class="a" d="M539.7,419v8.2c-10.6-.1-18.2-5.8-18.2-15.7h11.2A7.1,7.1,0,0,0,539.7,419Z"/><path class="a" d="M521.3,683H510.1c0-3.9-2.2-6.3-6.1-6.3h-.2V669h.4C515.5,669,521.3,675.6,521.3,683Z"/><polygon class="a" points="481.5 26.2 511.1 26.2 511.1 34.4 492.7 34.4 492.7 44.4 511.1 44.4 511.1 52.4 492.7 52.4 492.7 62 511.1 62 511.1 70.2 481.5 70.2 481.5 26.2"/><rect class="a" x="503" y="236" width="11.4" height="43.99"/><polygon class="a" points="490.4 144.5 478.1 144.5 476.3 139.2 459 139.2 457.1 144.5 445.1 144.5 462.4 100.5 472.8 100.5 490.4 144.5"/><polygon class="a" points="468.6 532.8 468.6 540.8 450.2 540.8 450.2 550.5 468.6 550.5 468.6 558.6 439 558.6 439 514.7 468.6 514.7 468.6 522.8 450.2 522.8 450.2 532.8 468.6 532.8"/><polygon class="a" points="334.4 558.6 334.4 523.5 319.4 523.5 319.4 514.7 360.7 514.7 360.7 523.5 345.6 523.5 345.6 558.6 334.4 558.6"/><rect class="a" x="325" y="588.9" width="11.4" height="43.99"/><path class="a" d="M298.2,540.5V531l1.3.5c8.6,2.7,17.1,5.5,17.1,14.5s-7.6,13.8-18,13.8h-.4v-8.2h.8c3.7,0,6.5-2.1,6.5-5.2S302.3,541.9,298.2,540.5Z"/><polygon class="a" points="307.9 597.7 304.9 597.7 304.2 597.7 304.2 632.9 304 632.9 301 632.9 298.3 632.9 298.3 597.7 298.3 588.9 298.3 588.9 319 588.9 319 597.7 307.9 597.7"/><path class="a" d="M315.8,673.6H304.5c0-3.9-2.2-6.3-6.1-6.3h-.2v-7.7h.4C309.9,659.5,315.8,666.1,315.8,673.6Z"/><path class="a" d="M315.9,256.2h11.2a7.1,7.1,0,0,0,6.9,7.5v8.2C323.5,271.8,315.9,266.1,315.9,256.2Z"/><path class="a" d="M334.1,243.2v9.4h-.3c-8.6-2.9-16.5-5.5-16.5-14.1s8-12.6,16.8-12.7v7.7c-3,.1-5.6,1.6-5.6,4.4S330.6,241.9,334.1,243.2Z"/><path class="a" d="M388.6,171.1c15.8,0,25.2,11.1,25.2,23.1s-9.4,23.1-25.2,23.1-25.3-11.1-25.3-23.1S372.8,171.1,388.6,171.1Z"/><rect class="a" x="367.4" y="100.5" width="11.4" height="43.99"/><polygon class="a" points="436.8 253.8 436.8 236 448 236 448 280 436.8 280 436.8 262.5 420 262.5 420 280 408.8 280 408.8 236 420 236 420 253.8 436.8 253.8"/><polygon class="a" points="434.3 382 447.8 382 428.6 404 447.8 426 434.3 426 418.6 407.4 418.6 426 407.4 426 407.4 382 418.6 382 418.6 400.7 434.3 382"/><polygon class="a" points="429.5 514.7 429.5 558.6 417.8 558.6 400.3 530.4 400.3 558.6 389.1 558.6 389.1 514.7 400.8 514.7 418.4 543.3 418.4 514.7 429.5 514.7"/><polygon class="a" points="414.3 319 414.3 354.2 403.1 354.2 403.1 319 392.1 319 388.1 319 388.1 310.2 392.1 310.2 425.4 310.2 429.4 310.2 429.4 319 425.4 319 414.3 319"/><path class="a" d="M375.5,234.8c13.4,0,21.7,8.1,23,18.2h-11c-1-5.2-5-9.1-11.8-9.1-8.8,0-13.7,6.7-13.7,14s5.6,14,13.9,14c6.1,0,10.2-3.4,11.5-7.7h11.2c-1.8,9.3-10.1,16.9-22.9,16.9-15.3,0-24.5-10.8-24.5-23.1S359.9,234.8,375.5,234.8Z"/><rect class="a" x="368.4" y="514.7" width="11.4" height="43.99"/><polygon class="a" points="354.1 588.9 363.1 617.8 372.1 588.9 380 588.9 389 617.8 398 588.9 408.8 588.9 393.2 632.9 384.8 632.9 376.1 605.3 367.3 632.9 358.9 632.9 343.3 588.9 354.1 588.9"/><polygon class="a" points="420 588.9 430.3 588.9 447.9 632.9 435.6 632.9 433.8 627.6 416.5 627.6 414.6 632.9 402.6 632.9 420 588.9"/><rect class="a" x="453.7" y="382" width="11.4" height="43.99"/><polygon class="a" points="458.4 354.2 456.5 348.9 439.2 348.9 437.4 354.2 425.4 354.2 442.7 310.2 453.1 310.2 470.6 354.2 458.4 354.2"/><polygon class="a" points="448.9 216.2 431.4 188 431.4 216.2 420.2 216.2 420.2 172.2 431.9 172.2 449.5 200.9 449.5 172.2 460.7 172.2 460.7 216.2 448.9 216.2"/><polygon class="a" points="431.6 26.2 443.3 26.2 460.9 54.9 460.9 26.2 472 26.2 472 70.2 460.3 70.2 442.8 41.9 442.8 70.2 431.6 70.2 431.6 26.2"/><rect class="a" x="410.9" y="26.2" width="11.4" height="43.99"/><polygon class="a" points="414.6 100.5 422.5 100.5 431.5 129.4 440.5 100.5 451.3 100.5 435.7 144.5 427.3 144.5 418.5 116.8 409.8 144.5 401.4 144.5 385.8 100.5 396.6 100.5 405.6 129.4 414.6 100.5"/><polygon class="a" points="361.9 26.2 403.2 26.2 403.2 35 388.1 35 388.1 70.2 376.9 70.2 376.9 35 361.9 35 361.9 26.2"/><polygon class="a" points="361.5 109.3 350.4 109.3 347.4 109.3 346.7 109.3 346.7 144.5 346.5 144.5 343.5 144.5 340.8 144.5 340.8 109.3 340.8 100.5 340.8 100.5 361.5 100.5 361.5 109.3"/><path class="a" d="M340.7,25.1h.4c11.4,0,17.2,6.5,17.2,14H347c0-3.9-2.2-6.3-6.1-6.3h-.2Z"/><path class="a" d="M340.7,63.2h.8c3.7,0,6.5-2.1,6.5-5.2s-3.1-4.6-7.2-6V42.6l1.3.5c8.6,2.7,17.1,5.5,17.1,14.5s-7.6,13.8-18,13.8h-.4Z"/><path class="a" d="M340.7,171.1h.4c11.4,0,17.2,6.5,17.2,14H347c0-3.9-2.2-6.3-6.1-6.3h-.2Z"/><path class="a" d="M340.7,209.2h.8c3.7,0,6.5-2.1,6.5-5.2s-3.1-4.6-7.2-6v-9.4l1.3.5c8.6,2.7,17.1,5.5,17.1,14.5s-7.6,13.8-18,13.8h-.4Z"/><path class="a" d="M334.1,79.7v7.7c-3,.1-5.6,1.6-5.6,4.4s2.1,4.1,5.6,5.4v9.4h-.3c-8.6-2.9-16.5-5.5-16.5-14.1S325.3,79.8,334.1,79.7Z"/><path class="a" d="M327.2,110.2a7.1,7.1,0,0,0,6.9,7.5v8.2c-10.6-.1-18.2-5.8-18.2-15.7Z"/><polygon class="a" points="313.6 155 334.2 155 334.2 163.9 334.2 199 331.4 199 328.8 199 328.8 163.9 327.6 163.9 325 163.9 313.6 163.9 313.6 155"/><path class="a" d="M315.8,527.5H304.5c0-3.9-2.2-6.3-6.1-6.3h-.2v-7.7h.4C309.9,513.5,315.8,520.1,315.8,527.5Z"/><rect class="a" x="297.4" y="80.8" width="11.4" height="43.99"/><polygon class="a" points="171.9 595.7 171.9 613.2 160.7 613.2 160.7 569.2 171.9 569.2 171.9 587 188.7 587 188.7 569.2 199.9 569.2 199.9 613.2 188.7 613.2 188.7 595.7 171.9 595.7"/><path class="a" d="M140.6,504.3c15.8,0,25.2,11.1,25.2,23.1s-9.4,23.1-25.2,23.1-25.3-11.1-25.3-23.1S124.7,504.3,140.6,504.3Z"/><rect class="a" x="119.4" y="433.7" width="11.4" height="43.99"/><polygon class="a" points="166.5 433.7 174.4 433.7 183.4 462.6 192.4 433.7 203.2 433.7 187.6 477.7 179.3 477.7 170.5 450.1 161.7 477.7 153.3 477.7 137.7 433.7 148.5 433.7 157.5 462.6 166.5 433.7"/><rect class="a" x="162.8" y="359.5" width="11.4" height="43.99"/><polygon class="a" points="228.7 226.8 242.3 226.8 223 248.8 242.3 270.8 228.7 270.8 213 252.2 213 270.8 201.8 270.8 201.8 226.8 213 226.8 213 245.5 228.7 226.8"/><polygon class="a" points="224 359.5 224 403.4 212.2 403.4 194.7 375.2 194.7 403.4 183.5 403.4 183.5 359.5 195.2 359.5 212.8 388.1 212.8 359.5 224 359.5"/><polygon class="a" points="208.8 163.8 208.8 199 197.5 199 197.5 163.8 186.5 163.8 182.5 163.8 182.5 155 186.5 155 219.8 155 223.8 155 223.8 163.8 219.8 163.8 208.8 163.8"/><polygon class="a" points="183.4 521.2 183.4 549.5 172.1 549.5 172.1 505.5 183.9 505.5 201.4 534.1 201.4 505.5 212.6 505.5 212.6 549.5 200.9 549.5 183.4 521.2"/><polygon class="a" points="210.9 472.4 209 477.7 197 477.7 214.4 433.7 224.7 433.7 242.3 477.7 230.1 477.7 228.2 472.4 210.9 472.4"/><polygon class="a" points="233.4 403.4 233.4 359.5 263.1 359.5 263.1 367.6 244.7 367.6 244.7 377.6 263.1 377.6 263.1 385.6 244.7 385.6 244.7 395.3 263.1 395.3 263.1 403.4 233.4 403.4"/><rect class="a" x="248.2" y="226.8" width="11.4" height="43.99"/><rect class="a" x="254.9" y="569.2" width="11.4" height="43.99"/><polygon class="a" points="252.8 199 250.9 193.7 233.7 193.7 231.8 199 219.8 199 237.1 155 247.5 155 265 199 252.8 199"/><polygon class="a" points="203.2 80.8 214.4 80.8 214.4 98.6 231.2 98.6 231.2 80.8 242.4 80.8 242.4 124.8 231.2 124.8 231.2 107.3 214.4 107.3 214.4 124.8 203.2 124.8 203.2 80.8"/><path class="a" d="M170,79.6c13.4,0,21.7,8.1,23,18.2h-11c-1-5.2-5-9.1-11.8-9.1-8.8,0-13.7,6.7-13.7,14s5.6,14,13.9,14c6.1,0,10.2-3.4,11.5-7.7H193c-1.8,9.3-10.1,16.9-22.9,16.9-15.3,0-24.5-10.8-24.5-23.1S154.3,79.6,170,79.6Z"/><polygon class="a" points="113.8 359.5 155.1 359.5 155.1 368.3 140 368.3 140 403.4 128.8 403.4 128.8 368.3 113.8 368.3 113.8 359.5"/><path class="a" d="M92.6,358.3H93c11.4,0,17.2,6.5,17.2,14H98.9c0-3.9-2.2-6.3-6.1-6.3h-.2Z"/><path class="a" d="M92.6,396.4h.8c3.7,0,6.5-2.1,6.5-5.2s-3.1-4.6-7.2-6v-9.4l1.3.5c8.6,2.7,17.1,5.5,17.1,14.5s-7.6,13.8-18,13.8h-.4Z"/><polygon class="a" points="113.4 433.7 113.4 442.5 102.4 442.5 99.3 442.5 98.6 442.5 98.6 477.7 98.4 477.7 95.5 477.7 92.7 477.7 92.7 442.5 92.7 433.7 92.7 433.7 113.4 433.7"/><path class="a" d="M92.6,504.4H93c11.4,0,17.2,6.5,17.2,14H98.9c0-3.9-2.2-6.3-6.1-6.3h-.2Z"/><path class="a" d="M86.1,412.9v7.7c-3,.1-5.6,1.6-5.6,4.4s2.1,4.1,5.6,5.4v9.4h-.3c-8.6-2.9-16.5-5.5-16.5-14.1S77.2,413,86.1,412.9Z"/><path class="a" d="M79.1,443.4a7.1,7.1,0,0,0,6.9,7.5v8.2c-10.6-.1-18.2-5.8-18.2-15.7Z"/><rect class="a" x="49.4" y="414" width="11.4" height="43.99"/><path class="a" d="M14.6,445.8V458H3.4V414H23.8c10.8,0,17.7,7.4,17.7,15.9a15.3,15.3,0,0,1-9.7,14.2L41.5,458H28.5l-8.6-12.2Z"/><polygon class="a" points="20.7 488.2 32.4 488.2 50 516.9 50 488.2 61.2 488.2 61.2 532.2 49.4 532.2 31.9 504 31.9 532.2 20.7 532.2 20.7 488.2"/><polygon class="a" points="61.5 604 49.8 604 32.3 575.7 32.3 604 21.1 604 21.1 560 32.8 560 50.4 588.7 50.4 560 61.5 560 61.5 604"/><path class="a" d="M86.1,605.1c-10.6-.1-18.2-5.8-18.2-15.7H79.1a7.1,7.1,0,0,0,6.9,7.5Z"/><path class="a" d="M86.1,566.6c-3,.1-5.6,1.6-5.6,4.4s2.1,4.1,5.6,5.4v9.4h-.3c-8.6-2.9-16.5-5.5-16.5-14.1s8-12.6,16.8-12.7Z"/><polygon class="a" points="86.2 497.1 86.2 532.2 83.4 532.2 80.7 532.2 80.7 497.1 79.5 497.1 77 497.1 65.5 497.1 65.5 488.2 86.2 488.2 86.2 497.1"/><path class="a" d="M92.6,550.6v-8.2h.8c3.7,0,6.5-2.1,6.5-5.2s-3.1-4.6-7.2-6v-9.4l1.3.5c8.6,2.7,17.1,5.5,17.1,14.5s-7.6,13.8-18,13.8Z"/><path class="a" d="M103.1,591.2c0-12.1,8.8-23.1,24.4-23.1,13.4,0,21.7,8.1,23,18.2H139.4c-1-5.2-5-9.1-11.8-9.1-8.8,0-13.7,6.7-13.7,14s5.6,14,13.9,14c6.1,0,10.2-3.4,11.5-7.7h11.2c-1.8,9.3-10.1,16.9-22.9,16.9C112.3,614.3,103.1,603.5,103.1,591.2Z"/><polygon class="a" points="144.1 652.2 140 652.2 140 643.4 144.1 643.4 177.3 643.4 181.3 643.4 181.3 652.2 177.3 652.2 166.3 652.2 166.3 687.4 155 687.4 155 652.2 144.1 652.2"/><polygon class="a" points="199.8 759.2 186.2 759.2 170.5 740.6 170.5 759.2 159.3 759.2 159.3 715.2 170.5 715.2 170.5 733.9 186.2 715.2 199.8 715.2 180.5 737.2 199.8 759.2"/><rect class="a" x="205.7" y="715.2" width="11.4" height="43.99"/><polygon class="a" points="210.3 687.4 208.4 682.1 191.2 682.1 189.3 687.4 177.3 687.4 194.6 643.4 205 643.4 222.5 687.4 210.3 687.4"/><path class="a" d="M220.2,601v12.2H208.9v-44h20.4c10.8,0,17.7,7.4,17.7,15.9a15.3,15.3,0,0,1-9.6,14.2l9.7,13.9H234.1L225.5,601Z"/><polygon class="a" points="226.3 643.4 238 643.4 255.6 672.1 255.6 643.4 266.8 643.4 266.8 687.4 255 687.4 237.5 659.2 237.5 687.4 226.3 687.4 226.3 643.4"/><polygon class="a" points="267.1 759.2 255.4 759.2 237.9 730.9 237.9 759.2 226.6 759.2 226.6 715.2 238.4 715.2 255.9 743.9 255.9 715.2 267.1 715.2 267.1 759.2"/><path class="a" d="M262.7,112.6v12.2H251.4v-44h20.4c10.8,0,17.7,7.4,17.7,15.9a15.3,15.3,0,0,1-9.6,14.2l9.7,13.9H276.6l-8.6-12.2Z"/><polygon class="a" points="268.8 155 280.5 155 298.1 183.7 298.1 155 309.2 155 309.2 199 297.5 199 280 170.7 280 199 268.8 199 268.8 155"/><path class="a" d="M291.6,760.3c-10.6-.1-18.2-5.8-18.2-15.7h11.2a7.1,7.1,0,0,0,6.9,7.5Z"/><path class="a" d="M291.6,721.8c-3,.1-5.6,1.6-5.6,4.4s2.1,4.1,5.6,5.4v9.4h-.3c-8.6-2.9-16.5-5.5-16.5-14.1s8-12.6,16.8-12.7Z"/><polygon class="a" points="291.7 652.3 291.7 687.4 288.9 687.4 286.3 687.4 286.3 652.3 285.1 652.3 282.5 652.3 271.1 652.3 271.1 643.4 291.7 643.4 291.7 652.3"/><path class="a" d="M291.6,585.6V595h-.3c-8.6-2.9-16.5-5.5-16.5-14.1s8-12.6,16.8-12.7v7.7c-3,.1-5.6,1.6-5.6,4.4S288.1,584.3,291.6,585.6Z"/><path class="a" d="M284.7,598.6a7.1,7.1,0,0,0,6.9,7.5v8.2c-10.6-.1-18.2-5.8-18.2-15.7Z"/><polygon class="a" points="280.4 242.5 280.4 270.8 269.1 270.8 269.1 226.8 280.9 226.8 298.4 255.4 298.4 226.8 309.6 226.8 309.6 270.8 297.9 270.8 280.4 242.5"/><path class="a" d="M298.2,705.8v-8.2h.8c3.7,0,6.5-2.1,6.5-5.2s-3.1-4.6-7.2-6v-9.4l1.3.5c8.6,2.7,17.1,5.5,17.1,14.5s-7.6,13.8-18,13.8Z"/><path class="a" d="M333.2,769.8c-15.3,0-24.5-10.8-24.5-23.1s8.8-23.1,24.4-23.1c13.4,0,21.7,8.1,23,18.2h-11c-1-5.2-5-9.1-11.8-9.1-8.8,0-13.7,6.7-13.7,14s5.6,14,13.9,14c6.1,0,10.2-3.4,11.5-7.7h11.2C354.3,762.2,346,769.8,333.2,769.8Z"/><path class="a" d="M346.2,705.8c-15.9,0-25.3-11.1-25.3-23.1s9.4-23.1,25.3-23.1,25.2,11.1,25.2,23.1S362,705.8,346.2,705.8Z"/><polygon class="a" points="405.5 768.7 394.3 768.7 394.3 751.2 377.5 751.2 377.5 768.7 366.3 768.7 366.3 724.7 377.5 724.7 377.5 742.5 394.3 742.5 394.3 724.7 405.5 724.7 405.5 768.7"/><polygon class="a" points="389 676.4 389 704.7 377.7 704.7 377.7 660.7 389.4 660.7 407 689.3 407 660.7 418.2 660.7 418.2 704.7 406.4 704.7 389 676.4"/><path class="a" d="M439.7,768.7,431,756.5h-5.3v12.2H414.5v-44h20.4c10.8,0,17.7,7.4,17.7,15.9a15.3,15.3,0,0,1-9.6,14.2l9.7,13.9Z"/><rect class="a" x="460.5" y="724.7" width="11.4" height="43.99"/><path class="a" d="M468.3,267.8V280H457V236h20.4c10.8,0,17.7,7.4,17.7,15.9a15.3,15.3,0,0,1-9.6,14.2l9.7,13.9H482.1l-8.6-12.2Z"/><polygon class="a" points="474.4 310.2 486.1 310.2 503.7 338.9 503.7 310.2 514.8 310.2 514.8 354.2 503.1 354.2 485.6 325.9 485.6 354.2 474.4 354.2 474.4 310.2"/><path class="a" d="M497.2,769.8c-10.6-.1-18.2-5.8-18.2-15.7h11.2a7.1,7.1,0,0,0,6.9,7.5Z"/><path class="a" d="M497.2,731.3c-3,.1-5.6,1.6-5.6,4.4s2.1,4.1,5.6,5.4v9.4h-.3c-8.6-2.9-16.5-5.5-16.5-14.1s8-12.6,16.8-12.7Z"/><polygon class="a" points="486 397.7 486 426 474.7 426 474.7 382 486.5 382 504 410.6 504 382 515.2 382 515.2 426 503.5 426 486 397.7"/><path class="a" d="M503.8,707.1h.8c3.7,0,6.5-2.1,6.5-5.2s-3.1-4.6-7.2-6v-9.4l1.3.5c8.6,2.7,17.1,5.5,17.1,14.5s-7.6,13.8-18,13.8h-.4Z"/><polygon class="a" points="524.6 753.2 513.5 753.2 510.5 753.2 509.8 753.2 509.8 788.4 509.6 788.4 506.6 788.4 503.9 788.4 503.9 753.2 503.9 744.4 503.9 744.4 524.6 744.4 524.6 753.2"/><polygon class="a" points="524.9 670.1 566.3 670.1 566.3 678.9 551.2 678.9 551.2 714.1 540 714.1 540 678.9 524.9 678.9 524.9 670.1"/><rect class="a" x="530.5" y="744.4" width="11.4" height="43.99"/><polygon class="a" points="590.4 788.4 581.6 760.8 572.9 788.4 564.5 788.4 548.8 744.4 559.7 744.4 568.7 773.3 577.7 744.4 585.6 744.4 594.6 773.3 603.6 744.4 614.4 744.4 598.8 788.4 590.4 788.4"/><polygon class="a" points="641.2 788.4 639.4 783.1 622.1 783.1 620.2 788.4 608.2 788.4 625.5 744.4 635.9 744.4 653.4 788.4 641.2 788.4"/><polygon class="a" points="674.2 678.3 655.8 678.3 655.8 688.3 674.2 688.3 674.2 696.3 655.8 696.3 655.8 706 674.2 706 674.2 714.1 644.6 714.1 644.6 670.1 674.2 670.1 674.2 678.3"/><rect class="a" x="659.3" y="537.5" width="11.4" height="43.99"/><polygon class="a" points="664 509.7 662.1 504.4 644.8 504.4 642.9 509.7 630.9 509.7 648.3 465.7 658.6 465.7 676.2 509.7 664 509.7"/><path class="a" d="M673.8,423.3v12.2H662.6v-44H683c10.8,0,17.7,7.4,17.7,15.9a15.3,15.3,0,0,1-9.6,14.2l9.7,13.9H687.7l-8.6-12.2Z"/><polygon class="a" points="679.9 465.7 691.7 465.7 709.2 494.4 709.2 465.7 720.4 465.7 720.4 509.7 708.7 509.7 691.2 481.4 691.2 509.7 679.9 509.7 679.9 465.7"/><polygon class="a" points="720.8 581.5 709 581.5 691.6 553.2 691.6 581.5 680.3 581.5 680.3 537.5 692 537.5 709.6 566.1 709.6 537.5 720.8 537.5 720.8 581.5"/><path class="a" d="M1205.5,157.8h.4c11.4,0,17.2,6.5,17.2,14h-11.2c0-3.9-2.2-6.3-6.1-6.3h-.2Z"/><path class="a" d="M1205.5,195.8h.8c3.7,0,6.5-2.1,6.5-5.2s-3.1-4.6-7.2-6v-9.4l1.3.5c8.6,2.7,17.1,5.5,17.1,14.5s-7.6,13.8-18,13.8h-.4Z"/><path class="a" d="M1205.5,303.8h.4c11.4,0,17.2,6.5,17.2,14h-11.2c0-3.9-2.2-6.3-6.1-6.3h-.2Z"/><path class="a" d="M1199,212.3V220c-3,.1-5.6,1.6-5.6,4.4s2.1,4.1,5.6,5.4v9.4h-.3c-8.6-2.9-16.5-5.5-16.5-14.1S1190.1,212.4,1199,212.3Z"/><path class="a" d="M1192,242.8a7.1,7.1,0,0,0,6.9,7.5v8.2c-10.6-.1-18.2-5.8-18.2-15.7Z"/><polygon class="a" points="1140.7 3.7 1170.4 3.7 1170.4 11.9 1152 11.9 1152 21.8 1170.4 21.8 1170.4 29.8 1152 29.8 1152 39.5 1170.4 39.5 1170.4 47.7 1140.7 47.7 1140.7 3.7"/><rect class="a" x="1162.3" y="213.4" width="11.4" height="43.99"/><polygon class="a" points="1149.6 122 1137.4 122 1135.5 116.6 1118.2 116.6 1116.3 122 1104.3 122 1121.7 78 1132 78 1149.6 122"/><polygon class="a" points="1079.2 240 1079.2 257.4 1068 257.4 1068 213.4 1079.2 213.4 1079.2 231.2 1096 231.2 1096 213.4 1107.2 213.4 1107.2 257.4 1096 257.4 1096 240 1079.2 240"/><polygon class="a" points="1093.5 359.4 1107.1 359.4 1087.9 381.4 1107.1 403.4 1093.5 403.4 1077.9 384.8 1077.9 403.4 1066.6 403.4 1066.6 359.4 1077.9 359.4 1077.9 378.1 1093.5 359.4"/><polygon class="a" points="1088.8 492.1 1088.8 536.1 1077 536.1 1059.6 507.8 1059.6 536.1 1048.3 536.1 1048.3 492.1 1060 492.1 1077.6 520.8 1077.6 492.1 1088.8 492.1"/><polygon class="a" points="1073.6 296.5 1073.6 331.7 1062.3 331.7 1062.3 296.5 1051.4 296.5 1047.3 296.5 1047.3 287.7 1051.4 287.7 1084.6 287.7 1088.7 287.7 1088.7 296.5 1084.6 296.5 1073.6 296.5"/><path class="a" d="M1034.9,258.6c-15.3,0-24.5-10.8-24.5-23.1s8.8-23.1,24.4-23.1c13.4,0,21.7,8.1,23,18.2h-11c-1-5.2-5-9.1-11.8-9.1-8.8,0-13.7,6.7-13.7,14s5.6,14,13.9,14c6.1,0,10.2-3.4,11.5-7.7h11.2C1056,251,1047.7,258.6,1034.9,258.6Z"/><rect class="a" x="1027.7" y="492.1" width="11.4" height="43.99"/><path class="a" d="M1047.9,148.6c15.8,0,25.2,11.1,25.2,23.1s-9.4,23.1-25.2,23.1-25.3-11.1-25.3-23.1S1032,148.6,1047.9,148.6Z"/><rect class="a" x="1026.7" y="78" width="11.4" height="43.99"/><polygon class="a" points="1090.7 165.4 1090.7 193.7 1079.4 193.7 1079.4 149.7 1091.2 149.7 1108.7 178.4 1108.7 149.7 1119.9 149.7 1119.9 193.7 1108.2 193.7 1090.7 165.4"/><polygon class="a" points="1090.8 3.7 1102.5 3.7 1120.1 32.3 1120.1 3.7 1131.3 3.7 1131.3 47.7 1119.5 47.7 1102 19.4 1102 47.7 1090.8 47.7 1090.8 3.7"/><rect class="a" x="1070.2" y="3.7" width="11.4" height="43.99"/><polygon class="a" points="1073.8 78 1081.7 78 1090.7 106.8 1099.7 78 1110.5 78 1094.9 122 1086.6 122 1077.8 94.3 1069 122 1060.6 122 1045 78 1055.8 78 1064.8 106.8 1073.8 78"/><polygon class="a" points="1021.1 3.7 1062.4 3.7 1062.4 12.5 1047.3 12.5 1047.3 47.7 1036.1 47.7 1036.1 12.5 1021.1 12.5 1021.1 3.7"/><polygon class="a" points="1020.7 86.8 1009.7 86.8 1006.7 86.8 1006 86.8 1006 122 1005.8 122 1002.8 122 1000 122 1000 86.8 1000 78 1000 77.9 1020.7 77.9 1020.7 86.8"/><path class="a" d="M999.9,2.6h.4c11.4,0,17.2,6.5,17.2,14h-11.2c0-3.9-2.2-6.3-6.1-6.3h-.2Z"/><path class="a" d="M999.9,40.6h.8c3.7,0,6.5-2.1,6.5-5.2s-3.1-4.6-7.2-6V20.1l1.3.5c8.6,2.7,17.1,5.5,17.1,14.5s-7.6,13.8-18,13.8h-.4Z"/><path class="a" d="M999.9,148.6h.4c11.4,0,17.2,6.5,17.2,14h-11.2c0-3.9-2.2-6.3-6.1-6.3h-.2Z"/><path class="a" d="M999.9,186.7h.8c3.7,0,6.5-2.1,6.5-5.2s-3.1-4.6-7.2-6v-9.4l1.3.5c8.6,2.7,17.1,5.5,17.1,14.5s-7.6,13.8-18,13.8h-.4Z"/><path class="a" d="M993.4,57.1v7.7c-3,.1-5.6,1.6-5.6,4.4s2.1,4.1,5.6,5.4v9.4H993c-8.6-2.9-16.5-5.5-16.5-14.1S984.6,57.2,993.4,57.1Z"/><path class="a" d="M986.4,87.7a7.1,7.1,0,0,0,6.9,7.5v8.2c-10.6-.1-18.2-5.8-18.2-15.7Z"/><polygon class="a" points="972.9 132.5 993.5 132.5 993.5 141.3 993.5 176.5 990.7 176.5 988 176.5 988 141.3 986.8 141.3 984.3 141.3 972.9 141.3 972.9 132.5"/><path class="a" d="M993.4,220.7v9.4H993c-8.6-2.9-16.5-5.5-16.5-14.1s8-12.6,16.8-12.7v7.7c-3,.1-5.6,1.6-5.6,4.4S989.8,219.4,993.4,220.7Z"/><path class="a" d="M957.4,517.9v-9.4l1.3.5c8.6,2.7,17.1,5.5,17.1,14.5s-7.6,13.8-18,13.8h-.4v-8.2h.8c3.7,0,6.5-2.1,6.5-5.2S961.6,519.3,957.4,517.9Z"/><path class="a" d="M975.2,233.7h11.2a7.1,7.1,0,0,0,6.9,7.5v8.2C982.8,249.2,975.2,243.6,975.2,233.7Z"/><path class="a" d="M975,505H963.8c0-3.9-2.2-6.3-6.1-6.3h-.2V491h.4C969.2,491,975,497.5,975,505Z"/><rect class="a" x="956.7" y="58.2" width="11.4" height="43.99"/><polygon class="a" points="906.7 132.5 924.3 176.5 912.1 176.5 910.2 171.1 892.9 171.1 891 176.5 879 176.5 896.4 132.5 906.7 132.5"/><polygon class="a" points="831.2 573.2 831.2 590.7 819.9 590.7 819.9 546.7 831.2 546.7 831.2 564.5 848 564.5 848 546.7 859.1 546.7 859.1 590.7 848 590.7 848 573.2 831.2 573.2"/><path class="a" d="M799.8,481.8c15.8,0,25.2,11.1,25.2,23.1s-9.4,23.1-25.2,23.1-25.3-11.1-25.3-23.1S783.9,481.8,799.8,481.8Z"/><rect class="a" x="778.6" y="411.2" width="11.4" height="43.99"/><polygon class="a" points="825.7 411.2 833.6 411.2 842.7 440 851.6 411.2 862.4 411.2 846.8 455.2 838.5 455.2 829.7 427.5 820.9 455.2 812.5 455.2 796.9 411.2 807.7 411.2 816.8 440 825.7 411.2"/><rect class="a" x="822.1" y="336.9" width="11.4" height="43.99"/><polygon class="a" points="888 204.3 901.5 204.3 882.3 226.3 901.5 248.2 888 248.2 872.3 229.6 872.3 248.2 861 248.2 861 204.3 872.3 204.3 872.3 222.9 888 204.3"/><polygon class="a" points="872 365.6 872 336.9 883.2 336.9 883.2 380.9 871.5 380.9 854 352.6 854 380.9 842.7 380.9 842.7 336.9 854.5 336.9 872 365.6"/><polygon class="a" points="842.6 498.6 842.6 526.9 831.4 526.9 831.4 482.9 843.1 482.9 860.7 511.6 860.7 482.9 871.8 482.9 871.8 526.9 860.1 526.9 842.6 498.6"/><polygon class="a" points="870.1 449.9 868.3 455.2 856.3 455.2 873.6 411.2 884 411.2 901.5 455.2 889.3 455.2 887.4 449.9 870.1 449.9"/><polygon class="a" points="892.7 380.9 892.7 336.9 922.3 336.9 922.3 345.1 903.9 345.1 903.9 355.1 922.3 355.1 922.3 363.1 903.9 363.1 903.9 372.7 922.3 372.7 922.3 380.9 892.7 380.9"/><rect class="a" x="907.4" y="204.3" width="11.4" height="43.99"/><rect class="a" x="914.2" y="546.7" width="11.4" height="43.99"/><polygon class="a" points="862.4 58.2 873.7 58.2 873.7 76 890.5 76 890.5 58.2 901.6 58.2 901.6 102.2 890.5 102.2 890.5 84.8 873.7 84.8 873.7 102.2 862.4 102.2 862.4 58.2"/><polygon class="a" points="879 132.5 883.1 132.5 883.1 141.3 879 141.3 868 141.3 868 176.5 856.8 176.5 856.8 141.3 845.8 141.3 841.8 141.3 841.8 132.5 845.8 132.5 879 132.5"/><path class="a" d="M829.2,57.1c13.4,0,21.7,8.1,23,18.2h-11c-1-5.2-5-9.1-11.8-9.1-8.8,0-13.7,6.7-13.7,14s5.6,14,13.9,14c6.1,0,10.2-3.4,11.5-7.7h11.2c-1.8,9.3-10.1,16.9-22.9,16.9-15.3,0-24.5-10.8-24.5-23.1S813.6,57.1,829.2,57.1Z"/><path class="a" d="M794.4,31.2h.8c3.7,0,6.5-2.1,6.5-5.2s-3.1-4.6-7.2-6V10.6l1.3.5c8.6,2.7,17.1,5.5,17.1,14.5s-7.6,13.8-18,13.8h-.4Z"/><polygon class="a" points="814.4 336.9 814.4 345.7 799.3 345.7 799.3 380.9 788 380.9 788 345.7 773 345.7 773 336.9 814.4 336.9"/><path class="a" d="M787.8,47.6v7.7c-3,.1-5.6,1.6-5.6,4.4s2.1,4.1,5.6,5.4v9.4h-.3c-8.6-2.9-16.5-5.5-16.5-14.1S779,47.7,787.8,47.6Z"/><path class="a" d="M780.9,78.2a7.1,7.1,0,0,0,6.9,7.5v8.2c-10.6-.1-18.2-5.8-18.2-15.7Z"/><path class="a" d="M751.9,362.7v-9.4l1.3.5c8.6,2.7,17.1,5.5,17.1,14.5s-7.6,13.8-18,13.8h-.4v-8.2h.8c3.7,0,6.5-2.1,6.5-5.2S756,364.1,751.9,362.7Z"/><polygon class="a" points="761.6 420 758.6 420 757.9 420 757.9 455.2 757.7 455.2 754.7 455.2 752 455.2 752 420 752 411.2 752 411.1 772.7 411.1 772.7 420 761.6 420"/><path class="a" d="M769.4,495.8H758.2c0-3.9-2.2-6.3-6.1-6.3h-.2v-7.7h.4C763.6,481.8,769.4,488.3,769.4,495.8Z"/><path class="a" d="M769.4,349.8H758.2c0-3.9-2.2-6.3-6.1-6.3h-.2v-7.7h.4C763.6,335.8,769.4,342.3,769.4,349.8Z"/><path class="a" d="M745.3,582.6c-10.6-.1-18.2-5.8-18.2-15.7h11.2a7.1,7.1,0,0,0,6.9,7.5Z"/><path class="a" d="M745.3,544c-3,.1-5.6,1.6-5.6,4.4s2.1,4.1,5.6,5.4v9.4H745c-8.6-2.9-16.5-5.5-16.5-14.1s8-12.6,16.8-12.7Z"/><polygon class="a" points="745.4 474.6 745.4 509.7 742.6 509.7 739.9 509.7 739.9 474.6 738.7 474.6 736.2 474.6 724.8 474.6 724.8 465.7 745.4 465.7 745.4 474.6"/><path class="a" d="M745.3,407.9v9.4H745c-8.6-2.9-16.5-5.5-16.5-14.1s8-12.6,16.8-12.7V398c-3,.1-5.6,1.6-5.6,4.4S741.7,406.6,745.3,407.9Z"/><path class="a" d="M738.4,420.9a7.1,7.1,0,0,0,6.9,7.5v8.2c-10.6-.1-18.2-5.8-18.2-15.7Z"/><polygon class="a" points="734 64.5 734 92.7 722.8 92.7 722.8 48.8 734.5 48.8 752.1 77.4 752.1 48.8 763.3 48.8 763.3 92.7 751.5 92.7 734 64.5"/><path class="a" d="M751.9,528v-8.2h.8c3.7,0,6.5-2.1,6.5-5.2s-3.1-4.6-7.2-6v-9.4l1.3.5c8.6,2.7,17.1,5.5,17.1,14.5s-7.6,13.8-18,13.8Z"/><path class="a" d="M762.3,568.7c0-12.1,8.8-23.1,24.4-23.1,13.4,0,21.7,8.1,23,18.2h-11c-1-5.2-5-9.1-11.8-9.1-8.8,0-13.7,6.7-13.7,14s5.6,14,13.9,14c6.1,0,10.2-3.4,11.5-7.7h11.2c-1.8,9.3-10.1,16.9-22.9,16.9C771.5,591.8,762.3,581,762.3,568.7Z"/><polygon class="a" points="803.3 629.7 799.3 629.7 799.3 620.9 803.3 620.9 836.6 620.9 840.6 620.9 840.6 629.7 836.6 629.7 825.5 629.7 825.5 664.9 814.3 664.9 814.3 629.7 803.3 629.7"/><polygon class="a" points="859 736.7 845.5 736.7 829.8 718.1 829.8 736.7 818.5 736.7 818.5 692.7 829.8 692.7 829.8 711.3 845.5 692.7 859 692.7 839.8 714.7 859 736.7"/><rect class="a" x="864.9" y="692.7" width="11.4" height="43.99"/><polygon class="a" points="869.6 664.9 867.7 659.6 850.4 659.6 848.5 664.9 836.5 664.9 853.9 620.9 864.2 620.9 881.8 664.9 869.6 664.9"/><path class="a" d="M879.4,578.5v12.2H868.2v-44h20.4c10.8,0,17.7,7.4,17.7,15.9a15.3,15.3,0,0,1-9.6,14.2l9.7,13.9H893.3l-8.6-12.2Z"/><polygon class="a" points="885.5 620.9 897.3 620.9 914.8 649.6 914.8 620.9 926 620.9 926 664.9 914.3 664.9 896.8 636.6 896.8 664.9 885.5 664.9 885.5 620.9"/><polygon class="a" points="926.4 736.7 914.6 736.7 897.1 708.4 897.1 736.7 885.9 736.7 885.9 692.7 897.6 692.7 915.2 721.3 915.2 692.7 926.4 692.7 926.4 736.7"/><path class="a" d="M921.9,90v12.2H910.7v-44h20.4c10.8,0,17.7,7.4,17.7,15.9a15.3,15.3,0,0,1-9.7,14.2l9.7,13.9H935.8L927.2,90Z"/><polygon class="a" points="928 132.5 939.8 132.5 957.3 161.1 957.3 132.5 968.5 132.5 968.5 176.5 956.8 176.5 939.3 148.2 939.3 176.5 928 176.5 928 132.5"/><path class="a" d="M950.9,737.8c-10.6-.1-18.2-5.8-18.2-15.7h11.2a7.1,7.1,0,0,0,6.9,7.5Z"/><path class="a" d="M950.9,699.2c-3,.1-5.6,1.6-5.6,4.4s2.1,4.1,5.6,5.4v9.4h-.3c-8.6-2.9-16.5-5.5-16.5-14.1s8-12.6,16.8-12.7Z"/><polygon class="a" points="951 629.8 951 664.9 948.2 664.9 945.5 664.9 945.5 629.8 944.3 629.8 941.8 629.8 930.4 629.8 930.4 620.9 951 620.9 951 629.8"/><path class="a" d="M950.9,563.1v9.4h-.3c-8.6-2.9-16.5-5.5-16.5-14.1s8-12.6,16.8-12.7v7.7c-3,.1-5.6,1.6-5.6,4.4S947.3,561.8,950.9,563.1Z"/><path class="a" d="M943.9,576.1a7.1,7.1,0,0,0,6.9,7.5v8.2c-10.6-.1-18.2-5.8-18.2-15.7Z"/><polygon class="a" points="939.6 220 939.6 248.2 928.4 248.2 928.4 204.3 940.1 204.3 957.7 232.9 957.7 204.3 968.9 204.3 968.9 248.2 957.1 248.2 939.6 220"/><path class="a" d="M957.8,637c11.4,0,17.2,6.5,17.2,14H963.8c0-3.9-2.2-6.3-6.1-6.3h-.2V637Z"/><path class="a" d="M957.9,683.3h-.4v-8.2h.8c3.7,0,6.5-2.1,6.5-5.2s-3.1-4.6-7.2-6v-9.4l1.3.5c8.6,2.7,17.1,5.5,17.1,14.5S968.3,683.3,957.9,683.3Z"/><polygon class="a" points="978.3 575.2 967.2 575.2 964.2 575.2 963.5 575.2 963.5 610.4 963.3 610.4 960.3 610.4 957.5 610.4 957.5 575.2 957.5 566.4 957.5 566.3 978.3 566.3 978.3 575.2"/><polygon class="a" points="978.6 492.1 1019.9 492.1 1019.9 500.9 1004.9 500.9 1004.9 536.1 993.6 536.1 993.6 500.9 978.6 500.9 978.6 492.1"/><rect class="a" x="984.2" y="566.4" width="11.4" height="43.99"/><path class="a" d="M1005.4,683.3c-15.9,0-25.3-11.1-25.3-23.1s9.4-23.1,25.3-23.1,25.2,11.1,25.2,23.1S1021.2,683.3,1005.4,683.3Z"/><polygon class="a" points="1026.5 610.4 1018.1 610.4 1002.5 566.4 1013.3 566.4 1022.3 595.2 1031.3 566.4 1039.2 566.4 1048.3 595.2 1057.2 566.4 1068 566.4 1052.4 610.4 1044.1 610.4 1035.3 582.7 1026.5 610.4"/><polygon class="a" points="1077.4 682.1 1065.7 682.1 1048.2 653.8 1048.2 682.1 1036.9 682.1 1036.9 638.1 1048.7 638.1 1066.2 666.8 1066.2 638.1 1077.4 638.1 1077.4 682.1"/><polygon class="a" points="1094.9 610.4 1093 605.1 1075.7 605.1 1073.9 610.4 1061.8 610.4 1079.2 566.4 1089.5 566.4 1107.1 610.4 1094.9 610.4"/><polygon class="a" points="1127.9 500.3 1109.5 500.3 1109.5 510.3 1127.9 510.3 1127.9 518.3 1109.5 518.3 1109.5 527.9 1127.9 527.9 1127.9 536.1 1098.2 536.1 1098.2 492.1 1127.9 492.1 1127.9 500.3"/><rect class="a" x="1113" y="359.4" width="11.4" height="43.99"/><polygon class="a" points="1117.6 331.7 1115.8 326.3 1098.5 326.3 1096.6 331.7 1084.6 331.7 1101.9 287.7 1112.3 287.7 1129.9 331.7 1117.6 331.7"/><path class="a" d="M1127.5,245.2v12.2h-11.2v-44h20.4c10.8,0,17.7,7.4,17.7,15.9a15.3,15.3,0,0,1-9.6,14.2l9.7,13.9h-13.1l-8.6-12.2Z"/><polygon class="a" points="1133.6 287.7 1145.3 287.7 1162.9 316.3 1162.9 287.7 1174.1 287.7 1174.1 331.7 1162.3 331.7 1144.8 303.4 1144.8 331.7 1133.6 331.7 1133.6 287.7"/><polygon class="a" points="1174.4 403.4 1162.7 403.4 1145.2 375.2 1145.2 403.4 1134 403.4 1134 359.4 1145.7 359.4 1163.3 388.1 1163.3 359.4 1174.4 359.4 1174.4 403.4"/><path class="a" d="M1199,404.6c-10.6-.1-18.2-5.8-18.2-15.7H1192a7.1,7.1,0,0,0,6.9,7.5Z"/><path class="a" d="M1199,366c-3,.1-5.6,1.6-5.6,4.4s2.1,4.1,5.6,5.4v9.4h-.3c-8.6-2.9-16.5-5.5-16.5-14.1s8-12.6,16.8-12.7Z"/><polygon class="a" points="1199.1 296.5 1199.1 331.7 1196.3 331.7 1193.6 331.7 1193.6 296.5 1192.4 296.5 1189.9 296.5 1178.4 296.5 1178.4 287.7 1199.1 287.7 1199.1 296.5"/><path class="a" d="M1205.9,350h-.4v-8.2h.8c3.7,0,6.5-2.1,6.5-5.2s-3.1-4.6-7.2-6v-9.4l1.3.5c8.6,2.7,17.1,5.5,17.1,14.5S1216.4,350,1205.9,350Z"/><polygon class="a" points="1226.3 242 1215.3 242 1212.2 242 1211.5 242 1211.5 277.2 1211.3 277.2 1208.4 277.2 1205.6 277.2 1205.6 242 1205.6 233.2 1205.6 233.1 1226.3 233.1 1226.3 242"/><polygon class="a" points="1226.7 158.9 1268 158.9 1268 167.7 1252.9 167.7 1252.9 202.9 1241.7 202.9 1241.7 167.7 1226.7 167.7 1226.7 158.9"/><rect class="a" x="1232.3" y="233.2" width="11.4" height="43.99"/><path class="a" d="M1253.5,350c-15.9,0-25.3-11.1-25.3-23.1s9.4-23.1,25.3-23.1,25.2,11.1,25.2,23.1S1269.3,350,1253.5,350Z"/><path class="a" d="M1253.5,312.9a14,14,0,1,0,14,14A13.6,13.6,0,0,0,1253.5,312.9Z"/><path class="a" d="M842.3,30.2a13.7,13.7,0,0,0,14-14,14,14,0,0,0-27.9,0A13.6,13.6,0,0,0,842.3,30.2Z"/><polygon class="a" points="903.2 0.1 889.2 0.1 903.2 22.9 903.2 0.1"/><polygon class="a" points="1078.4 597.1 1090.2 597.1 1084.4 579 1078.4 597.1"/><path class="a" d="M140.6,541.4a14,14,0,1,0-14-14A13.7,13.7,0,0,0,140.6,541.4Z"/><path class="a" d="M270.4,89.1h-7.7v15.2h7.7a7.6,7.6,0,1,0,0-15.2Z"/><polygon class="a" points="690 7.6 701.8 7.6 699.4 0.1 692.5 0.1 690 7.6"/><polygon class="a" points="425.2 601.5 419.2 619.6 431 619.6 425.2 601.5"/><polygon class="b" points="327.6 163.9 328.8 163.9 328.8 199 331.4 199 334.2 199 334.2 163.9 334.2 155 313.6 155 313.6 163.9 325 163.9 327.6 163.9"/><path class="b" d="M334.1,271.9v-8.2a7.1,7.1,0,0,1-6.9-7.5H315.9C315.9,266.1,323.5,271.8,334.1,271.9Z"/><path class="b" d="M334.1,233.3v-7.7c-8.8.1-16.8,4.1-16.8,12.7s7.8,11.2,16.5,14.1h.3v-9.4c-3.6-1.3-5.6-2.9-5.6-5.4S331.1,233.4,334.1,233.3Z"/><path class="b" d="M170.1,125.9c12.8,0,21.1-7.6,22.9-16.9H181.7c-1.3,4.3-5.4,7.7-11.5,7.7-8.3,0-13.9-6.2-13.9-14s5-14,13.7-14c6.7,0,10.8,3.9,11.8,9.1h11c-1.2-10.1-9.5-18.2-23-18.2-15.6,0-24.4,11.1-24.4,23.1S154.8,125.9,170.1,125.9Z"/><polygon class="b" points="214.4 107.3 231.2 107.3 231.2 124.8 242.4 124.8 242.4 80.8 231.2 80.8 231.2 98.6 214.4 98.6 214.4 80.8 203.2 80.8 203.2 124.8 214.4 124.8 214.4 107.3"/><path class="b" d="M289.6,124.8l-9.7-13.9a15.3,15.3,0,0,0,9.6-14.2c0-8.5-6.9-15.9-17.7-15.9H251.4v44h11.2V112.6h5.3l8.6,12.2Zm-19.2-20.5h-7.7V89.1h7.7a7.6,7.6,0,1,1,0,15.2Z"/><rect class="b" x="297.4" y="80.8" width="11.4" height="43.99"/><path class="b" d="M237.1,155l-17.4,44h12l1.9-5.3h17.3l1.9,5.3H265l-17.6-44Zm-.8,30.7,6-18.1,5.8,18.1Z"/><polygon class="b" points="280 170.7 297.5 199 309.2 199 309.2 155 298.1 155 298.1 183.7 280.5 155 268.8 155 268.8 199 280 199 280 170.7"/><polygon class="b" points="223.8 163.8 223.8 155 219.8 155 186.5 155 182.5 155 182.5 163.8 186.5 163.8 197.5 163.8 197.5 199 208.8 199 208.8 163.8 219.8 163.8 223.8 163.8"/><polygon class="b" points="201.8 226.8 201.8 270.8 213 270.8 213 252.2 228.7 270.8 242.3 270.8 223 248.8 242.3 226.8 228.7 226.8 213 245.5 213 226.8 201.8 226.8"/><rect class="b" x="248.2" y="226.8" width="11.4" height="43.99"/><polygon class="b" points="309.6 226.8 298.4 226.8 298.4 255.4 280.9 226.8 269.1 226.8 269.1 270.8 280.4 270.8 280.4 242.5 297.9 270.8 309.6 270.8 309.6 226.8"/><path class="b" d="M334.1,125.9v-8.2a7.1,7.1,0,0,1-6.9-7.5H315.9C315.9,120.1,323.5,125.7,334.1,125.9Z"/><path class="b" d="M333.8,106.5h.3V97.2c-3.6-1.3-5.6-2.9-5.6-5.4s2.6-4.4,5.6-4.4V79.7c-8.8.1-16.8,4.1-16.8,12.7S325.2,103.6,333.8,106.5Z"/><path class="b" d="M347,185.1h11.2c0-7.5-5.8-14-17.2-14h-.4v7.7h.2C344.9,178.8,347,181.2,347,185.1Z"/><path class="b" d="M359.1,203.5c0-9-8.5-11.8-17.1-14.5l-1.3-.5v9.4c4.1,1.4,7.2,2.7,7.2,6s-2.7,5.2-6.5,5.2h-.8v8.2h.4C351.5,217.4,359.1,212.1,359.1,203.5Z"/><path class="b" d="M347,39.1h11.2c0-7.5-5.8-14-17.2-14h-.4v7.7h.2C344.9,32.8,347,35.2,347,39.1Z"/><path class="b" d="M359.1,57.5c0-9-8.5-11.8-17.1-14.5l-1.3-.5V52c4.1,1.4,7.2,2.7,7.2,6s-2.7,5.2-6.5,5.2h-.8v8.2h.4C351.5,71.3,359.1,66.1,359.1,57.5Z"/><polygon class="b" points="376.9 70.2 388.1 70.2 388.1 35 403.2 35 403.2 26.2 361.9 26.2 361.9 35 376.9 35 376.9 70.2"/><rect class="b" x="410.9" y="26.2" width="11.4" height="43.99"/><polygon class="b" points="442.8 41.9 460.3 70.2 472 70.2 472 26.2 460.9 26.2 460.9 54.9 443.3 26.2 431.6 26.2 431.6 70.2 442.8 70.2 442.8 41.9"/><polygon class="b" points="511.1 62 492.7 62 492.7 52.4 511.1 52.4 511.1 44.4 492.7 44.4 492.7 34.4 511.1 34.4 511.1 26.2 481.5 26.2 481.5 70.2 511.1 70.2 511.1 62"/><path class="b" d="M388.6,217.4c15.8,0,25.2-11.1,25.2-23.1s-9.4-23.1-25.2-23.1-25.3,11.1-25.3,23.1S372.8,217.4,388.6,217.4Zm0-37.1a14,14,0,1,1-14,14A13.7,13.7,0,0,1,388.6,180.3Z"/><polygon class="b" points="460.7 172.2 449.5 172.2 449.5 200.9 431.9 172.2 420.2 172.2 420.2 216.2 431.4 216.2 431.4 188 448.9 216.2 460.7 216.2 460.7 172.2"/><rect class="b" x="367.4" y="100.5" width="11.4" height="43.99"/><polygon class="b" points="385.8 100.5 401.4 144.5 409.8 144.5 418.5 116.8 427.3 144.5 435.7 144.5 451.3 100.5 440.5 100.5 431.5 129.4 422.5 100.5 414.6 100.5 405.6 129.4 396.6 100.5 385.8 100.5"/><path class="b" d="M445.1,144.5h12l1.9-5.3h17.3l1.9,5.3h12.2l-17.6-44H462.4Zm28.4-13.3H461.7l6-18.1Z"/><polygon class="b" points="340.8 100.5 340.8 109.3 340.8 144.5 343.5 144.5 346.5 144.5 346.7 144.5 346.7 109.3 347.4 109.3 350.4 109.3 361.5 109.3 361.5 100.5 340.8 100.5 340.8 100.5"/><polygon class="b" points="533.1 319.1 534.4 319.1 534.4 354.2 537 354.2 539.8 354.2 539.8 319.1 539.8 310.2 519.2 310.2 519.2 319.1 530.6 319.1 533.1 319.1"/><path class="b" d="M532.8,411.4H521.5c0,9.9,7.6,15.6,18.2,15.7V419A7.1,7.1,0,0,1,532.8,411.4Z"/><path class="b" d="M539.7,388.5v-7.7c-8.8.1-16.8,4.1-16.8,12.7s7.8,11.2,16.5,14.1h.3v-9.4c-3.6-1.3-5.6-2.9-5.6-5.4S536.7,388.6,539.7,388.5Z"/><path class="b" d="M351.1,258c0,12.3,9.2,23.1,24.5,23.1,12.8,0,21.1-7.6,22.9-16.9H387.3c-1.3,4.3-5.4,7.7-11.5,7.7-8.3,0-13.9-6.2-13.9-14s5-14,13.7-14c6.7,0,10.8,3.9,11.8,9.1h11c-1.2-10.1-9.5-18.2-23-18.2C359.9,234.8,351.1,245.9,351.1,258Z"/><polygon class="b" points="408.8 236 408.8 280 420 280 420 262.5 436.8 262.5 436.8 280 448 280 448 236 436.8 236 436.8 253.8 420 253.8 420 236 408.8 236"/><path class="b" d="M495.2,280l-9.7-13.9a15.3,15.3,0,0,0,9.6-14.2c0-8.5-6.9-15.9-17.7-15.9H457v44h11.2V267.8h5.3l8.6,12.2ZM476,259.5h-7.7V244.3H476a7.6,7.6,0,1,1,0,15.2Z"/><rect class="b" x="503" y="236" width="11.4" height="43.99"/><path class="b" d="M453,310.2H442.7l-17.4,44h12l1.9-5.3h17.3l1.9,5.3h12.2Zm-11.1,30.7,6-18.1,5.8,18.1Z"/><polygon class="b" points="485.6 325.9 503.1 354.2 514.8 354.2 514.8 310.2 503.7 310.2 503.7 338.9 486.1 310.2 474.4 310.2 474.4 354.2 485.6 354.2 485.6 325.9"/><polygon class="b" points="429.4 319 429.4 310.2 425.4 310.2 392.1 310.2 388.1 310.2 388.1 319 392.1 319 403.1 319 403.1 354.2 414.3 354.2 414.3 319 425.4 319 429.4 319"/><polygon class="b" points="407.4 382 407.4 426 418.6 426 418.6 407.4 434.3 426 447.8 426 428.6 404 447.8 382 434.3 382 418.6 400.7 418.6 382 407.4 382"/><rect class="b" x="453.7" y="382" width="11.4" height="43.99"/><polygon class="b" points="515.2 382 504 382 504 410.6 486.5 382 474.7 382 474.7 426 486 426 486 397.7 503.5 426 515.2 426 515.2 382"/><path class="b" d="M539.7,281.1v-8.2a7.1,7.1,0,0,1-6.9-7.5H521.5C521.5,275.3,529.1,280.9,539.7,281.1Z"/><path class="b" d="M539.4,261.7h.3v-9.4c-3.6-1.3-5.6-2.9-5.6-5.4s2.6-4.4,5.6-4.4v-7.7c-8.8.1-16.8,4.1-16.8,12.7S530.8,258.8,539.4,261.7Z"/><path class="b" d="M552.6,340.3h11.2c0-7.5-5.8-14-17.2-14h-.4V334h.2C550.4,334,552.6,336.4,552.6,340.3Z"/><path class="b" d="M564.7,358.7c0-9-8.5-11.8-17.1-14.5l-1.3-.5v9.4c4.1,1.4,7.2,2.7,7.2,6s-2.7,5.2-6.5,5.2h-.8v8.2h.4C557.1,372.6,564.7,367.3,564.7,358.7Z"/><path class="b" d="M552.6,194.3h11.2c0-7.5-5.8-14-17.2-14h-.4V188h.2C550.4,188,552.6,190.4,552.6,194.3Z"/><path class="b" d="M564.7,212.7c0-9-8.5-11.8-17.1-14.5l-1.3-.5v9.4c4.1,1.4,7.2,2.7,7.2,6s-2.7,5.2-6.5,5.2h-.8v8.2h.4C557.1,226.5,564.7,221.3,564.7,212.7Z"/><polygon class="b" points="582.4 225.4 593.7 225.4 593.7 190.2 608.8 190.2 608.8 181.4 567.4 181.4 567.4 190.2 582.4 190.2 582.4 225.4"/><rect class="b" x="616.5" y="181.4" width="11.4" height="43.99"/><polygon class="b" points="648.4 197.1 665.9 225.4 677.6 225.4 677.6 181.4 666.4 181.4 666.4 210.1 648.9 181.4 637.1 181.4 637.1 225.4 648.4 225.4 648.4 197.1"/><polygon class="b" points="687.1 225.4 716.7 225.4 716.7 217.2 698.3 217.2 698.3 207.6 716.7 207.6 716.7 199.6 698.3 199.6 698.3 189.6 716.7 189.6 716.7 181.4 687.1 181.4 687.1 225.4"/><path class="b" d="M594.2,372.6c15.8,0,25.2-11.1,25.2-23.1s-9.4-23.1-25.2-23.1S569,337.4,569,349.4,578.4,372.6,594.2,372.6Zm0-37.1a14,14,0,1,1-14,14A13.7,13.7,0,0,1,594.2,335.5Z"/><polygon class="b" points="666.3 371.4 666.3 327.4 655.1 327.4 655.1 356.1 637.5 327.4 625.8 327.4 625.8 371.4 637 371.4 637 343.2 654.5 371.4 666.3 371.4"/><rect class="b" x="573" y="255.7" width="11.4" height="43.99"/><polygon class="b" points="591.3 255.7 606.9 299.7 615.3 299.7 624.1 272 632.9 299.7 641.3 299.7 656.9 255.7 646.1 255.7 637.1 284.6 628 255.7 620.2 255.7 611.2 284.6 602.1 255.7 591.3 255.7"/><path class="b" d="M683.7,299.7h12.2l-17.6-44H668l-17.4,44h12l1.9-5.3h17.3Zm-16.5-13.3,6-18.1,5.8,18.1Z"/><polygon class="b" points="546.4 255.7 546.4 264.5 546.4 299.7 549.1 299.7 552.1 299.7 552.3 299.7 552.3 264.5 553 264.5 556 264.5 567.1 264.5 567.1 255.7 546.4 255.7 546.4 255.7"/><polygon class="b" points="724.8 474.6 736.2 474.6 738.7 474.6 739.9 474.6 739.9 509.7 742.6 509.7 745.4 509.7 745.4 474.6 745.4 465.7 724.8 465.7 724.8 474.6"/><path class="b" d="M738.4,566.9H727.1c0,9.9,7.6,15.6,18.2,15.7v-8.2A7.1,7.1,0,0,1,738.4,566.9Z"/><path class="b" d="M728.5,549.1c0,8.5,7.8,11.2,16.5,14.1h.3v-9.4c-3.6-1.3-5.6-2.9-5.6-5.4s2.6-4.4,5.6-4.4v-7.7C736.5,536.5,728.5,540.5,728.5,549.1Z"/><path class="b" d="M604.1,419.7H592.9c-1.3,4.3-5.4,7.7-11.5,7.7-8.3,0-13.9-6.2-13.9-14s5-14,13.7-14c6.7,0,10.8,3.9,11.8,9.1h11c-1.2-10.1-9.5-18.2-23-18.2-15.6,0-24.4,11.1-24.4,23.1s9.2,23.1,24.5,23.1C594.1,436.6,602.4,429,604.1,419.7Z"/><polygon class="b" points="653.6 435.5 653.6 391.5 642.4 391.5 642.4 409.3 625.6 409.3 625.6 391.5 614.3 391.5 614.3 435.5 625.6 435.5 625.6 418 642.4 418 642.4 435.5 653.6 435.5"/><path class="b" d="M700.8,435.5l-9.7-13.9a15.3,15.3,0,0,0,9.6-14.2c0-8.5-6.9-15.9-17.7-15.9H662.6v44h11.2V423.3h5.3l8.6,12.2ZM681.5,415h-7.7V399.8h7.7a7.6,7.6,0,1,1,0,15.2Z"/><rect class="b" x="708.6" y="391.5" width="11.4" height="43.99"/><path class="b" d="M648.3,465.7l-17.4,44h12l1.9-5.3h17.3l1.9,5.3h12.2l-17.6-44Zm-.8,30.7,6-18.1,5.8,18.1Z"/><polygon class="b" points="691.2 481.4 708.7 509.7 720.4 509.7 720.4 465.7 709.2 465.7 709.2 494.4 691.7 465.7 679.9 465.7 679.9 509.7 691.2 509.7 691.2 481.4"/><polygon class="b" points="635 474.5 635 465.7 631 465.7 597.7 465.7 593.7 465.7 593.7 474.5 597.7 474.5 608.7 474.5 608.7 509.7 619.9 509.7 619.9 474.5 631 474.5 635 474.5"/><polygon class="b" points="613 537.5 613 581.5 624.2 581.5 624.2 562.9 639.9 581.5 653.4 581.5 634.2 559.5 653.4 537.5 639.9 537.5 624.2 556.2 624.2 537.5 613 537.5"/><rect class="b" x="659.3" y="537.5" width="11.4" height="43.99"/><polygon class="b" points="709.6 566.1 692 537.5 680.3 537.5 680.3 581.5 691.6 581.5 691.6 553.2 709 581.5 720.8 581.5 720.8 537.5 709.6 537.5 709.6 566.1"/><path class="b" d="M745.3,436.6v-8.2a7.1,7.1,0,0,1-6.9-7.5H727.1C727.1,430.8,734.7,436.4,745.3,436.6Z"/><path class="b" d="M745.3,398v-7.7c-8.8.1-16.8,4.1-16.8,12.7s7.8,11.2,16.5,14.1h.3v-9.4c-3.6-1.3-5.6-2.9-5.6-5.4S742.3,398.1,745.3,398Z"/><path class="b" d="M751.9,481.8v7.7h.2c4,0,6.1,2.4,6.1,6.3h11.2c0-7.5-5.8-14-17.2-14Z"/><path class="b" d="M770.3,514.2c0-9-8.5-11.8-17.1-14.5l-1.3-.5v9.4c4.1,1.4,7.2,2.7,7.2,6s-2.7,5.2-6.5,5.2h-.8V528h.4C762.7,528.1,770.3,522.8,770.3,514.2Z"/><path class="b" d="M751.9,335.8v7.7h.2c4,0,6.1,2.5,6.1,6.3h11.2c0-7.5-5.8-14-17.2-14Z"/><path class="b" d="M752.6,373.9h-.8V382h.4c10.4,0,18-5.3,18-13.8s-8.5-11.8-17.1-14.5l-1.3-.5v9.4c4.1,1.4,7.2,2.7,7.2,6S756.4,373.9,752.6,373.9Z"/><polygon class="b" points="773 345.7 788 345.7 788 380.9 799.3 380.9 799.3 345.7 814.4 345.7 814.4 336.9 773 336.9 773 345.7"/><rect class="b" x="822.1" y="336.9" width="11.4" height="43.99"/><polygon class="b" points="842.7 336.9 842.7 380.9 854 380.9 854 352.6 871.5 380.9 883.2 380.9 883.2 336.9 872 336.9 872 365.6 854.5 336.9 842.7 336.9"/><polygon class="b" points="922.3 372.7 903.9 372.7 903.9 363.1 922.3 363.1 922.3 355.1 903.9 355.1 903.9 345.1 922.3 345.1 922.3 336.9 892.7 336.9 892.7 380.9 922.3 380.9 922.3 372.7"/><path class="b" d="M799.8,528.1c15.8,0,25.2-11.1,25.2-23.1s-9.4-23.1-25.2-23.1-25.3,11.1-25.3,23.1S783.9,528.1,799.8,528.1Zm0-37.1a14,14,0,1,1-14,14A13.7,13.7,0,0,1,799.8,491Z"/><polygon class="b" points="871.8 526.9 871.8 482.9 860.7 482.9 860.7 511.6 843.1 482.9 831.4 482.9 831.4 526.9 842.6 526.9 842.6 498.6 860.1 526.9 871.8 526.9"/><rect class="b" x="778.6" y="411.2" width="11.4" height="43.99"/><polygon class="b" points="807.7 411.2 796.9 411.2 812.5 455.2 820.9 455.2 829.7 427.5 838.5 455.2 846.8 455.2 862.4 411.2 851.6 411.2 842.7 440 833.6 411.2 825.7 411.2 816.8 440 807.7 411.2"/><path class="b" d="M889.3,455.2h12.2l-17.6-44H873.6l-17.4,44h12l1.9-5.3h17.3Zm-16.5-13.3,6-18.1,5.8,18.1Z"/><polygon class="b" points="772.7 411.1 752 411.1 752 411.2 752 420 752 455.2 754.7 455.2 757.7 455.2 757.9 455.2 757.9 420 758.6 420 761.6 420 772.7 420 772.7 411.1"/><polygon class="b" points="930.4 629.8 941.8 629.8 944.3 629.8 945.5 629.8 945.5 664.9 948.2 664.9 951 664.9 951 629.8 951 620.9 930.4 620.9 930.4 629.8"/><path class="b" d="M943.9,722.1H932.7c0,9.9,7.6,15.6,18.2,15.7v-8.2A7.1,7.1,0,0,1,943.9,722.1Z"/><path class="b" d="M934.1,704.3c0,8.5,7.8,11.2,16.5,14.1h.3v-9.4c-3.6-1.3-5.6-2.9-5.6-5.4s2.6-4.4,5.6-4.4v-7.7C942.1,691.7,934.1,695.7,934.1,704.3Z"/><path class="b" d="M809.7,574.9H798.5c-1.3,4.3-5.4,7.7-11.5,7.7-8.3,0-13.9-6.2-13.9-14s5-14,13.7-14c6.7,0,10.8,3.9,11.8,9.1h11c-1.2-10.1-9.5-18.2-23-18.2-15.6,0-24.4,11.1-24.4,23.1s9.2,23.1,24.5,23.1C799.7,591.8,808,584.2,809.7,574.9Z"/><polygon class="b" points="859.1 590.7 859.1 546.7 848 546.7 848 564.5 831.2 564.5 831.2 546.7 819.9 546.7 819.9 590.7 831.2 590.7 831.2 573.2 848 573.2 848 590.7 859.1 590.7"/><path class="b" d="M906.4,590.7l-9.7-13.9a15.3,15.3,0,0,0,9.6-14.2c0-8.5-6.9-15.9-17.7-15.9H868.2v44h11.2V578.5h5.3l8.6,12.2Zm-19.2-20.5h-7.7V555h7.7a7.6,7.6,0,1,1,0,15.2Z"/><rect class="b" x="914.2" y="546.7" width="11.4" height="43.99"/><path class="b" d="M853.9,620.9l-17.4,44h12l1.9-5.3h17.3l1.9,5.3h12.2l-17.6-44Zm-.8,30.7,6-18.1,5.8,18.1Z"/><polygon class="b" points="896.8 636.6 914.3 664.9 926 664.9 926 620.9 914.8 620.9 914.8 649.6 897.3 620.9 885.5 620.9 885.5 664.9 896.8 664.9 896.8 636.6"/><polygon class="b" points="825.5 664.9 825.5 629.7 836.6 629.7 840.6 629.7 840.6 620.9 836.6 620.9 803.3 620.9 799.3 620.9 799.3 629.7 803.3 629.7 814.3 629.7 814.3 664.9 825.5 664.9"/><polygon class="b" points="845.5 692.7 829.8 711.3 829.8 692.7 818.5 692.7 818.5 736.7 829.8 736.7 829.8 718.1 845.5 736.7 859 736.7 839.8 714.7 859 692.7 845.5 692.7"/><rect class="b" x="864.9" y="692.7" width="11.4" height="43.99"/><polygon class="b" points="915.2 721.3 897.6 692.7 885.9 692.7 885.9 736.7 897.1 736.7 897.1 708.4 914.6 736.7 926.4 736.7 926.4 692.7 915.2 692.7 915.2 721.3"/><path class="b" d="M950.9,591.8v-8.2a7.1,7.1,0,0,1-6.9-7.5H932.7C932.7,586,940.3,591.6,950.9,591.8Z"/><path class="b" d="M950.9,553.2v-7.7c-8.8.1-16.8,4.1-16.8,12.7s7.8,11.2,16.5,14.1h.3v-9.4c-3.6-1.3-5.6-2.9-5.6-5.4S947.9,553.3,950.9,553.2Z"/><path class="b" d="M957.7,644.7c4,0,6.1,2.5,6.1,6.3H975c0-7.5-5.8-14-17.2-14h-.4v7.7Z"/><path class="b" d="M958.8,655l-1.3-.5V664c4.1,1.4,7.2,2.7,7.2,6s-2.7,5.2-6.5,5.2h-.8v8.2h.4c10.4,0,18-5.3,18-13.8S967.4,657.7,958.8,655Z"/><path class="b" d="M957.4,491v7.7h.2c4,0,6.1,2.5,6.1,6.3H975c0-7.5-5.8-14-17.2-14Z"/><path class="b" d="M958.2,529.1h-.8v8.2h.4c10.4,0,18-5.3,18-13.8s-8.5-11.8-17.1-14.5l-1.3-.5v9.4c4.1,1.4,7.2,2.7,7.2,6S962,529.1,958.2,529.1Z"/><polygon class="b" points="993.6 536.1 1004.9 536.1 1004.9 500.9 1019.9 500.9 1019.9 492.1 978.6 492.1 978.6 500.9 993.6 500.9 993.6 536.1"/><rect class="b" x="1027.7" y="492.1" width="11.4" height="43.99"/><polygon class="b" points="1077.6 520.8 1060 492.1 1048.3 492.1 1048.3 536.1 1059.6 536.1 1059.6 507.8 1077 536.1 1088.8 536.1 1088.8 492.1 1077.6 492.1 1077.6 520.8"/><polygon class="b" points="1098.2 536.1 1127.9 536.1 1127.9 527.9 1109.5 527.9 1109.5 518.3 1127.9 518.3 1127.9 510.3 1109.5 510.3 1109.5 500.3 1127.9 500.3 1127.9 492.1 1098.2 492.1 1098.2 536.1"/><path class="b" d="M1005.4,637c-15.9,0-25.3,11.1-25.3,23.1s9.4,23.1,25.3,23.1,25.2-11.1,25.2-23.1S1021.2,637,1005.4,637Zm0,37.1a14,14,0,1,1,14-14A13.6,13.6,0,0,1,1005.4,674.1Z"/><polygon class="b" points="1066.2 666.8 1048.7 638.1 1036.9 638.1 1036.9 682.1 1048.2 682.1 1048.2 653.8 1065.7 682.1 1077.4 682.1 1077.4 638.1 1066.2 638.1 1066.2 666.8"/><rect class="b" x="984.2" y="566.4" width="11.4" height="43.99"/><polygon class="b" points="1052.4 610.4 1068 566.4 1057.2 566.4 1048.3 595.2 1039.2 566.4 1031.3 566.4 1022.3 595.2 1013.3 566.4 1002.5 566.4 1018.1 610.4 1026.5 610.4 1035.3 582.7 1044.1 610.4 1052.4 610.4"/><path class="b" d="M1079.2,566.4l-17.4,44h12l1.9-5.3H1093l1.9,5.3h12.2l-17.6-44Zm-.8,30.7,6-18.1,5.8,18.1Z"/><polygon class="b" points="957.5 566.4 957.5 575.2 957.5 610.4 960.3 610.4 963.3 610.4 963.5 610.4 963.5 575.2 964.2 575.2 967.2 575.2 978.3 575.2 978.3 566.3 957.5 566.3 957.5 566.4"/><polygon class="b" points="785.1 21 787.9 21 787.9 0.1 782.4 0.1 782.4 21 785.1 21"/><path class="b" d="M787.8,93.9V85.7a7.1,7.1,0,0,1-6.9-7.5H769.6C769.6,88.1,777.2,93.7,787.8,93.9Z"/><path class="b" d="M787.4,74.5h.3V65.2c-3.6-1.3-5.6-2.9-5.6-5.4s2.6-4.4,5.6-4.4V47.6c-8.8.1-16.8,4.1-16.8,12.7S778.8,71.6,787.4,74.5Z"/><polygon class="b" points="685.4 21 687.3 15.6 704.6 15.6 706.5 21 718.7 21 710.4 0.1 699.4 0.1 701.8 7.6 690 7.6 692.5 0.1 681.7 0.1 673.4 21 685.4 21"/><polygon class="b" points="751.2 21 762.9 21 762.9 0.1 751.7 0.1 751.7 5.6 748.3 0.1 738.3 0.1 751.2 21"/><rect class="b" x="722.4" y="0.1" width="11.2" height="20.88"/><rect class="b" x="651.2" y="0.1" width="11.2" height="20.88"/><polygon class="b" points="666.7 74.1 682.4 92.7 695.9 92.7 676.7 70.8 695.9 48.8 682.4 48.8 666.7 67.4 666.7 48.8 655.4 48.8 655.4 92.7 666.7 92.7 666.7 74.1"/><rect class="b" x="701.8" y="48.8" width="11.4" height="43.99"/><polygon class="b" points="763.3 48.8 752.1 48.8 752.1 77.4 734.5 48.8 722.8 48.8 722.8 92.7 734 92.7 734 64.5 751.5 92.7 763.3 92.7 763.3 48.8"/><path class="b" d="M794.6.7c4,0,6.1,2.5,6.1,6.3h11.2a13.1,13.1,0,0,0-2-7H794.4V.8Z"/><path class="b" d="M812.8,25.5c0-9-8.5-11.8-17.1-14.5l-1.3-.5V20c4.1,1.4,7.2,2.7,7.2,6s-2.7,5.2-6.5,5.2h-.8v8.2h.4C805.2,39.3,812.8,34.1,812.8,25.5Z"/><path class="b" d="M842.3,39.3c15.8,0,25.2-11.1,25.2-23.1A22.5,22.5,0,0,0,860.8.1H823.7A22.5,22.5,0,0,0,817,16.2C817,28.3,826.4,39.3,842.3,39.3Zm0-37.1a13.7,13.7,0,0,1,14,14,14,14,0,0,1-27.9,0A13.6,13.6,0,0,1,842.3,2.3Z"/><polygon class="b" points="885.1 38.2 885.1 9.9 902.6 38.2 914.3 38.2 914.3 0.1 903.2 0.1 903.2 22.9 889.2 0.1 873.9 0.1 873.9 38.2 885.1 38.2"/><polygon class="b" points="986.8 141.3 988 141.3 988 176.5 990.7 176.5 993.5 176.5 993.5 141.3 993.5 132.5 972.9 132.5 972.9 141.3 984.3 141.3 986.8 141.3"/><path class="b" d="M993.4,249.4v-8.2a7.1,7.1,0,0,1-6.9-7.5H975.2C975.2,243.6,982.8,249.2,993.4,249.4Z"/><path class="b" d="M993.4,210.8v-7.7c-8.8.1-16.8,4.1-16.8,12.7s7.8,11.2,16.5,14.1h.3v-9.4c-3.6-1.3-5.6-2.9-5.6-5.4S990.3,210.9,993.4,210.8Z"/><path class="b" d="M804.8,80.2c0,12.3,9.2,23.1,24.5,23.1,12.8,0,21.1-7.6,22.9-16.9H841c-1.3,4.3-5.4,7.7-11.5,7.7-8.3,0-13.9-6.2-13.9-14s5-14,13.7-14c6.7,0,10.8,3.9,11.8,9.1h11c-1.2-10.1-9.5-18.2-23-18.2C813.6,57.1,804.8,68.2,804.8,80.2Z"/><polygon class="b" points="873.7 84.8 890.5 84.8 890.5 102.2 901.6 102.2 901.6 58.2 890.5 58.2 890.5 76 873.7 76 873.7 58.2 862.4 58.2 862.4 102.2 873.7 102.2 873.7 84.8"/><path class="b" d="M948.9,102.2l-9.7-13.9a15.3,15.3,0,0,0,9.7-14.2c0-8.5-6.9-15.9-17.7-15.9H910.7v44h11.2V90h5.3l8.6,12.2ZM929.6,81.7h-7.7V66.5h7.7a7.6,7.6,0,1,1,0,15.2Z"/><rect class="b" x="956.7" y="58.2" width="11.4" height="43.99"/><path class="b" d="M879,176.5h12l1.9-5.3h17.3l1.9,5.3h12.2l-17.6-44H896.4Zm28.4-13.3H895.6l6-18.1Z"/><polygon class="b" points="939.3 148.2 956.8 176.5 968.5 176.5 968.5 132.5 957.3 132.5 957.3 161.1 939.8 132.5 928 132.5 928 176.5 939.3 176.5 939.3 148.2"/><polygon class="b" points="841.8 132.5 841.8 141.3 845.8 141.3 856.8 141.3 856.8 176.5 868 176.5 868 141.3 879 141.3 883.1 141.3 883.1 132.5 879 132.5 845.8 132.5 841.8 132.5"/><polygon class="b" points="861 204.3 861 248.2 872.3 248.2 872.3 229.6 888 248.2 901.5 248.2 882.3 226.3 901.5 204.3 888 204.3 872.3 222.9 872.3 204.3 861 204.3"/><rect class="b" x="907.4" y="204.3" width="11.4" height="43.99"/><polygon class="b" points="968.9 204.3 957.7 204.3 957.7 232.9 940.1 204.3 928.4 204.3 928.4 248.2 939.6 248.2 939.6 220 957.1 248.2 968.9 248.2 968.9 204.3"/><path class="b" d="M993.4,103.4V95.2a7.1,7.1,0,0,1-6.9-7.5H975.2C975.2,97.6,982.8,103.2,993.4,103.4Z"/><path class="b" d="M993,83.9h.3V74.6c-3.6-1.3-5.6-2.9-5.6-5.4s2.6-4.4,5.6-4.4V57.1c-8.8.1-16.8,4.1-16.8,12.7S984.4,81.1,993,83.9Z"/><path class="b" d="M1006.3,162.6h11.2c0-7.5-5.8-14-17.2-14h-.4v7.7h.2C1004.1,156.2,1006.3,158.7,1006.3,162.6Z"/><path class="b" d="M1018.3,181c0-9-8.5-11.8-17.1-14.5l-1.3-.5v9.4c4.1,1.4,7.2,2.7,7.2,6s-2.7,5.2-6.5,5.2h-.8v8.2h.4C1010.8,194.8,1018.3,189.6,1018.3,181Z"/><path class="b" d="M1006.3,16.6h11.2c0-7.5-5.8-14-17.2-14h-.4v7.7h.2C1004.1,10.2,1006.3,12.7,1006.3,16.6Z"/><path class="b" d="M1018.3,35c0-9-8.5-11.8-17.1-14.5l-1.3-.5v9.4c4.1,1.4,7.2,2.7,7.2,6s-2.7,5.2-6.5,5.2h-.8v8.2h.4C1010.8,48.8,1018.3,43.5,1018.3,35Z"/><polygon class="b" points="1036.1 47.7 1047.3 47.7 1047.3 12.5 1062.4 12.5 1062.4 3.7 1021.1 3.7 1021.1 12.5 1036.1 12.5 1036.1 47.7"/><rect class="b" x="1070.2" y="3.7" width="11.4" height="43.99"/><polygon class="b" points="1102 19.4 1119.5 47.7 1131.3 47.7 1131.3 3.7 1120.1 3.7 1120.1 32.3 1102.5 3.7 1090.8 3.7 1090.8 47.7 1102 47.7 1102 19.4"/><polygon class="b" points="1170.4 39.5 1152 39.5 1152 29.8 1170.4 29.8 1170.4 21.8 1152 21.8 1152 11.9 1170.4 11.9 1170.4 3.7 1140.7 3.7 1140.7 47.7 1170.4 47.7 1170.4 39.5"/><path class="b" d="M1047.9,194.8c15.8,0,25.2-11.1,25.2-23.1s-9.4-23.1-25.2-23.1-25.3,11.1-25.3,23.1S1032,194.8,1047.9,194.8Zm0-37.1a14,14,0,1,1-14,14A13.7,13.7,0,0,1,1047.9,157.7Z"/><polygon class="b" points="1119.9 193.7 1119.9 149.7 1108.7 149.7 1108.7 178.4 1091.2 149.7 1079.4 149.7 1079.4 193.7 1090.7 193.7 1090.7 165.4 1108.2 193.7 1119.9 193.7"/><rect class="b" x="1026.7" y="78" width="11.4" height="43.99"/><polygon class="b" points="1045 78 1060.6 122 1069 122 1077.8 94.3 1086.6 122 1094.9 122 1110.5 78 1099.7 78 1090.7 106.8 1081.7 78 1073.8 78 1064.8 106.8 1055.8 78 1045 78"/><path class="b" d="M1104.3,122h12l1.9-5.3h17.3l1.9,5.3h12.2L1132,78h-10.3Zm28.4-13.3h-11.8l6-18.1Z"/><polygon class="b" points="1000 78 1000 86.8 1000 122 1002.8 122 1005.8 122 1006 122 1006 86.8 1006.7 86.8 1009.7 86.8 1020.7 86.8 1020.7 77.9 1000 77.9 1000 78"/><polygon class="b" points="1178.4 296.5 1189.9 296.5 1192.4 296.5 1193.6 296.5 1193.6 331.7 1196.3 331.7 1199.1 331.7 1199.1 296.5 1199.1 287.7 1178.4 287.7 1178.4 296.5"/><path class="b" d="M1192,388.9h-11.2c0,9.9,7.6,15.6,18.2,15.7v-8.2A7.1,7.1,0,0,1,1192,388.9Z"/><path class="b" d="M1182.2,371.1c0,8.5,7.8,11.2,16.5,14.1h.3v-9.4c-3.6-1.3-5.6-2.9-5.6-5.4s2.6-4.4,5.6-4.4v-7.7C1190.1,358.4,1182.2,362.5,1182.2,371.1Z"/><path class="b" d="M1057.8,241.7h-11.2c-1.3,4.3-5.4,7.7-11.5,7.7-8.3,0-13.9-6.2-13.9-14s5-14,13.7-14c6.7,0,10.8,3.9,11.8,9.1h11c-1.2-10.1-9.5-18.2-23-18.2-15.6,0-24.4,11.1-24.4,23.1s9.2,23.1,24.5,23.1C1047.7,258.6,1056,251,1057.8,241.7Z"/><polygon class="b" points="1107.2 257.4 1107.2 213.4 1096 213.4 1096 231.2 1079.2 231.2 1079.2 213.4 1068 213.4 1068 257.4 1079.2 257.4 1079.2 240 1096 240 1096 257.4 1107.2 257.4"/><path class="b" d="M1154.4,257.4l-9.7-13.9a15.3,15.3,0,0,0,9.6-14.2c0-8.5-6.9-15.9-17.7-15.9h-20.4v44h11.2V245.2h5.3l8.6,12.2Zm-19.2-20.5h-7.7V221.7h7.7a7.6,7.6,0,1,1,0,15.2Z"/><rect class="b" x="1162.3" y="213.4" width="11.4" height="43.99"/><path class="b" d="M1101.9,287.7l-17.4,44h12l1.9-5.3h17.3l1.9,5.3h12.2l-17.6-44Zm-.8,30.7,6-18.1,5.8,18.1Z"/><polygon class="b" points="1144.8 303.4 1162.3 331.7 1174.1 331.7 1174.1 287.7 1162.9 287.7 1162.9 316.3 1145.3 287.7 1133.6 287.7 1133.6 331.7 1144.8 331.7 1144.8 303.4"/><polygon class="b" points="1088.7 296.5 1088.7 287.7 1084.6 287.7 1051.4 287.7 1047.3 287.7 1047.3 296.5 1051.4 296.5 1062.3 296.5 1062.3 331.7 1073.6 331.7 1073.6 296.5 1084.6 296.5 1088.7 296.5"/><polygon class="b" points="1066.6 359.4 1066.6 403.4 1077.9 403.4 1077.9 384.8 1093.5 403.4 1107.1 403.4 1087.9 381.4 1107.1 359.4 1093.5 359.4 1077.9 378.1 1077.9 359.4 1066.6 359.4"/><rect class="b" x="1113" y="359.4" width="11.4" height="43.99"/><polygon class="b" points="1163.3 388.1 1145.7 359.4 1134 359.4 1134 403.4 1145.2 403.4 1145.2 375.2 1162.7 403.4 1174.4 403.4 1174.4 359.4 1163.3 359.4 1163.3 388.1"/><path class="b" d="M1199,258.5v-8.2a7.1,7.1,0,0,1-6.9-7.5h-11.2C1180.8,252.8,1188.4,258.4,1199,258.5Z"/><path class="b" d="M1198.6,239.1h.3v-9.4c-3.6-1.3-5.6-2.9-5.6-5.4s2.6-4.4,5.6-4.4v-7.7c-8.8.1-16.8,4.1-16.8,12.7S1190,236.3,1198.6,239.1Z"/><path class="b" d="M1211.8,317.8h11.2c0-7.5-5.8-14-17.2-14h-.4v7.7h.2C1209.7,311.4,1211.8,313.9,1211.8,317.8Z"/><path class="b" d="M1206.8,321.7l-1.3-.5v9.4c4.1,1.4,7.2,2.7,7.2,6s-2.7,5.2-6.5,5.2h-.8V350h.4c10.4,0,18-5.3,18-13.8S1215.4,324.4,1206.8,321.7Z"/><path class="b" d="M1211.8,171.8h11.2c0-7.5-5.8-14-17.2-14h-.4v7.7h.2C1209.7,165.4,1211.8,167.9,1211.8,171.8Z"/><path class="b" d="M1223.9,190.2c0-9-8.5-11.8-17.1-14.5l-1.3-.5v9.4c4.1,1.4,7.2,2.7,7.2,6s-2.7,5.2-6.5,5.2h-.8V204h.4C1216.4,204,1223.9,198.7,1223.9,190.2Z"/><polygon class="b" points="1241.7 202.9 1252.9 202.9 1252.9 167.7 1268 167.7 1268 158.9 1226.7 158.9 1226.7 167.7 1241.7 167.7 1241.7 202.9"/><rect class="b" x="1275.7" y="158.9" width="4" height="43.99"/><path class="b" d="M1253.5,303.8c-15.9,0-25.3,11.1-25.3,23.1s9.4,23.1,25.3,23.1,25.2-11.1,25.2-23.1S1269.3,303.8,1253.5,303.8Zm0,37.1a14,14,0,1,1,14-14A13.6,13.6,0,0,1,1253.5,340.9Z"/><rect class="b" x="1232.3" y="233.2" width="11.4" height="43.99"/><polygon class="b" points="1279.4 233.2 1270.4 262 1261.4 233.2 1250.6 233.2 1266.2 277.2 1274.6 277.2 1279.7 261.1 1279.7 233.2 1279.4 233.2"/><polygon class="b" points="1205.6 233.2 1205.6 242 1205.6 277.2 1208.4 277.2 1211.3 277.2 1211.5 277.2 1211.5 242 1212.2 242 1215.3 242 1226.3 242 1226.3 233.1 1205.6 233.1 1205.6 233.2"/><polygon class="b" points="65.5 497.1 77 497.1 79.5 497.1 80.7 497.1 80.7 532.2 83.4 532.2 86.2 532.2 86.2 497.1 86.2 488.2 65.5 488.2 65.5 497.1"/><path class="b" d="M79.1,589.4H67.9c0,9.9,7.6,15.6,18.2,15.7V597A7.1,7.1,0,0,1,79.1,589.4Z"/><path class="b" d="M69.3,571.7c0,8.5,7.8,11.2,16.5,14.1h.3v-9.4c-3.6-1.3-5.6-2.9-5.6-5.4s2.6-4.4,5.6-4.4v-7.7C77.2,559,69.3,563,69.3,571.7Z"/><path class="b" d="M41.5,458l-9.7-13.9a15.3,15.3,0,0,0,9.7-14.2c0-8.5-6.9-15.9-17.7-15.9H3.4v44H14.6V445.8h5.3L28.5,458ZM22.3,437.5H14.6V422.3h7.7a7.6,7.6,0,1,1,0,15.2Z"/><rect class="b" x="49.4" y="414" width="11.4" height="43.99"/><polygon class="b" points="4.7 532.2 17 532.2 0.1 490 0.1 518.9 0.1 526.9 2.9 526.9 4.7 532.2"/><polygon class="b" points="31.9 504 49.4 532.2 61.2 532.2 61.2 488.2 50 488.2 50 516.9 32.4 488.2 20.7 488.2 20.7 532.2 31.9 532.2 31.9 504"/><rect class="b" x="0.1" y="560" width="11.4" height="43.99"/><polygon class="b" points="50.4 588.7 32.8 560 21.1 560 21.1 604 32.3 604 32.3 575.7 49.8 604 61.5 604 61.5 560 50.4 560 50.4 588.7"/><path class="b" d="M86.1,459.1V451a7.1,7.1,0,0,1-6.9-7.5H67.9C67.9,453.3,75.5,459,86.1,459.1Z"/><path class="b" d="M85.7,439.7h.3v-9.4c-3.6-1.3-5.6-2.9-5.6-5.4s2.6-4.4,5.6-4.4v-7.7c-8.8.1-16.8,4.1-16.8,12.7S77.1,436.8,85.7,439.7Z"/><path class="b" d="M98.9,518.4h11.2c0-7.5-5.8-14-17.2-14h-.4V512h.2C96.8,512,98.9,514.5,98.9,518.4Z"/><path class="b" d="M111,536.8c0-9-8.5-11.8-17.1-14.5l-1.3-.5v9.4c4.1,1.4,7.2,2.7,7.2,6s-2.7,5.2-6.5,5.2h-.8v8.2H93C103.4,550.6,111,545.3,111,536.8Z"/><path class="b" d="M98.9,372.3h11.2c0-7.5-5.8-14-17.2-14h-.4V366h.2C96.8,366,98.9,368.4,98.9,372.3Z"/><path class="b" d="M111,390.8c0-9-8.5-11.8-17.1-14.5l-1.3-.5v9.4c4.1,1.4,7.2,2.7,7.2,6s-2.7,5.2-6.5,5.2h-.8v8.2H93C103.4,404.6,111,399.3,111,390.8Z"/><polygon class="b" points="128.8 403.4 140 403.4 140 368.3 155.1 368.3 155.1 359.5 113.8 359.5 113.8 368.3 128.8 368.3 128.8 403.4"/><rect class="b" x="162.8" y="359.5" width="11.4" height="43.99"/><polygon class="b" points="212.8 388.1 195.2 359.5 183.5 359.5 183.5 403.4 194.7 403.4 194.7 375.2 212.2 403.4 224 403.4 224 359.5 212.8 359.5 212.8 388.1"/><polygon class="b" points="263.1 395.3 244.7 395.3 244.7 385.6 263.1 385.6 263.1 377.6 244.7 377.6 244.7 367.6 263.1 367.6 263.1 359.5 233.4 359.5 233.4 403.4 263.1 403.4 263.1 395.3"/><path class="b" d="M140.6,550.6c15.8,0,25.2-11.1,25.2-23.1s-9.4-23.1-25.2-23.1-25.3,11.1-25.3,23.1S124.7,550.6,140.6,550.6Zm0-37.1a14,14,0,1,1-14,14A13.7,13.7,0,0,1,140.6,513.5Z"/><polygon class="b" points="212.6 549.5 212.6 505.5 201.4 505.5 201.4 534.1 183.9 505.5 172.1 505.5 172.1 549.5 183.4 549.5 183.4 521.2 200.9 549.5 212.6 549.5"/><rect class="b" x="119.4" y="433.7" width="11.4" height="43.99"/><polygon class="b" points="148.5 433.7 137.7 433.7 153.3 477.7 161.7 477.7 170.5 450.1 179.3 477.7 187.6 477.7 203.2 433.7 192.4 433.7 183.4 462.6 174.4 433.7 166.5 433.7 157.5 462.6 148.5 433.7"/><path class="b" d="M230.1,477.7h12.2l-17.6-44H214.4l-17.4,44h12l1.9-5.3h17.3Zm-16.5-13.3,6-18.1,5.8,18.1Z"/><polygon class="b" points="92.7 433.7 92.7 442.5 92.7 477.7 95.5 477.7 98.4 477.7 98.6 477.7 98.6 442.5 99.3 442.5 102.4 442.5 113.4 442.5 113.4 433.7 92.7 433.7 92.7 433.7"/><polygon class="b" points="271.1 652.3 282.5 652.3 285.1 652.3 286.3 652.3 286.3 687.4 288.9 687.4 291.7 687.4 291.7 652.3 291.7 643.4 271.1 643.4 271.1 652.3"/><path class="b" d="M284.7,744.6H273.5c0,9.9,7.6,15.6,18.2,15.7v-8.2A7.1,7.1,0,0,1,284.7,744.6Z"/><path class="b" d="M274.8,726.9c0,8.5,7.8,11.2,16.5,14.1h.3v-9.4c-3.6-1.3-5.6-2.9-5.6-5.4s2.6-4.4,5.6-4.4v-7.7C282.8,714.2,274.8,718.2,274.8,726.9Z"/><path class="b" d="M150.5,597.4H139.2c-1.3,4.3-5.4,7.7-11.5,7.7-8.3,0-13.9-6.2-13.9-14s5-14,13.7-14c6.7,0,10.8,3.9,11.8,9.1h11.1c-1.2-10.1-9.5-18.2-23-18.2-15.6,0-24.4,11.1-24.4,23.1s9.2,23.1,24.5,23.1C140.4,614.3,148.7,606.7,150.5,597.4Z"/><polygon class="b" points="199.9 613.2 199.9 569.2 188.7 569.2 188.7 587 171.9 587 171.9 569.2 160.7 569.2 160.7 613.2 171.9 613.2 171.9 595.7 188.7 595.7 188.7 613.2 199.9 613.2"/><path class="b" d="M247.1,613.2l-9.7-13.9a15.3,15.3,0,0,0,9.6-14.2c0-8.5-6.9-15.9-17.7-15.9H208.9v44h11.2V601h5.3l8.6,12.2Zm-19.2-20.5h-7.7V577.5h7.7a7.6,7.6,0,1,1,0,15.2Z"/><rect class="b" x="254.9" y="569.2" width="11.4" height="43.99"/><path class="b" d="M194.6,643.4l-17.4,44h12l1.9-5.3h17.3l1.9,5.3h12.2l-17.6-44Zm-.8,30.7,6-18.1,5.8,18.1Z"/><polygon class="b" points="237.5 659.2 255 687.4 266.8 687.4 266.8 643.4 255.6 643.4 255.6 672.1 238 643.4 226.3 643.4 226.3 687.4 237.5 687.4 237.5 659.2"/><polygon class="b" points="166.3 687.4 166.3 652.2 177.3 652.2 181.3 652.2 181.3 643.4 177.3 643.4 144.1 643.4 140 643.4 140 652.2 144.1 652.2 155 652.2 155 687.4 166.3 687.4"/><polygon class="b" points="186.2 715.2 170.5 733.9 170.5 715.2 159.3 715.2 159.3 759.2 170.5 759.2 170.5 740.6 186.2 759.2 199.8 759.2 180.5 737.2 199.8 715.2 186.2 715.2"/><rect class="b" x="205.7" y="715.2" width="11.4" height="43.99"/><polygon class="b" points="255.9 743.9 238.4 715.2 226.6 715.2 226.6 759.2 237.9 759.2 237.9 730.9 255.4 759.2 267.1 759.2 267.1 715.2 255.9 715.2 255.9 743.9"/><path class="b" d="M291.6,614.3v-8.2a7.1,7.1,0,0,1-6.9-7.5H273.5C273.5,608.5,281,614.2,291.6,614.3Z"/><path class="b" d="M291.6,575.8v-7.7c-8.8.1-16.8,4.1-16.8,12.7s7.8,11.2,16.5,14.1h.3v-9.4c-3.6-1.3-5.6-2.9-5.6-5.4S288.6,575.8,291.6,575.8Z"/><path class="b" d="M298.2,659.6v7.7h.2c4,0,6.1,2.5,6.1,6.3h11.2c0-7.5-5.8-14-17.2-14Z"/><path class="b" d="M316.6,692c0-9-8.5-11.8-17.1-14.5l-1.3-.5v9.4c4.1,1.4,7.2,2.7,7.2,6s-2.7,5.2-6.5,5.2h-.8v8.2h.4C309,705.8,316.6,700.5,316.6,692Z"/><path class="b" d="M298.2,513.5v7.7h.2c4,0,6.1,2.5,6.1,6.3h11.2c0-7.5-5.8-14-17.2-14Z"/><path class="b" d="M299,551.7h-.8v8.2h.4c10.4,0,18-5.3,18-13.8s-8.5-11.8-17.1-14.5l-1.3-.5v9.4c4.1,1.4,7.2,2.7,7.2,6S302.7,551.7,299,551.7Z"/><polygon class="b" points="345.6 523.5 360.7 523.5 360.7 514.7 319.4 514.7 319.4 523.5 334.4 523.5 334.4 558.6 345.6 558.6 345.6 523.5"/><rect class="b" x="368.4" y="514.7" width="11.4" height="43.99"/><polygon class="b" points="418.4 543.3 400.8 514.7 389.1 514.7 389.1 558.6 400.3 558.6 400.3 530.4 417.8 558.6 429.5 558.6 429.5 514.7 418.4 514.7 418.4 543.3"/><polygon class="b" points="468.6 522.8 468.6 514.7 439 514.7 439 558.6 468.6 558.6 468.6 550.5 450.2 550.5 450.2 540.8 468.6 540.8 468.6 532.8 450.2 532.8 450.2 522.8 468.6 522.8"/><path class="b" d="M346.2,659.5c-15.9,0-25.3,11.1-25.3,23.1s9.4,23.1,25.3,23.1,25.2-11.1,25.2-23.1S362,659.5,346.2,659.5Zm0,37.1a14,14,0,1,1,14-14A13.6,13.6,0,0,1,346.2,696.6Z"/><polygon class="b" points="418.2 660.7 407 660.7 407 689.3 389.4 660.7 377.7 660.7 377.7 704.7 389 704.7 389 676.4 406.4 704.7 418.2 704.7 418.2 660.7"/><rect class="b" x="325" y="588.9" width="11.4" height="43.99"/><polygon class="b" points="367.3 632.9 376.1 605.3 384.8 632.9 393.2 632.9 408.8 588.9 398 588.9 389 617.8 380 588.9 372.1 588.9 363.1 617.8 354.1 588.9 343.3 588.9 358.9 632.9 367.3 632.9"/><path class="b" d="M416.5,627.6h17.3l1.9,5.3h12.2l-17.6-44H420l-17.4,44h12Zm8.7-26.1,5.8,18.1H419.2Z"/><polygon class="b" points="319 588.9 298.3 588.9 298.3 588.9 298.3 597.7 298.3 632.9 301 632.9 304 632.9 304.2 632.9 304.2 597.7 304.9 597.7 307.9 597.7 319 597.7 319 588.9"/><path class="b" d="M333.3,760.7c-8.3,0-13.9-6.2-13.9-14s5-14,13.7-14c6.7,0,10.8,3.9,11.8,9.1h11c-1.2-10.1-9.5-18.2-23-18.2-15.6,0-24.4,11.1-24.4,23.1s9.2,23.1,24.5,23.1c12.8,0,21.1-7.6,22.9-16.9H344.8C343.5,757.3,339.5,760.7,333.3,760.7Z"/><polygon class="b" points="394.3 742.5 377.5 742.5 377.5 724.7 366.3 724.7 366.3 768.7 377.5 768.7 377.5 751.2 394.3 751.2 394.3 768.7 405.5 768.7 405.5 724.7 394.3 724.7 394.3 742.5"/><path class="b" d="M452.6,740.6c0-8.5-6.9-15.9-17.7-15.9H414.5v44h11.2V756.5H431l8.6,12.2h13.1L443,754.8A15.3,15.3,0,0,0,452.6,740.6Zm-19.2,7.6h-7.7V733h7.7a7.6,7.6,0,1,1,0,15.2Z"/><rect class="b" x="460.5" y="724.7" width="11.4" height="43.99"/><path class="b" d="M490.3,754.1H479c0,9.9,7.6,15.6,18.2,15.7v-8.2A7.1,7.1,0,0,1,490.3,754.1Z"/><path class="b" d="M480.4,736.3c0,8.5,7.8,11.2,16.5,14.1h.3v-9.4c-3.6-1.3-5.6-2.9-5.6-5.4s2.6-4.4,5.6-4.4v-7.7C488.4,723.7,480.4,727.7,480.4,736.3Z"/><path class="b" d="M503.8,669v7.7h.2c4,0,6.1,2.5,6.1,6.3h11.2c0-7.5-5.8-14-17.2-14Z"/><path class="b" d="M522.2,701.4c0-9-8.5-11.8-17.1-14.5l-1.3-.5V696c4.1,1.4,7.2,2.7,7.2,6s-2.7,5.2-6.5,5.2h-.8v8.2h.4C514.6,715.3,522.2,710,522.2,701.4Z"/><polygon class="b" points="540 714.1 551.2 714.1 551.2 678.9 566.3 678.9 566.3 670.1 524.9 670.1 524.9 678.9 540 678.9 540 714.1"/><rect class="b" x="574" y="670.1" width="11.4" height="43.99"/><polygon class="b" points="623.9 698.8 606.4 670.1 594.6 670.1 594.6 714.1 605.9 714.1 605.9 685.9 623.4 714.1 635.1 714.1 635.1 670.1 623.9 670.1 623.9 698.8"/><polygon class="b" points="644.6 714.1 674.2 714.1 674.2 706 655.8 706 655.8 696.3 674.2 696.3 674.2 688.3 655.8 688.3 655.8 678.3 674.2 678.3 674.2 670.1 644.6 670.1 644.6 714.1"/><rect class="b" x="530.5" y="744.4" width="11.4" height="43.99"/><polygon class="b" points="603.6 744.4 594.6 773.3 585.6 744.4 577.7 744.4 568.7 773.3 559.7 744.4 548.8 744.4 564.5 788.4 572.9 788.4 581.6 760.8 590.4 788.4 598.8 788.4 614.4 744.4 603.6 744.4"/><path class="b" d="M625.5,744.4l-17.4,44h12l1.9-5.3h17.3l1.9,5.3h12.2l-17.6-44Zm-.8,30.7,6-18.1,5.8,18.1Z"/><polygon class="b" points="503.9 744.4 503.9 753.2 503.9 788.4 506.6 788.4 509.6 788.4 509.8 788.4 509.8 753.2 510.5 753.2 513.5 753.2 524.6 753.2 524.6 744.4 503.9 744.4 503.9 744.4"/></svg>