<svg xmlns="http://www.w3.org/2000/svg" viewBox="0 0 487.3 84.1"><title>Asset 2</title><path d="M288.8,50.9V21.2c0-7.9,5.3-14.6,13.6-14.6S316,13.3,316,21.2V50.9c0,7.9-5.4,14.6-13.7,14.6S288.8,58.8,288.8,50.9ZM3.1,14.7c0,17.6,14.6,23,30.6,28.9,8,3,14.1,5.6,14.1,12.7s-5,10.6-12,10.6S21.4,61.1,21.4,51.3H.5C.5,72,15,83.6,35.1,83.6S68.6,72.7,68.6,55.2,52.8,31,36.8,25.4c-8.1-2.8-12.9-6.2-12.9-12s5-9.2,10.9-9.2c7.4,0,11.4,5,11.4,13H67A28.6,28.6,0,0,0,61.9.5H7.3A24.4,24.4,0,0,0,3.1,14.7Zm78.3,0c0,17.6,14.6,23,30.6,28.9,8,3,14.1,5.6,14.1,12.7s-5,10.6-12,10.6S99.7,61.1,99.7,51.3H78.8c0,20.7,14.5,32.3,34.6,32.3s33.5-10.9,33.5-28.4S131.1,31,115.1,25.4c-8.1-2.8-12.9-6.2-12.9-12s5-9.2,10.9-9.2c7.4,0,11.4,5,11.4,13h20.9A28.6,28.6,0,0,0,140.2.5H85.6A24.4,24.4,0,0,0,81.4,14.7Zm111.1,3.1h20.8c0-9.4,5-13.2,11.5-13.2s10.3,3.1,10.3,10.1c0,9.4-8.5,13.3-19,19.8-14.2,8.8-23.9,17.3-23.9,46.8H255V64.3H216.3c0-8,3.6-10.5,15.8-18.3s23.6-15,23.6-30.8A24.8,24.8,0,0,0,251.3.5H198A28.6,28.6,0,0,0,192.5,17.8ZM275.3.5h54.1A31.6,31.6,0,0,1,337,21.2V50.9c0,17.4-13.6,32.3-34.6,32.3S268,68.3,268,50.9V21.2A31.9,31.9,0,0,1,275.3.5Zm13.4,50.4c0,7.9,5.3,14.6,13.6,14.6S316,58.8,316,50.9V21.2c0-7.9-5.4-14.6-13.7-14.6s-13.6,6.7-13.6,14.6ZM357.1,6.7V21.4h18.6V81.3h21.2V.5H376.4C373.7,4.7,368.1,6.7,357.1,6.7Zm68.6,1.7h35.5L429.9,81.3h22.4L486.6.5H425.7Z" style="fill:none;stroke:#253874;stroke-miterlimit:10"/></svg>